<?xml version="1.0" encoding="UTF-8" standalone="no"?>
<!-- Generator: Adobe Illustrator 19.0.0, SVG Export Plug-In . SVG Version: 6.00 Build 0)  -->

<svg
   version="1.1"
   id="Calque_1"
   x="0px"
   y="0px"
   viewBox="-514 51 200 200"
   style="enable-background:new -514 51 200 200;"
   xml:space="preserve"
   sodipodi:docname="laptop-cloud.svg"
   inkscape:version="1.1.1 (c3084ef, 2021-09-22)"
   xmlns:inkscape="http://www.inkscape.org/namespaces/inkscape"
   xmlns:sodipodi="http://sodipodi.sourceforge.net/DTD/sodipodi-0.dtd"
   xmlns="http://www.w3.org/2000/svg"
   xmlns:svg="http://www.w3.org/2000/svg"><defs
   id="defs83" /><sodipodi:namedview
   id="namedview81"
   pagecolor="#ffffff"
   bordercolor="#666666"
   borderopacity="1.0"
   inkscape:pageshadow="2"
   inkscape:pageopacity="0.0"
   inkscape:pagecheckerboard="0"
   showgrid="false"
   inkscape:zoom="3.37"
   inkscape:cx="89.465875"
   inkscape:cy="104.1543"
   inkscape:window-width="1440"
   inkscape:window-height="872"
   inkscape:window-x="0"
   inkscape:window-y="28"
   inkscape:window-maximized="0"
   inkscape:current-layer="XMLID_67_" />
<style
   type="text/css"
   id="style71">
	.st0{opacity:0.3;}
	.st1{fill:#585763;}
	.st2{fill:#F39208;}
</style>
<g
   id="XMLID_67_"
   transform="matrix(1.3583146,0,0,1.4226926,148.21176,-58.336974)">
	<g
   id="XMLID_2293_"
   class="st0"
   transform="matrix(1.0426492,0,0,1.0618143,17.8256,-9.6468212)">
		<path
   id="XMLID_2299_"
   class="st1"
   d="m -367.4,178.5 h -93.2 c -7.3,0 -13.3,-6 -13.3,-13.3 V 112 c 0,-7.3 6,-13.3 13.3,-13.3 h 93.1 c 7.3,0 13.3,6 13.3,13.3 v 53.3 c 0,7.3 -5.9,13.2 -13.2,13.2 z M -460.6,104 c -4.4,0 -8,3.6 -8,8 v 53.3 c 0,4.4 3.6,8 8,8 h 93.1 c 4.4,0 8,-3.6 8,-8 V 112 c 0,-4.4 -3.6,-8 -8,-8 z" />
	</g>
	<g
   id="XMLID_2284_"
   class="st0"
   transform="matrix(1.0426492,0,0,1.0618143,17.8256,-9.6468212)">
		<path
   id="XMLID_2290_"
   class="st1"
   d="m -352.8,203.3 h -122.4 c -4.4,0 -8,-3.6 -8,-8 v -4.2 c 0,-4.4 3.6,-8 8,-8 h 122.3 c 4.4,0 8,3.6 8,8 v 4.2 c 0,4.5 -3.5,8 -7.9,8 z m -122.4,-14.8 c -1.5,0 -2.7,1.2 -2.7,2.7 v 4.2 c 0,1.5 1.2,2.7 2.7,2.7 h 122.3 c 1.5,0 2.7,-1.2 2.7,-2.7 v -4.2 c 0,-1.5 -1.2,-2.7 -2.7,-2.7 z" />
	</g>
	<g
   id="XMLID_2280_"
   transform="matrix(1.0426492,0,0,1.0618143,17.8256,-9.6468212)">
		<path
   id="XMLID_2281_"
   class="st2"
   d="m -392.6,160.2 h -42.8 c -6.4,0 -11.6,-5.2 -11.6,-11.6 0,-4.8 2.9,-9 7.2,-10.8 0.3,-5.8 4.9,-10.5 10.7,-10.9 2.5,-5.9 8.5,-9.9 15.1,-9.9 6.6,0 12.6,4 15.2,9.9 5.8,0.5 10.4,5.1 10.7,10.9 4.2,1.8 7.1,6 7.1,10.7 0.1,6.5 -5.1,11.7 -11.6,11.7 z m -35.7,-28 c -3.5,0 -6.3,2.8 -6.3,6.3 0,0.3 0,0.5 0.1,0.9 0.2,1.4 -0.7,2.7 -2.1,3 -3,0.6 -5.1,3.2 -5.1,6.2 0,3.5 2.8,6.3 6.3,6.3 h 42.9 c 3.5,0 6.3,-2.8 6.3,-6.3 0,-3 -2.1,-5.6 -5.1,-6.2 -1.4,-0.3 -2.3,-1.6 -2.1,-3 0,-0.3 0.1,-0.6 0.1,-0.9 0,-3.5 -2.8,-6.3 -6.3,-6.3 -0.2,0 -0.4,0 -0.7,0 -1.3,0.1 -2.5,-0.7 -2.8,-1.9 -1.4,-4.7 -5.9,-8.1 -10.8,-8.1 -5,0 -9.4,3.3 -10.8,8.1 -0.4,1.2 -1.5,2 -2.8,1.9 -0.3,0 -0.5,0 -0.8,0 z" />
	</g>
<path
   style="fill:#0000ff;stroke:none;stroke-width:0.312222"
   d="m -480.96913,205.24208 c -1.87571,-0.89142 -3.59223,-2.75741 -4.31879,-4.69486 -0.43942,-1.17175 -0.51887,-2.21288 -0.43048,-5.64103 0.10097,-3.91632 0.16662,-4.30496 0.95892,-5.67751 0.46778,-0.8104 1.37276,-1.9133 2.01104,-2.45092 2.41215,-2.03168 -2.1825,-1.90479 68.89606,-1.90286 43.07019,0.001 65.06418,0.1093 65.82174,0.32357 1.9608,0.55462 3.98712,2.20255 5.02392,4.08578 0.88668,1.61055 0.96176,1.99199 1.06316,5.40129 0.1773,5.96131 -1.1125,8.828 -4.74968,10.55654 l -1.54695,0.73517 h -65.59099 -65.591 z m 132.09787,-4.78774 c 0.55518,-0.26828 1.16794,-0.8421 1.36168,-1.27513 0.44588,-0.99659 0.46094,-6.15651 0.0208,-7.14017 -0.78886,-1.76319 3.68033,-1.64445 -65.56898,-1.74227 -35.13913,-0.0497 -64.35737,-0.005 -64.92942,0.0997 -0.57205,0.10448 -1.37261,0.52852 -1.77901,0.94239 -0.6861,0.69872 -0.7389,0.99141 -0.7389,4.09585 0,1.83886 0.15018,3.62915 0.33375,3.97844 0.8268,1.57329 -2.22324,1.50351 66.29335,1.5167 57.14737,0.0111 64.10531,-0.04 65.00668,-0.47547 z"
   id="path202" /><path
   style="fill:#505d75;fill-opacity:1;stroke-width:0;stroke-miterlimit:4;stroke-dasharray:none"
   d="m -480.84198,205.04361 c -1.88072,-0.98919 -3.51819,-2.67231 -4.18795,-4.30473 -0.6385,-1.55625 -0.58769,-9.27814 0.0703,-10.69034 0.82056,-1.76099 2.84001,-3.86317 4.08562,-4.25301 2.07655,-0.64989 34.6249,-0.93097 84.3687,-0.72857 38.62755,0.15718 48.46211,0.27846 49.25189,0.60741 1.42883,0.59513 3.67761,2.81997 4.41213,4.36519 0.91864,1.93257 0.91993,8.21073 0.002,10.70874 -0.73126,1.99042 -2.30262,3.5948 -4.48261,4.57684 l -1.46125,0.65827 -65.16493,-0.0152 -65.16492,-0.0152 z m 132.93799,-5.14304 c 0.68446,-0.81038 0.74632,-1.15164 0.74245,-4.09601 -0.005,-4.15728 -0.11766,-4.53165 -1.50018,-5.00562 -0.86959,-0.29813 -15.76353,-0.4097 -65.5171,-0.49081 l -64.39167,-0.10502 -0.96727,0.82886 -0.96728,0.82888 v 3.69272 c 0,4.59709 0.13549,4.84099 2.83605,5.10518 1.07773,0.10543 30.54775,0.17687 65.48893,0.15876 l 63.5294,-0.033 z"
   id="path278" /><path
   style="fill:#505d75;fill-opacity:1;stroke-width:0;stroke-miterlimit:4;stroke-dasharray:none;paint-order:stroke markers fill"
   d="m -465.00195,179.49111 c -5.16393,-1.03278 -9.71755,-5.63492 -10.82346,-10.93877 -0.2438,-1.16923 -0.34816,-10.52225 -0.34816,-31.20534 0,-32.14812 -0.0376,-31.39909 1.74452,-34.73364 1.22286,-2.28811 3.67312,-4.591226 6.28088,-5.903735 l 2.30717,-1.16121 h 51.99379 51.99379 l 2.09818,1.008761 c 4.21574,2.026848 7.27638,6.251924 7.94243,10.964214 0.41987,2.97052 0.41987,57.20948 0,60.17998 -0.84286,5.96314 -5.27865,10.68663 -11.0897,11.80892 -2.06674,0.39916 -100.09984,0.38073 -102.09944,-0.0192 z m 102.45747,-5.51183 c 1.97211,-0.68431 4.01013,-2.60168 4.90209,-4.61187 l 0.73924,-1.66604 v -30.24752 c 0,-28.29787 -0.0354,-30.32414 -0.54847,-31.4361 -0.83611,-1.81189 -2.68322,-3.71247 -4.4018,-4.52921 l -1.54696,-0.73517 -50.29835,-0.003 c -55.20171,-0.003 -51.78571,-0.12089 -54.14899,1.86293 -0.59177,0.49675 -1.48894,1.66252 -1.99373,2.5906 l -0.91776,1.68743 -0.0826,30.14052 c -0.0813,29.64738 -0.0739,30.16857 0.54534,31.85396 0.90589,2.46569 3.06653,4.52044 5.56838,5.29546 0.42651,0.13212 23.27051,0.25241 50.76444,0.2673 44.72785,0.0242 50.13949,-0.0252 51.41917,-0.4692 z"
   id="path6781"
   sodipodi:nodetypes="csssscccssssccsscscsccsscssssss" /><path
   style="fill:#d3e1f4;fill-opacity:1;stroke-width:0;stroke-miterlimit:4;stroke-dasharray:none"
   d="m -465.65425,173.41748 c -1.86893,-0.89022 -3.29038,-2.31994 -4.24168,-4.26632 l -0.70859,-1.44979 v -29.61736 c 0,-16.28956 0.10698,-30.1287 0.23772,-30.75363 0.60118,-2.8735 3.79054,-5.95302 6.16539,-5.95302 h 1.17699 l 0.003,4.33233 c 0.004,5.18577 0.48267,17.87459 0.93101,24.65489 1.48945,22.52471 4.61686,37.95872 8.63626,42.6207 l 1.01321,1.1752 -5.83314,-0.003 c -5.46403,-0.003 -5.93103,-0.0497 -7.3801,-0.73986 z"
   id="path13536" /></g>
</svg>
