<?xml version="1.0" encoding="UTF-8" standalone="no"?>
<!-- Generator: Adobe Illustrator 23.0.1, SVG Export Plug-In . SVG Version: 6.00 Build 0)  -->

<svg
   version="1.1"
   id="Layer_1"
   x="0px"
   y="0px"
   viewBox="0 0 500 500"
   style="enable-background:new 0 0 500 500;"
   xml:space="preserve"
   sodipodi:docname="feature-2.svg"
   inkscape:version="1.1.1 (c3084ef, 2021-09-22)"
   xmlns:inkscape="http://www.inkscape.org/namespaces/inkscape"
   xmlns:sodipodi="http://sodipodi.sourceforge.net/DTD/sodipodi-0.dtd"
   xmlns:xlink="http://www.w3.org/1999/xlink"
   xmlns="http://www.w3.org/2000/svg"
   xmlns:svg="http://www.w3.org/2000/svg"><defs
   id="defs29068" /><sodipodi:namedview
   id="namedview29066"
   pagecolor="#ffffff"
   bordercolor="#666666"
   borderopacity="1.0"
   inkscape:pageshadow="2"
   inkscape:pageopacity="0.0"
   inkscape:pagecheckerboard="0"
   showgrid="false"
   inkscape:zoom="1.3"
   inkscape:cx="211.15385"
   inkscape:cy="254.61538"
   inkscape:window-width="1440"
   inkscape:window-height="872"
   inkscape:window-x="0"
   inkscape:window-y="28"
   inkscape:window-maximized="0"
   inkscape:current-layer="g28995" />
<style
   type="text/css"
   id="style28057">
	.st0{fill:#EDECEB;}
	.st1{fill:#FFFFFF;}
	.st2{fill:#E2E2E2;}
	.st3{fill:#FFCBB7;}
	.st4{fill:#5B5B74;}
	.st5{fill:#FCD7CD;}
	.st6{fill:#F39200;}
	.st7{fill:#8C8C8C;}
	.st8{fill:#DBDBDB;}
	.st9{fill:none;stroke:#EDECEB;stroke-miterlimit:10;}
	.st10{fill:#4FC1EA;}
	.st11{fill:#68BB88;}
	.st12{fill:#FF3E00;}
	.st13{fill:#00D1B2;}
	.st14{fill:#2396ED;}
</style>
<g
   id="g28507">
	<circle
   class="st0"
   cx="356"
   cy="36"
   r="2"
   id="circle28059" />
	<circle
   class="st0"
   cx="363"
   cy="36"
   r="2"
   id="circle28061" />
	<circle
   class="st0"
   cx="370"
   cy="36"
   r="2"
   id="circle28063" />
	<circle
   class="st0"
   cx="377"
   cy="36"
   r="2"
   id="circle28065" />
	<circle
   class="st0"
   cx="384"
   cy="36"
   r="2"
   id="circle28067" />
	<circle
   class="st0"
   cx="391"
   cy="36"
   r="2"
   id="circle28069" />
	<circle
   class="st0"
   cx="398"
   cy="36"
   r="2"
   id="circle28071" />
	<circle
   class="st0"
   cx="405"
   cy="36"
   r="2"
   id="circle28073" />
	<circle
   class="st0"
   cx="412"
   cy="36"
   r="2"
   id="circle28075" />
	<circle
   class="st0"
   cx="419"
   cy="36"
   r="2"
   id="circle28077" />
	<circle
   class="st0"
   cx="426"
   cy="36"
   r="2"
   id="circle28079" />
	<circle
   class="st0"
   cx="433"
   cy="36"
   r="2"
   id="circle28081" />
	<circle
   class="st0"
   cx="440"
   cy="36"
   r="2"
   id="circle28083" />
	<circle
   class="st0"
   cx="447"
   cy="36"
   r="2"
   id="circle28085" />
	<circle
   class="st0"
   cx="356"
   cy="44"
   r="2"
   id="circle28087" />
	<circle
   class="st0"
   cx="363"
   cy="44"
   r="2"
   id="circle28089" />
	<circle
   class="st0"
   cx="370"
   cy="44"
   r="2"
   id="circle28091" />
	<circle
   class="st0"
   cx="377"
   cy="44"
   r="2"
   id="circle28093" />
	<circle
   class="st0"
   cx="384"
   cy="44"
   r="2"
   id="circle28095" />
	<circle
   class="st0"
   cx="391"
   cy="44"
   r="2"
   id="circle28097" />
	<circle
   class="st0"
   cx="398"
   cy="44"
   r="2"
   id="circle28099" />
	<circle
   class="st0"
   cx="405"
   cy="44"
   r="2"
   id="circle28101" />
	<circle
   class="st0"
   cx="412"
   cy="44"
   r="2"
   id="circle28103" />
	<circle
   class="st0"
   cx="419"
   cy="44"
   r="2"
   id="circle28105" />
	<circle
   class="st0"
   cx="426"
   cy="44"
   r="2"
   id="circle28107" />
	<circle
   class="st0"
   cx="433"
   cy="44"
   r="2"
   id="circle28109" />
	<circle
   class="st0"
   cx="440"
   cy="44"
   r="2"
   id="circle28111" />
	<circle
   class="st0"
   cx="447"
   cy="44"
   r="2"
   id="circle28113" />
	<circle
   class="st0"
   cx="356"
   cy="52"
   r="2"
   id="circle28115" />
	<circle
   class="st0"
   cx="363"
   cy="52"
   r="2"
   id="circle28117" />
	<circle
   class="st0"
   cx="370"
   cy="52"
   r="2"
   id="circle28119" />
	<circle
   class="st0"
   cx="377"
   cy="52"
   r="2"
   id="circle28121" />
	<circle
   class="st0"
   cx="384"
   cy="52"
   r="2"
   id="circle28123" />
	<circle
   class="st0"
   cx="391"
   cy="52"
   r="2"
   id="circle28125" />
	<circle
   class="st0"
   cx="398"
   cy="52"
   r="2"
   id="circle28127" />
	<circle
   class="st0"
   cx="405"
   cy="52"
   r="2"
   id="circle28129" />
	<circle
   class="st0"
   cx="412"
   cy="52"
   r="2"
   id="circle28131" />
	<circle
   class="st0"
   cx="419"
   cy="52"
   r="2"
   id="circle28133" />
	<circle
   class="st0"
   cx="426"
   cy="52"
   r="2"
   id="circle28135" />
	<circle
   class="st0"
   cx="433"
   cy="52"
   r="2"
   id="circle28137" />
	<circle
   class="st0"
   cx="440"
   cy="52"
   r="2"
   id="circle28139" />
	<circle
   class="st0"
   cx="447"
   cy="52"
   r="2"
   id="circle28141" />
	<circle
   class="st0"
   cx="356"
   cy="60"
   r="2"
   id="circle28143" />
	<circle
   class="st0"
   cx="363"
   cy="60"
   r="2"
   id="circle28145" />
	<circle
   class="st0"
   cx="370"
   cy="60"
   r="2"
   id="circle28147" />
	<circle
   class="st0"
   cx="377"
   cy="60"
   r="2"
   id="circle28149" />
	<circle
   class="st0"
   cx="384"
   cy="60"
   r="2"
   id="circle28151" />
	<circle
   class="st0"
   cx="391"
   cy="60"
   r="2"
   id="circle28153" />
	<circle
   class="st0"
   cx="398"
   cy="60"
   r="2"
   id="circle28155" />
	<circle
   class="st0"
   cx="405"
   cy="60"
   r="2"
   id="circle28157" />
	<circle
   class="st0"
   cx="412"
   cy="60"
   r="2"
   id="circle28159" />
	<circle
   class="st0"
   cx="419"
   cy="60"
   r="2"
   id="circle28161" />
	<circle
   class="st0"
   cx="426"
   cy="60"
   r="2"
   id="circle28163" />
	<circle
   class="st0"
   cx="433"
   cy="60"
   r="2"
   id="circle28165" />
	<circle
   class="st0"
   cx="440"
   cy="60"
   r="2"
   id="circle28167" />
	<circle
   class="st0"
   cx="447"
   cy="60"
   r="2"
   id="circle28169" />
	<circle
   class="st0"
   cx="356"
   cy="68"
   r="2"
   id="circle28171" />
	<circle
   class="st0"
   cx="363"
   cy="68"
   r="2"
   id="circle28173" />
	<circle
   class="st0"
   cx="370"
   cy="68"
   r="2"
   id="circle28175" />
	<circle
   class="st0"
   cx="377"
   cy="68"
   r="2"
   id="circle28177" />
	<circle
   class="st0"
   cx="384"
   cy="68"
   r="2"
   id="circle28179" />
	<circle
   class="st0"
   cx="391"
   cy="68"
   r="2"
   id="circle28181" />
	<circle
   class="st0"
   cx="398"
   cy="68"
   r="2"
   id="circle28183" />
	<circle
   class="st0"
   cx="405"
   cy="68"
   r="2"
   id="circle28185" />
	<circle
   class="st0"
   cx="412"
   cy="68"
   r="2"
   id="circle28187" />
	<circle
   class="st0"
   cx="419"
   cy="68"
   r="2"
   id="circle28189" />
	<circle
   class="st0"
   cx="426"
   cy="68"
   r="2"
   id="circle28191" />
	<circle
   class="st0"
   cx="433"
   cy="68"
   r="2"
   id="circle28193" />
	<circle
   class="st0"
   cx="440"
   cy="68"
   r="2"
   id="circle28195" />
	<circle
   class="st0"
   cx="447"
   cy="68"
   r="2"
   id="circle28197" />
	<circle
   class="st0"
   cx="356"
   cy="76"
   r="2"
   id="circle28199" />
	<circle
   class="st0"
   cx="363"
   cy="76"
   r="2"
   id="circle28201" />
	<circle
   class="st0"
   cx="370"
   cy="76"
   r="2"
   id="circle28203" />
	<circle
   class="st0"
   cx="377"
   cy="76"
   r="2"
   id="circle28205" />
	<circle
   class="st0"
   cx="384"
   cy="76"
   r="2"
   id="circle28207" />
	<circle
   class="st0"
   cx="391"
   cy="76"
   r="2"
   id="circle28209" />
	<circle
   class="st0"
   cx="398"
   cy="76"
   r="2"
   id="circle28211" />
	<circle
   class="st0"
   cx="405"
   cy="76"
   r="2"
   id="circle28213" />
	<circle
   class="st0"
   cx="412"
   cy="76"
   r="2"
   id="circle28215" />
	<circle
   class="st0"
   cx="419"
   cy="76"
   r="2"
   id="circle28217" />
	<circle
   class="st0"
   cx="426"
   cy="76"
   r="2"
   id="circle28219" />
	<circle
   class="st0"
   cx="433"
   cy="76"
   r="2"
   id="circle28221" />
	<circle
   class="st0"
   cx="440"
   cy="76"
   r="2"
   id="circle28223" />
	<circle
   class="st0"
   cx="447"
   cy="76"
   r="2"
   id="circle28225" />
	<circle
   class="st0"
   cx="356"
   cy="84"
   r="2"
   id="circle28227" />
	<circle
   class="st0"
   cx="363"
   cy="84"
   r="2"
   id="circle28229" />
	<circle
   class="st0"
   cx="370"
   cy="84"
   r="2"
   id="circle28231" />
	<circle
   class="st0"
   cx="377"
   cy="84"
   r="2"
   id="circle28233" />
	<circle
   class="st0"
   cx="384"
   cy="84"
   r="2"
   id="circle28235" />
	<circle
   class="st0"
   cx="391"
   cy="84"
   r="2"
   id="circle28237" />
	<circle
   class="st0"
   cx="398"
   cy="84"
   r="2"
   id="circle28239" />
	<circle
   class="st0"
   cx="405"
   cy="84"
   r="2"
   id="circle28241" />
	<circle
   class="st0"
   cx="412"
   cy="84"
   r="2"
   id="circle28243" />
	<circle
   class="st0"
   cx="419"
   cy="84"
   r="2"
   id="circle28245" />
	<circle
   class="st0"
   cx="426"
   cy="84"
   r="2"
   id="circle28247" />
	<circle
   class="st0"
   cx="433"
   cy="84"
   r="2"
   id="circle28249" />
	<circle
   class="st0"
   cx="440"
   cy="84"
   r="2"
   id="circle28251" />
	<circle
   class="st0"
   cx="447"
   cy="84"
   r="2"
   id="circle28253" />
	<circle
   class="st0"
   cx="356"
   cy="92"
   r="2"
   id="circle28255" />
	<circle
   class="st0"
   cx="363"
   cy="92"
   r="2"
   id="circle28257" />
	<circle
   class="st0"
   cx="370"
   cy="92"
   r="2"
   id="circle28259" />
	<circle
   class="st0"
   cx="377"
   cy="92"
   r="2"
   id="circle28261" />
	<circle
   class="st0"
   cx="384"
   cy="92"
   r="2"
   id="circle28263" />
	<circle
   class="st0"
   cx="391"
   cy="92"
   r="2"
   id="circle28265" />
	<circle
   class="st0"
   cx="398"
   cy="92"
   r="2"
   id="circle28267" />
	<circle
   class="st0"
   cx="405"
   cy="92"
   r="2"
   id="circle28269" />
	<circle
   class="st0"
   cx="412"
   cy="92"
   r="2"
   id="circle28271" />
	<circle
   class="st0"
   cx="419"
   cy="92"
   r="2"
   id="circle28273" />
	<circle
   class="st0"
   cx="426"
   cy="92"
   r="2"
   id="circle28275" />
	<circle
   class="st0"
   cx="433"
   cy="92"
   r="2"
   id="circle28277" />
	<circle
   class="st0"
   cx="440"
   cy="92"
   r="2"
   id="circle28279" />
	<circle
   class="st0"
   cx="447"
   cy="92"
   r="2"
   id="circle28281" />
	<circle
   class="st0"
   cx="356"
   cy="100"
   r="2"
   id="circle28283" />
	<circle
   class="st0"
   cx="363"
   cy="100"
   r="2"
   id="circle28285" />
	<circle
   class="st0"
   cx="370"
   cy="100"
   r="2"
   id="circle28287" />
	<circle
   class="st0"
   cx="377"
   cy="100"
   r="2"
   id="circle28289" />
	<circle
   class="st0"
   cx="384"
   cy="100"
   r="2"
   id="circle28291" />
	<circle
   class="st0"
   cx="391"
   cy="100"
   r="2"
   id="circle28293" />
	<circle
   class="st0"
   cx="398"
   cy="100"
   r="2"
   id="circle28295" />
	<circle
   class="st0"
   cx="405"
   cy="100"
   r="2"
   id="circle28297" />
	<circle
   class="st0"
   cx="412"
   cy="100"
   r="2"
   id="circle28299" />
	<circle
   class="st0"
   cx="419"
   cy="100"
   r="2"
   id="circle28301" />
	<circle
   class="st0"
   cx="426"
   cy="100"
   r="2"
   id="circle28303" />
	<circle
   class="st0"
   cx="433"
   cy="100"
   r="2"
   id="circle28305" />
	<circle
   class="st0"
   cx="440"
   cy="100"
   r="2"
   id="circle28307" />
	<circle
   class="st0"
   cx="447"
   cy="100"
   r="2"
   id="circle28309" />
	<circle
   class="st0"
   cx="356"
   cy="108"
   r="2"
   id="circle28311" />
	<circle
   class="st0"
   cx="363"
   cy="108"
   r="2"
   id="circle28313" />
	<circle
   class="st0"
   cx="370"
   cy="108"
   r="2"
   id="circle28315" />
	<circle
   class="st0"
   cx="377"
   cy="108"
   r="2"
   id="circle28317" />
	<circle
   class="st0"
   cx="384"
   cy="108"
   r="2"
   id="circle28319" />
	<circle
   class="st0"
   cx="391"
   cy="108"
   r="2"
   id="circle28321" />
	<circle
   class="st0"
   cx="398"
   cy="108"
   r="2"
   id="circle28323" />
	<circle
   class="st0"
   cx="405"
   cy="108"
   r="2"
   id="circle28325" />
	<circle
   class="st0"
   cx="412"
   cy="108"
   r="2"
   id="circle28327" />
	<circle
   class="st0"
   cx="419"
   cy="108"
   r="2"
   id="circle28329" />
	<circle
   class="st0"
   cx="426"
   cy="108"
   r="2"
   id="circle28331" />
	<circle
   class="st0"
   cx="433"
   cy="108"
   r="2"
   id="circle28333" />
	<circle
   class="st0"
   cx="440"
   cy="108"
   r="2"
   id="circle28335" />
	<circle
   class="st0"
   cx="447"
   cy="108"
   r="2"
   id="circle28337" />
	<circle
   class="st0"
   cx="356"
   cy="116"
   r="2"
   id="circle28339" />
	<circle
   class="st0"
   cx="363"
   cy="116"
   r="2"
   id="circle28341" />
	<circle
   class="st0"
   cx="370"
   cy="116"
   r="2"
   id="circle28343" />
	<circle
   class="st0"
   cx="377"
   cy="116"
   r="2"
   id="circle28345" />
	<circle
   class="st0"
   cx="384"
   cy="116"
   r="2"
   id="circle28347" />
	<circle
   class="st0"
   cx="391"
   cy="116"
   r="2"
   id="circle28349" />
	<circle
   class="st0"
   cx="398"
   cy="116"
   r="2"
   id="circle28351" />
	<circle
   class="st0"
   cx="405"
   cy="116"
   r="2"
   id="circle28353" />
	<circle
   class="st0"
   cx="412"
   cy="116"
   r="2"
   id="circle28355" />
	<circle
   class="st0"
   cx="419"
   cy="116"
   r="2"
   id="circle28357" />
	<circle
   class="st0"
   cx="426"
   cy="116"
   r="2"
   id="circle28359" />
	<circle
   class="st0"
   cx="433"
   cy="116"
   r="2"
   id="circle28361" />
	<circle
   class="st0"
   cx="440"
   cy="116"
   r="2"
   id="circle28363" />
	<circle
   class="st0"
   cx="447"
   cy="116"
   r="2"
   id="circle28365" />
	<circle
   class="st0"
   cx="356"
   cy="124"
   r="2"
   id="circle28367" />
	<circle
   class="st0"
   cx="363"
   cy="124"
   r="2"
   id="circle28369" />
	<circle
   class="st0"
   cx="370"
   cy="124"
   r="2"
   id="circle28371" />
	<circle
   class="st0"
   cx="377"
   cy="124"
   r="2"
   id="circle28373" />
	<circle
   class="st0"
   cx="384"
   cy="124"
   r="2"
   id="circle28375" />
	<circle
   class="st0"
   cx="391"
   cy="124"
   r="2"
   id="circle28377" />
	<circle
   class="st0"
   cx="398"
   cy="124"
   r="2"
   id="circle28379" />
	<circle
   class="st0"
   cx="405"
   cy="124"
   r="2"
   id="circle28381" />
	<circle
   class="st0"
   cx="412"
   cy="124"
   r="2"
   id="circle28383" />
	<circle
   class="st0"
   cx="419"
   cy="124"
   r="2"
   id="circle28385" />
	<circle
   class="st0"
   cx="426"
   cy="124"
   r="2"
   id="circle28387" />
	<circle
   class="st0"
   cx="433"
   cy="124"
   r="2"
   id="circle28389" />
	<circle
   class="st0"
   cx="440"
   cy="124"
   r="2"
   id="circle28391" />
	<circle
   class="st0"
   cx="447"
   cy="124"
   r="2"
   id="circle28393" />
	<circle
   class="st0"
   cx="356"
   cy="132"
   r="2"
   id="circle28395" />
	<circle
   class="st0"
   cx="363"
   cy="132"
   r="2"
   id="circle28397" />
	<circle
   class="st0"
   cx="370"
   cy="132"
   r="2"
   id="circle28399" />
	<circle
   class="st0"
   cx="377"
   cy="132"
   r="2"
   id="circle28401" />
	<circle
   class="st0"
   cx="384"
   cy="132"
   r="2"
   id="circle28403" />
	<circle
   class="st0"
   cx="391"
   cy="132"
   r="2"
   id="circle28405" />
	<circle
   class="st0"
   cx="398"
   cy="132"
   r="2"
   id="circle28407" />
	<circle
   class="st0"
   cx="405"
   cy="132"
   r="2"
   id="circle28409" />
	<circle
   class="st0"
   cx="412"
   cy="132"
   r="2"
   id="circle28411" />
	<circle
   class="st0"
   cx="419"
   cy="132"
   r="2"
   id="circle28413" />
	<circle
   class="st0"
   cx="426"
   cy="132"
   r="2"
   id="circle28415" />
	<circle
   class="st0"
   cx="433"
   cy="132"
   r="2"
   id="circle28417" />
	<circle
   class="st0"
   cx="440"
   cy="132"
   r="2"
   id="circle28419" />
	<circle
   class="st0"
   cx="447"
   cy="132"
   r="2"
   id="circle28421" />
	<circle
   class="st0"
   cx="356"
   cy="140"
   r="2"
   id="circle28423" />
	<circle
   class="st0"
   cx="363"
   cy="140"
   r="2"
   id="circle28425" />
	<circle
   class="st0"
   cx="370"
   cy="140"
   r="2"
   id="circle28427" />
	<circle
   class="st0"
   cx="377"
   cy="140"
   r="2"
   id="circle28429" />
	<circle
   class="st0"
   cx="384"
   cy="140"
   r="2"
   id="circle28431" />
	<circle
   class="st0"
   cx="391"
   cy="140"
   r="2"
   id="circle28433" />
	<circle
   class="st0"
   cx="398"
   cy="140"
   r="2"
   id="circle28435" />
	<circle
   class="st0"
   cx="405"
   cy="140"
   r="2"
   id="circle28437" />
	<circle
   class="st0"
   cx="412"
   cy="140"
   r="2"
   id="circle28439" />
	<circle
   class="st0"
   cx="419"
   cy="140"
   r="2"
   id="circle28441" />
	<circle
   class="st0"
   cx="426"
   cy="140"
   r="2"
   id="circle28443" />
	<circle
   class="st0"
   cx="433"
   cy="140"
   r="2"
   id="circle28445" />
	<circle
   class="st0"
   cx="440"
   cy="140"
   r="2"
   id="circle28447" />
	<circle
   class="st0"
   cx="447"
   cy="140"
   r="2"
   id="circle28449" />
	<circle
   class="st0"
   cx="356"
   cy="148"
   r="2"
   id="circle28451" />
	<circle
   class="st0"
   cx="363"
   cy="148"
   r="2"
   id="circle28453" />
	<circle
   class="st0"
   cx="370"
   cy="148"
   r="2"
   id="circle28455" />
	<circle
   class="st0"
   cx="377"
   cy="148"
   r="2"
   id="circle28457" />
	<circle
   class="st0"
   cx="384"
   cy="148"
   r="2"
   id="circle28459" />
	<circle
   class="st0"
   cx="391"
   cy="148"
   r="2"
   id="circle28461" />
	<circle
   class="st0"
   cx="398"
   cy="148"
   r="2"
   id="circle28463" />
	<circle
   class="st0"
   cx="405"
   cy="148"
   r="2"
   id="circle28465" />
	<circle
   class="st0"
   cx="412"
   cy="148"
   r="2"
   id="circle28467" />
	<circle
   class="st0"
   cx="419"
   cy="148"
   r="2"
   id="circle28469" />
	<circle
   class="st0"
   cx="426"
   cy="148"
   r="2"
   id="circle28471" />
	<circle
   class="st0"
   cx="433"
   cy="148"
   r="2"
   id="circle28473" />
	<circle
   class="st0"
   cx="440"
   cy="148"
   r="2"
   id="circle28475" />
	<circle
   class="st0"
   cx="447"
   cy="148"
   r="2"
   id="circle28477" />
	<circle
   class="st0"
   cx="356"
   cy="156"
   r="2"
   id="circle28479" />
	<circle
   class="st0"
   cx="363"
   cy="156"
   r="2"
   id="circle28481" />
	<circle
   class="st0"
   cx="370"
   cy="156"
   r="2"
   id="circle28483" />
	<circle
   class="st0"
   cx="377"
   cy="156"
   r="2"
   id="circle28485" />
	<circle
   class="st0"
   cx="384"
   cy="156"
   r="2"
   id="circle28487" />
	<circle
   class="st0"
   cx="391"
   cy="156"
   r="2"
   id="circle28489" />
	<circle
   class="st0"
   cx="398"
   cy="156"
   r="2"
   id="circle28491" />
	<circle
   class="st0"
   cx="405"
   cy="156"
   r="2"
   id="circle28493" />
	<circle
   class="st0"
   cx="412"
   cy="156"
   r="2"
   id="circle28495" />
	<circle
   class="st0"
   cx="419"
   cy="156"
   r="2"
   id="circle28497" />
	<circle
   class="st0"
   cx="426"
   cy="156"
   r="2"
   id="circle28499" />
	<circle
   class="st0"
   cx="433"
   cy="156"
   r="2"
   id="circle28501" />
	<circle
   class="st0"
   cx="440"
   cy="156"
   r="2"
   id="circle28503" />
	<circle
   class="st0"
   cx="447"
   cy="156"
   r="2"
   id="circle28505" />
</g>
<g
   id="g28995">
	<g
   id="g28519">
		
			<image
   style="overflow:visible;opacity:0.12;"
   width="382"
   height="412"
   xlink:href="B057E2DE.png"
   transform="matrix(1 0 0 1 61 51)"
   id="image28509">
		</image>
		<g
   id="g28517">
			<path
   class="st1"
   d="M97.7,431.5c-7.6,0-13.7-6.2-13.7-13.7V82.2c0-7.6,6.2-13.7,13.7-13.7h304.5c7.6,0,13.7,6.2,13.7,13.7v335.5     c0,7.6-6.2,13.7-13.7,13.7H97.7z"
   id="path28511" />
			<g
   id="g28515">
				<path
   class="st2"
   d="M402.3,69c7.3,0,13.2,5.9,13.2,13.2v335.5c0,7.3-5.9,13.2-13.2,13.2H97.7c-7.3,0-13.2-5.9-13.2-13.2V82.2      c0-7.3,5.9-13.2,13.2-13.2H402.3 M402.3,68H97.7c-7.9,0-14.2,6.4-14.2,14.2v335.5c0,7.9,6.4,14.2,14.2,14.2h304.5      c7.9,0,14.2-6.4,14.2-14.2V82.2C416.5,74.4,410.1,68,402.3,68L402.3,68z"
   id="path28513" />
			</g>
		</g>
	</g><text
   xml:space="preserve"
   style="font-style:normal;font-variant:normal;font-weight:normal;font-stretch:normal;font-size:10.6667px;line-height:1.25;font-family:sans-serif;-inkscape-font-specification:'sans-serif, Normal';font-variant-ligatures:normal;font-variant-caps:normal;font-variant-numeric:normal;font-variant-east-asian:normal;fill:#000000;fill-opacity:1;stroke:none"
   x="176.12891"
   y="254.97917"
   id="text35305-9"><tspan
     sodipodi:role="line"
     id="tspan47482">Gave you a score on Nodejs</tspan></text>
	
	<g
   id="g28609">
		<g
   id="g28539">
			<g
   id="g28533">
				<path
   class="st3"
   d="M151.9,128.4c0,1.5-1,2.7-2.2,2.7c-1.2,0-2.2-1.2-2.2-2.7c0-1.5,1-2.2,2.2-2.2      C150.9,126.2,151.9,126.9,151.9,128.4z"
   id="path28531" />
			</g>
			<g
   id="g28537">
				<path
   class="st4"
   d="M149.7,131.5c-1.4,0-2.5-1.4-2.5-3.1c0-1.6,1-2.6,2.5-2.6s2.5,1,2.5,2.6      C152.2,130.1,151.1,131.5,149.7,131.5z M149.7,126.6c-1.1,0-1.8,0.7-1.8,1.9c0,1.3,0.8,2.4,1.8,2.4s1.8-1.1,1.8-2.4      C151.5,127.3,150.9,126.6,149.7,126.6z"
   id="path28535" />
			</g>
		</g>
		<g
   id="g28549">
			<g
   id="g28543">
				<path
   class="st3"
   d="M127.4,128.4c0,1.5-1,2.7-2.2,2.7c-1.2,0-2.2-1.2-2.2-2.7c0-1.5,1-2.2,2.2-2.2      C126.4,126.2,127.4,126.9,127.4,128.4z"
   id="path28541" />
			</g>
			<g
   id="g28547">
				<path
   class="st4"
   d="M125.2,131.5c-1.4,0-2.5-1.4-2.5-3.1c0-1.6,1-2.6,2.5-2.6s2.5,1,2.5,2.6      C127.7,130.1,126.6,131.5,125.2,131.5z M125.2,126.6c-1.1,0-1.8,0.7-1.8,1.9c0,1.3,0.8,2.4,1.8,2.4c1,0,1.8-1.1,1.8-2.4      C127,127.3,126.4,126.6,125.2,126.6z"
   id="path28545" />
			</g>
		</g>
		<g
   id="g28553">
			<path
   class="st5"
   d="M149.8,124.1c0,14.6-5.1,20.9-12.3,20.9s-12.5-5.8-12.5-20.9c0-9,5.3-10.9,12.5-10.9     S149.8,115.1,149.8,124.1z"
   id="path28551" />
		</g>
		<g
   id="g28557">
			<path
   class="st4"
   d="M137.5,145.3c-4,0-7.1-1.7-9.3-5c-2.4-3.6-3.6-9.1-3.6-16.3c0-9.9,6.5-11.3,12.9-11.3     c6.6,0,12.7,1.4,12.7,11.3C150.1,137.8,145.6,145.3,137.5,145.3z M137.5,113.5c-4.1,0-6.9,0.6-8.8,2c-2.3,1.6-3.4,4.5-3.4,8.6     c0,17,6.6,20.5,12.2,20.5c7.7,0,12-7.3,12-20.5C149.4,115.3,144.7,113.5,137.5,113.5z"
   id="path28555" />
		</g>
		<g
   id="g28561">
			<path
   class="st6"
   d="M137.2,131.3c4.9,0,6,3,8.2,3s3.8-3.2,3.8-3.2s1.4,16.7-11.6,16.7c-13.1,0-12.1-16.5-12.1-16.5s0.6,3,3.4,3     C131.7,134.4,132,131.3,137.2,131.3z"
   id="path28559" />
		</g>
		<g
   id="g28565">
			<path
   class="st4"
   d="M137.6,148.1c-3.4,0-6.3-1.1-8.3-3.3c-2.4-2.5-3.4-6.1-3.8-8.6c-0.4-2.7-0.3-4.8-0.3-4.9     c0-0.2,0.1-0.3,0.3-0.3c0.2,0,0.3,0.1,0.4,0.3c0,0.1,0.6,2.8,3.1,2.8c1.1,0,1.7-0.5,2.5-1.1c1.2-0.9,2.6-1.9,5.7-1.9     c3,0,4.6,1.1,5.9,2c0.8,0.6,1.5,1,2.3,1c2,0,3.5-3,3.5-3.1c0.1-0.1,0.2-0.2,0.4-0.2c0.2,0,0.3,0.2,0.3,0.3c0,0.1,0.2,2.2-0.2,5     c-0.3,2.6-1.2,6.2-3.6,8.7C143.8,147,141,148.1,137.6,148.1z M125.9,133c0.1,2.7,0.8,8,3.9,11.3c2,2.1,4.6,3.1,7.8,3.1     c3.2,0,5.8-1,7.7-3.1c3.3-3.6,3.7-9.6,3.6-12c-0.7,1-1.9,2.4-3.5,2.4c-1,0-1.8-0.5-2.7-1.2c-1.2-0.8-2.7-1.9-5.5-1.9     c-2.9,0-4.2,1-5.3,1.8c-0.9,0.6-1.7,1.2-2.9,1.2C127.4,134.7,126.4,133.8,125.9,133z"
   id="path28563" />
		</g>
		<g
   id="g28575">
			<g
   id="g28569">
				<path
   class="st3"
   d="M141.8,136.9c-0.5,1.6-2.3,1.6-4.3,1.6s-4.3,0.2-4.7-1.4c-0.5-1.8,2.8-2,4.7-2S142.3,135.2,141.8,136.9z"
   id="path28567" />
			</g>
			<g
   id="g28573">
				<path
   class="st4"
   d="M136.3,138.8c-1.6,0-3.4-0.1-3.9-1.7c-0.1-0.5-0.1-0.9,0.2-1.3c0.6-0.8,2.2-1.2,4.9-1.2      c1.8,0,3.8,0.1,4.5,1.1c0.2,0.2,0.4,0.7,0.2,1.3c-0.6,1.8-2.6,1.8-4.5,1.8h-0.1c-0.2,0-0.4,0-0.6,0      C136.7,138.8,136.5,138.8,136.3,138.8z M137.5,135.4c-3,0-4,0.5-4.3,0.9c-0.1,0.2-0.2,0.4-0.1,0.7c0.3,1,1.4,1.2,3.2,1.2      c0.2,0,0.4,0,0.6,0c0.2,0,0.4,0,0.6,0h0.1c2.1,0,3.4-0.1,3.8-1.3c0.1-0.4,0-0.5-0.1-0.6C140.8,135.4,138.3,135.4,137.5,135.4z"
   id="path28571" />
			</g>
		</g>
		<g
   id="g28579">
			<path
   class="st4"
   d="M129.7,127.4c-0.1,0-0.2,0-0.3-0.1c-0.1-0.1-0.1-0.4,0-0.5c0.5-0.5,1.2-0.7,1.9-0.6c0.5,0.1,1,0.3,1.3,0.7     c0.1,0.2,0.1,0.4-0.1,0.5c-0.2,0.1-0.4,0.1-0.5-0.1c-0.2-0.2-0.4-0.3-0.8-0.4c-0.5,0-1,0.1-1.3,0.5     C129.9,127.4,129.8,127.4,129.7,127.4z"
   id="path28577" />
		</g>
		<g
   id="g28583">
			<path
   class="st4"
   d="M145,127.4c-0.1,0-0.2,0-0.2-0.1c-0.4-0.3-0.9-0.5-1.4-0.5c-0.4,0-0.8,0.2-1,0.4c-0.1,0.1-0.3,0.2-0.5,0     c-0.1-0.1-0.2-0.3,0-0.5c0.3-0.4,0.9-0.6,1.5-0.6c0.7,0,1.4,0.2,1.9,0.6c0.1,0.1,0.2,0.3,0,0.5     C145.2,127.4,145.1,127.4,145,127.4z"
   id="path28581" />
		</g>
		<g
   id="g28587">
			<path
   class="st6"
   d="M134.1,106.2c4.6-1.2,9.4,1.9,11.7,4.8c1.9,2.4,4.1,1.7,5.8,4.3c1.7,2.6,0.6,7.5-0.7,9.5     c-1.2,2.1-1.2,2.1-1.2,2.1s-1.6-6.4-4.1-7.5c-2.5-1.1-2.4,1.5-7.9,1.1c-5.5-0.4-7.3-3.7-8.7-3.2c-1.3,0.4-1.1,2.8-2.3,5.2     c-1.1,2.4-1.8,4.4-1.8,4.4s-3.7-7-2.2-10.9c1.1-3,3.3-1.9,4.8-3.9C129.1,110.1,130.9,107.1,134.1,106.2z"
   id="path28585" />
		</g>
		<g
   id="g28591">
			<path
   class="st4"
   d="M125,127.2c-0.1,0-0.2-0.1-0.3-0.2c-0.2-0.3-3.7-7.2-2.2-11.2c0.7-1.9,1.8-2.3,2.9-2.7     c0.7-0.3,1.4-0.5,2-1.3c0.2-0.3,0.4-0.6,0.7-0.9c1.4-1.9,3.2-4.3,6.1-5.1c0.7-0.2,1.5-0.3,2.2-0.3c4,0,7.8,2.6,9.8,5.2     c0.8,1.1,1.7,1.5,2.7,1.9c1.1,0.5,2.2,1,3.1,2.4c1.8,2.8,0.6,7.9-0.6,9.9l-1.2,2.1c-0.1,0.1-0.2,0.2-0.3,0.2     c-0.1,0-0.3-0.1-0.3-0.3c-0.4-1.7-2-6.4-3.9-7.2c-0.4-0.2-0.7-0.2-1-0.2c-0.4,0-0.8,0.2-1.3,0.4c-0.9,0.4-2,1-4.3,1     c-0.4,0-0.8,0-1.2-0.1c-3.4-0.3-5.5-1.6-6.9-2.5c-0.8-0.5-1.3-0.9-1.7-0.7c-0.6,0.2-0.8,1.1-1.1,2.2c-0.2,0.8-0.5,1.8-0.9,2.8     c-1.1,2.3-1.8,4.4-1.8,4.4C125.3,127.1,125.2,127.2,125,127.2C125,127.2,125,127.2,125,127.2z M144.5,118.8     c0.4,0,0.8,0.1,1.2,0.3c2.1,0.9,3.5,5.1,4.1,6.9l0.8-1.4c1.1-1.9,2.3-6.6,0.7-9.2c-0.8-1.3-1.8-1.7-2.8-2.2c-1-0.5-2-0.9-2.9-2.1     c-1.9-2.4-5.5-4.9-9.3-4.9c-0.7,0-1.4,0.1-2,0.3c-2.6,0.7-4.3,3-5.7,4.8c-0.2,0.3-0.5,0.6-0.7,0.9c-0.7,0.9-1.5,1.2-2.3,1.5     c-1,0.4-1.9,0.7-2.5,2.3c-1.1,3,0.9,8,1.8,9.9c0.3-0.8,0.8-2.2,1.5-3.7c0.4-0.9,0.7-1.8,0.9-2.7c0.3-1.3,0.6-2.4,1.6-2.7     c0.1,0,0.2-0.1,0.4-0.1c0.6,0,1.1,0.4,1.9,0.9c1.3,0.9,3.3,2.1,6.5,2.4c0.4,0,0.8,0,1.2,0c2.1,0,3.1-0.5,4-0.9     C143.4,119,143.9,118.8,144.5,118.8z"
   id="path28589" />
		</g>
		<g
   id="g28595">
			<path
   class="st4"
   d="M137.3,132.2c-0.1,0-0.3,0-0.4,0c-0.9-0.1-1.3-0.8-1.3-0.8c-0.1-0.2,0-0.4,0.1-0.5c0.2-0.1,0.4,0,0.5,0.1     c0,0,0.2,0.4,0.8,0.5c0.6,0.1,1,0,1.2-0.3c0.1-0.2,0.1-0.4,0-0.7c-0.5-0.8-1.3-3.4-1.1-4.3c0.1-0.2,0.2-0.3,0.4-0.2     c0.2,0.1,0.3,0.2,0.2,0.4c-0.2,0.6,0.5,2.9,1,3.7c0.3,0.5,0.3,1,0,1.4C138.4,132,137.9,132.2,137.3,132.2z"
   id="path28593" />
		</g>
		<g
   id="g28599">
			<path
   class="st4"
   d="M137.3,137.5c-1,0-1.8-0.3-2.2-0.9c-0.1-0.2-0.1-0.4,0.1-0.5c0.2-0.1,0.4-0.1,0.5,0.1     c0.3,0.4,0.9,0.6,1.6,0.6c0,0,0,0,0,0c0.8,0,1.7-0.3,1.9-0.7c0.1-0.2,0.3-0.2,0.5-0.1c0.2,0.1,0.2,0.3,0.1,0.5     C139.3,137.2,138.2,137.5,137.3,137.5C137.3,137.5,137.3,137.5,137.3,137.5z"
   id="path28597" />
		</g>
		<g
   id="g28603">
			<path
   class="st4"
   d="M130.1,114.7c0,0,0.1,0,0.2,0.1c0.1,0,0.1,0.1,0.2,0.2c0.1,0.1,0.2,0.1,0.3,0.2c0.1,0.1,0.2,0.2,0.3,0.2     c0.1,0.1,0.2,0.2,0.4,0.2c0.1,0.1,0.3,0.2,0.4,0.3c0.1,0.1,0.3,0.2,0.4,0.3c0.1,0.1,0.3,0.2,0.4,0.3c0.1,0.1,0.3,0.2,0.4,0.2     c0.1,0,0.1,0.1,0.2,0.1c0.1,0,0.1,0.1,0.2,0.1c0.1,0.1,0.2,0.1,0.4,0.2c0.1,0.1,0.2,0.1,0.3,0.2c0.1,0,0.2,0.1,0.2,0.1     c0.1,0.1,0.2,0.1,0.2,0.1s-0.1,0-0.2,0c-0.1,0-0.2,0-0.3,0c-0.1,0-0.2,0-0.4,0c-0.1,0-0.3-0.1-0.4-0.1c-0.1,0-0.1,0-0.2-0.1     c-0.1,0-0.1-0.1-0.2-0.1c-0.2-0.1-0.3-0.1-0.5-0.2c-0.2-0.1-0.3-0.2-0.5-0.3c-0.2-0.1-0.3-0.2-0.4-0.3c-0.1-0.1-0.3-0.2-0.4-0.3     c-0.1-0.1-0.2-0.2-0.3-0.3c-0.1-0.1-0.2-0.2-0.3-0.3c-0.1-0.1-0.2-0.2-0.2-0.3c-0.1-0.1-0.1-0.2-0.1-0.2     C130.1,114.7,130.1,114.7,130.1,114.7z"
   id="path28601" />
		</g>
		<g
   id="g28607">
			<path
   class="st4"
   d="M147.9,119.6c0,0,0,0-0.1-0.1c0,0-0.1-0.1-0.1-0.2c0-0.1-0.1-0.1-0.1-0.2c0-0.1-0.1-0.1-0.1-0.2     c0-0.1-0.1-0.2-0.2-0.3c-0.1-0.1-0.1-0.2-0.2-0.3c-0.1-0.1-0.1-0.2-0.2-0.3c-0.1-0.1-0.1-0.2-0.2-0.3c0-0.1-0.1-0.2-0.2-0.3     c-0.1-0.1-0.1-0.2-0.1-0.3c0-0.1-0.1-0.2-0.1-0.2c0-0.1-0.1-0.1-0.1-0.2c0-0.1-0.1-0.1-0.1-0.2c-0.1-0.1-0.1-0.2-0.1-0.2     s0.1,0,0.2,0c0.1,0,0.1,0,0.2,0.1c0,0,0.1,0,0.1,0c0,0,0.1,0,0.1,0.1c0.1,0,0.2,0.1,0.2,0.2c0.1,0.1,0.2,0.1,0.2,0.2     c0.1,0.1,0.2,0.2,0.2,0.3c0.1,0.1,0.1,0.2,0.2,0.3c0.1,0.2,0.2,0.4,0.3,0.6c0,0.1,0.1,0.2,0.1,0.3c0,0.1,0,0.2,0,0.3     c0,0.2,0,0.3,0,0.4C147.9,119.5,147.9,119.6,147.9,119.6z"
   id="path28605" />
		</g>
	</g>
	<g
   id="g28633">
		<path
   d="M187.1,123.5H185v-4.6h-5.6v4.6h-2.1v-11.3h2.1v4.8h5.6v-4.8h2.1V123.5z"
   id="path28611" />
		<path
   d="M196.9,120.2h-6.2c0.1,0.5,0.3,0.9,0.7,1.2c0.4,0.3,1,0.5,1.6,0.5c0.4,0,0.8-0.1,1.2-0.2c0.4-0.1,0.7-0.3,0.9-0.5l1.3,1.2    c-0.4,0.4-0.9,0.7-1.5,1c-0.6,0.2-1.3,0.3-1.9,0.3c-1.4,0-2.4-0.4-3.2-1.2c-0.8-0.8-1.2-1.8-1.2-3.1c0-1.2,0.4-2.2,1.2-3    c0.8-0.8,1.8-1.2,3.1-1.2c1.4,0,2.4,0.4,3.1,1.3S197,118.6,196.9,120.2z M190.7,118.6h4.3c-0.1-0.5-0.3-0.9-0.6-1.2    c-0.4-0.3-0.8-0.4-1.4-0.4c-0.5,0-1,0.1-1.4,0.4C191.1,117.7,190.8,118.1,190.7,118.6z"
   id="path28613" />
		<path
   d="M206.2,123.5h-2v-4.2c0-0.6-0.2-1.1-0.5-1.5s-0.8-0.6-1.4-0.6c-0.6,0-1.1,0.2-1.5,0.6c-0.4,0.4-0.6,1-0.6,1.6v4.1h-2v-8    h1.8l0.1,1.1c0.8-0.8,1.7-1.2,2.6-1.2c1,0,1.8,0.3,2.4,1s1,1.6,1,2.9V123.5z"
   id="path28615" />
		<path
   d="M207.9,115.5h1.8l0.1,0.9c0.3-0.5,0.6-0.8,1-0.9c0.4-0.2,0.8-0.2,1.3-0.2c0.9,0,1.5,0.3,2,0.8l-0.9,1.7    c-0.4-0.3-0.9-0.5-1.4-0.5c-0.6,0-1,0.2-1.4,0.5c-0.4,0.3-0.6,0.8-0.6,1.5v4.2h-2V115.5z"
   id="path28617" />
		<path
   d="M221.3,115.5h2.2l-4.9,11.3h-2.2l1.5-3.5l-3.2-7.8h2.3l1.2,3.4l0.8,2.2l0.8-2.2L221.3,115.5z"
   id="path28619" />
		<path
   d="M237.9,123.3v0.1h-2.5l-3.3-3.8h-2v3.8h-2.1v-11.3c0.6,0,1.5,0,2.7,0s2.1,0,2.7,0c1.3,0,2.3,0.4,3,1.1    c0.7,0.7,1.1,1.6,1.1,2.6c0,0.9-0.2,1.6-0.7,2.3c-0.5,0.7-1.2,1.1-2.2,1.3L237.9,123.3z M233.3,114.2H230v3.6h3.2    c0.6,0,1.1-0.2,1.4-0.5s0.5-0.8,0.5-1.3c0-0.5-0.2-0.9-0.5-1.3C234.4,114.4,233.9,114.2,233.3,114.2z"
   id="path28621" />
		<path
   d="M239.4,116.6c0.8-0.8,1.7-1.2,3-1.2s2.2,0.4,3,1.2c0.8,0.8,1.2,1.8,1.2,3c0,1.2-0.4,2.2-1.1,3c-0.8,0.8-1.8,1.2-3,1.2    s-2.3-0.4-3-1.2c-0.7-0.8-1.1-1.8-1.1-3C238.3,118.3,238.6,117.4,239.4,116.6z M242.4,117.2c-0.7,0-1.2,0.2-1.6,0.7    c-0.4,0.5-0.6,1-0.6,1.7s0.2,1.2,0.6,1.7c0.4,0.5,0.9,0.7,1.6,0.7c0.7,0,1.2-0.2,1.6-0.7c0.4-0.5,0.6-1,0.6-1.7    c0-0.6-0.2-1.2-0.6-1.6C243.6,117.4,243,117.2,242.4,117.2z"
   id="path28623" />
		<path
   d="M253.4,115.7l0.8-1l1.5,1.1l-0.9,1.1c0.6,0.6,0.8,1.4,0.8,2.4c0,0.6-0.1,1.2-0.4,1.7c-0.3,0.6-0.7,1-1.3,1.2    c1.1,0.5,1.6,1.4,1.6,2.6c0,1.1-0.4,1.9-1.1,2.6s-1.7,1-2.9,1s-2.1-0.3-2.9-1c-0.8-0.7-1.1-1.5-1.1-2.6h2c0,0.5,0.2,0.9,0.6,1.2    s0.9,0.5,1.5,0.5s1.1-0.2,1.4-0.5s0.6-0.7,0.6-1.3c0-0.5-0.2-0.9-0.6-1.2s-0.9-0.4-1.4-0.4c-1.2,0-2.2-0.4-3-1.1    c-0.7-0.7-1.1-1.7-1.1-2.9c0-1.2,0.4-2.2,1.2-2.9c0.8-0.7,1.7-1.1,2.9-1.1C252.3,115.3,252.9,115.4,253.4,115.7z M251.5,117.1    c-0.6,0-1.1,0.2-1.5,0.6c-0.4,0.4-0.6,1-0.6,1.6s0.2,1.2,0.6,1.6c0.4,0.4,0.9,0.6,1.5,0.6c0.6,0,1.1-0.2,1.5-0.6    c0.4-0.4,0.6-0.9,0.6-1.6s-0.2-1.2-0.6-1.6C252.6,117.3,252.1,117.1,251.5,117.1z"
   id="path28625" />
		<path
   d="M264.7,120.2h-6.2c0.1,0.5,0.3,0.9,0.7,1.2c0.4,0.3,1,0.5,1.6,0.5c0.4,0,0.8-0.1,1.2-0.2c0.4-0.1,0.7-0.3,0.9-0.5l1.3,1.2    c-0.4,0.4-0.9,0.7-1.5,1s-1.3,0.3-1.9,0.3c-1.4,0-2.4-0.4-3.2-1.2c-0.8-0.8-1.2-1.8-1.2-3.1c0-1.2,0.4-2.2,1.2-3    c0.8-0.8,1.8-1.2,3.1-1.2c1.4,0,2.4,0.4,3.1,1.3C264.6,117.4,264.9,118.6,264.7,120.2z M258.5,118.6h4.3c-0.1-0.5-0.3-0.9-0.6-1.2    c-0.4-0.3-0.8-0.4-1.4-0.4c-0.5,0-1,0.1-1.4,0.4C258.9,117.7,258.7,118.1,258.5,118.6z"
   id="path28627" />
		<path
   d="M266.2,115.5h1.8l0.1,0.9c0.3-0.5,0.6-0.8,1-0.9c0.4-0.2,0.8-0.2,1.3-0.2c0.9,0,1.5,0.3,2,0.8l-0.9,1.7    c-0.4-0.3-0.9-0.5-1.4-0.5c-0.6,0-1,0.2-1.4,0.5c-0.4,0.3-0.6,0.8-0.6,1.5v4.2h-2V115.5z"
   id="path28629" />
		<path
   d="M279.5,116.4l-1.1,1.3c-0.5-0.5-1.2-0.7-2-0.7c-1,0-1.5,0.3-1.5,0.8c0,0.5,0.5,0.8,1.5,0.9c0.4,0,0.7,0.1,0.9,0.1    s0.6,0.1,0.9,0.2c0.3,0.1,0.6,0.3,0.8,0.4c0.2,0.2,0.4,0.4,0.5,0.7c0.1,0.3,0.2,0.7,0.2,1.1c0,0.7-0.3,1.4-0.9,1.9    c-0.6,0.5-1.4,0.8-2.5,0.8c-0.7,0-1.4-0.1-2-0.3s-1.2-0.6-1.7-1.1l1-1.4c0.3,0.3,0.7,0.6,1.2,0.8c0.5,0.2,1.1,0.3,1.5,0.3    c0.4,0,0.7-0.1,1-0.3c0.3-0.2,0.4-0.4,0.4-0.7c0-0.3-0.1-0.5-0.4-0.6c-0.2-0.1-0.6-0.2-1.2-0.2c-0.4,0-0.8-0.1-1.2-0.2    c-0.4-0.1-0.7-0.2-1-0.4c-0.3-0.2-0.6-0.4-0.8-0.8c-0.2-0.3-0.3-0.7-0.3-1.1c0-0.4,0.1-0.8,0.3-1.2c0.2-0.3,0.5-0.6,0.8-0.8    s0.7-0.3,1.1-0.4c0.4-0.1,0.8-0.1,1.1-0.1C277.7,115.3,278.7,115.7,279.5,116.4z"
   id="path28631" />
	</g>
	
	<g
   id="g28697">
		<path
   class="st8"
   d="M177,155.3c0.2,0.1,0.8,0.4,1.4,0.4c1.1,0,1.4-0.7,1.4-1.2c0-0.9-0.8-1.2-1.6-1.2h-0.5v-0.6h0.5    c0.6,0,1.4-0.3,1.4-1c0-0.5-0.3-0.9-1.1-0.9c-0.5,0-1,0.2-1.2,0.4l-0.2-0.6c0.3-0.2,1-0.5,1.6-0.5c1.2,0,1.8,0.7,1.8,1.5    c0,0.6-0.4,1.2-1.1,1.5v0c0.8,0.1,1.4,0.7,1.4,1.6c0,1-0.8,1.9-2.3,1.9c-0.7,0-1.3-0.2-1.6-0.4L177,155.3z"
   id="path28673" />
		<path
   class="st8"
   d="M185.8,153.1c0,2.1-0.8,3.3-2.1,3.3c-1.2,0-2-1.1-2-3.2c0-2.1,0.9-3.2,2.2-3.2    C185,149.9,185.8,151.1,185.8,153.1z M182.4,153.1c0,1.6,0.5,2.5,1.3,2.5c0.9,0,1.3-1,1.3-2.6c0-1.5-0.4-2.5-1.3-2.5    C182.9,150.6,182.4,151.5,182.4,153.1z"
   id="path28675" />
		<path
   class="st8"
   d="M188.8,152.9c0-0.5,0-0.9,0-1.2h0.7l0,0.7h0c0.3-0.4,0.7-0.8,1.5-0.8c0.6,0,1.1,0.4,1.3,0.9h0    c0.1-0.3,0.3-0.5,0.5-0.6c0.3-0.2,0.6-0.3,1-0.3c0.6,0,1.5,0.4,1.5,2v2.7h-0.8v-2.6c0-0.9-0.3-1.4-1-1.4c-0.5,0-0.8,0.3-1,0.8    c0,0.1-0.1,0.3-0.1,0.4v2.8h-0.8v-2.8c0-0.7-0.3-1.3-1-1.3c-0.5,0-0.9,0.4-1,0.8c0,0.1-0.1,0.3-0.1,0.4v2.8h-0.8V152.9z"
   id="path28677" />
		<path
   class="st8"
   d="M197.7,150.3c0,0.3-0.2,0.5-0.5,0.5c-0.3,0-0.5-0.2-0.5-0.5c0-0.3,0.2-0.5,0.5-0.5    C197.5,149.8,197.7,150,197.7,150.3z M196.7,156.2v-4.6h0.8v4.6H196.7z"
   id="path28679" />
		<path
   class="st8"
   d="M199,152.9c0-0.5,0-0.9,0-1.2h0.7l0,0.8h0c0.2-0.4,0.8-0.9,1.5-0.9c0.6,0,1.6,0.4,1.6,2v2.7H202v-2.7    c0-0.7-0.3-1.4-1.1-1.4c-0.5,0-1,0.4-1.1,0.9c0,0.1-0.1,0.3-0.1,0.4v2.8H199V152.9z"
   id="path28681" />
		<path
   class="st8"
   d="M208.1,154.9c0,0.5,0,0.9,0,1.3h-0.7l0-0.8h0c-0.2,0.4-0.7,0.9-1.5,0.9c-0.7,0-1.6-0.4-1.6-2v-2.7h0.8v2.5    c0,0.9,0.3,1.5,1,1.5c0.6,0,1-0.4,1.1-0.8c0-0.1,0.1-0.3,0.1-0.4v-2.8h0.8V154.9z"
   id="path28683" />
		<path
   class="st8"
   d="M210.5,150.3v1.3h1.2v0.6h-1.2v2.5c0,0.6,0.2,0.9,0.6,0.9c0.2,0,0.4,0,0.5-0.1l0,0.6    c-0.2,0.1-0.4,0.1-0.7,0.1c-0.4,0-0.7-0.1-0.9-0.4c-0.2-0.3-0.3-0.7-0.3-1.2v-2.5h-0.7v-0.6h0.7v-1.1L210.5,150.3z"
   id="path28685" />
		<path
   class="st8"
   d="M213,154.1c0,1.1,0.7,1.6,1.6,1.6c0.6,0,1-0.1,1.3-0.2l0.1,0.6c-0.3,0.1-0.8,0.3-1.5,0.3    c-1.4,0-2.3-0.9-2.3-2.3c0-1.4,0.8-2.5,2.2-2.5c1.5,0,1.9,1.3,1.9,2.2c0,0.2,0,0.3,0,0.4H213z M215.5,153.5c0-0.5-0.2-1.4-1.2-1.4    c-0.9,0-1.2,0.8-1.3,1.4H215.5z"
   id="path28687" />
		<path
   class="st8"
   d="M217.2,155.4c0.3,0.2,0.7,0.3,1.1,0.3c0.6,0,0.9-0.3,0.9-0.7c0-0.4-0.2-0.6-0.9-0.8c-0.8-0.3-1.2-0.8-1.2-1.3    c0-0.7,0.6-1.3,1.6-1.3c0.5,0,0.9,0.1,1.1,0.3l-0.2,0.6c-0.2-0.1-0.5-0.3-0.9-0.3c-0.5,0-0.8,0.3-0.8,0.6c0,0.4,0.3,0.6,0.9,0.8    c0.8,0.3,1.2,0.7,1.2,1.4c0,0.8-0.6,1.4-1.7,1.4c-0.5,0-1-0.1-1.3-0.3L217.2,155.4z"
   id="path28689" />
		<path
   class="st8"
   d="M225.6,156.2l-0.1-0.6h0c-0.3,0.4-0.7,0.7-1.4,0.7c-0.9,0-1.4-0.7-1.4-1.3c0-1.1,1-1.7,2.8-1.7v-0.1    c0-0.4-0.1-1.1-1-1.1c-0.4,0-0.9,0.1-1.2,0.3l-0.2-0.6c0.4-0.2,0.9-0.4,1.5-0.4c1.4,0,1.7,1,1.7,1.9v1.7c0,0.4,0,0.8,0.1,1.1    H225.6z M225.5,153.9c-0.9,0-1.9,0.1-1.9,1c0,0.5,0.4,0.8,0.8,0.8c0.6,0,1-0.4,1.1-0.8c0-0.1,0-0.2,0-0.3V153.9z"
   id="path28691" />
		<path
   class="st8"
   d="M231.6,151.6c0,0.3,0,0.7,0,1.3v2.7c0,1.1-0.2,1.7-0.7,2.1c-0.5,0.4-1.1,0.6-1.7,0.6c-0.6,0-1.2-0.1-1.5-0.4    l0.2-0.6c0.3,0.2,0.8,0.4,1.4,0.4c0.9,0,1.5-0.4,1.5-1.6v-0.5h0c-0.3,0.4-0.8,0.8-1.5,0.8c-1.1,0-2-1-2-2.2c0-1.6,1-2.4,2.1-2.4    c0.8,0,1.2,0.4,1.4,0.8h0l0-0.7H231.6z M230.8,153.4c0-0.1,0-0.3,0-0.4c-0.2-0.5-0.6-0.9-1.2-0.9c-0.8,0-1.4,0.7-1.4,1.7    c0,0.9,0.5,1.7,1.4,1.7c0.5,0,1-0.3,1.2-0.9c0-0.1,0.1-0.3,0.1-0.4V153.4z"
   id="path28693" />
		<path
   class="st8"
   d="M237.1,153.9c0,1.7-1.2,2.4-2.3,2.4c-1.2,0-2.2-0.9-2.2-2.4c0-1.5,1-2.4,2.3-2.4    C236.2,151.5,237.1,152.5,237.1,153.9z M233.5,153.9c0,1,0.6,1.8,1.4,1.8c0.8,0,1.4-0.7,1.4-1.8c0-0.8-0.4-1.8-1.4-1.8    C233.9,152.1,233.5,153,233.5,153.9z"
   id="path28695" />
	</g>
	<line
   class="st9"
   x1="107.5"
   y1="187"
   x2="391.5"
   y2="187"
   id="line28699" />
	<circle
   class="st9"
   cx="361"
   cy="132.5"
   r="9"
   id="circle28701" />
	
	<g
   id="g28735">
		<path
   d="M187.1,237.5H185v-4.6h-5.6v4.6h-2.1v-11.3h2.1v4.8h5.6v-4.8h2.1V237.5z"
   id="path28713" />
		<path
   d="M196.9,234.2h-6.2c0.1,0.5,0.3,0.9,0.7,1.2c0.4,0.3,1,0.5,1.6,0.5c0.4,0,0.8-0.1,1.2-0.2c0.4-0.1,0.7-0.3,0.9-0.5l1.3,1.2    c-0.4,0.4-0.9,0.7-1.5,1c-0.6,0.2-1.3,0.3-1.9,0.3c-1.4,0-2.4-0.4-3.2-1.2c-0.8-0.8-1.2-1.8-1.2-3.1c0-1.2,0.4-2.2,1.2-3    c0.8-0.8,1.8-1.2,3.1-1.2c1.4,0,2.4,0.4,3.1,1.3S197,232.6,196.9,234.2z M190.7,232.6h4.3c-0.1-0.5-0.3-0.9-0.6-1.2    c-0.4-0.3-0.8-0.4-1.4-0.4c-0.5,0-1,0.1-1.4,0.4C191.1,231.7,190.8,232.1,190.7,232.6z"
   id="path28715" />
		<path
   d="M198.4,226.2h2v11.3h-2V226.2z"
   id="path28717" />
		<path
   d="M210,234.2h-6.2c0.1,0.5,0.3,0.9,0.7,1.2c0.4,0.3,1,0.5,1.6,0.5c0.4,0,0.8-0.1,1.2-0.2c0.4-0.1,0.7-0.3,0.9-0.5l1.3,1.2    c-0.4,0.4-0.9,0.7-1.5,1c-0.6,0.2-1.3,0.3-1.9,0.3c-1.4,0-2.4-0.4-3.2-1.2c-0.8-0.8-1.2-1.8-1.2-3.1c0-1.2,0.4-2.2,1.2-3    c0.8-0.8,1.8-1.2,3.1-1.2c1.4,0,2.4,0.4,3.1,1.3S210.1,232.6,210,234.2z M203.8,232.6h4.3c-0.1-0.5-0.3-0.9-0.6-1.2    c-0.4-0.3-0.8-0.4-1.4-0.4c-0.5,0-1,0.1-1.4,0.4C204.2,231.7,203.9,232.1,203.8,232.6z"
   id="path28719" />
		<path
   d="M219.3,237.5h-2v-4.2c0-0.6-0.2-1.1-0.5-1.5s-0.8-0.6-1.4-0.6c-0.6,0-1.1,0.2-1.5,0.6c-0.4,0.4-0.6,1-0.6,1.6v4.1h-2v-8    h1.8l0.1,1.1c0.8-0.8,1.7-1.2,2.6-1.2c1,0,1.8,0.3,2.4,1s1,1.6,1,2.9V237.5z"
   id="path28721" />
		<path
   d="M234.3,237.5v-8.2l-3.7,4.9h-0.4l-3.6-4.9v8.2h-2.1v-11.3h2.5l3.5,4.9l3.5-4.9h2.4v11.3H234.3z"
   id="path28723" />
		<path
   d="M238.4,228.1c-0.2-0.2-0.4-0.5-0.4-0.9s0.1-0.7,0.4-0.9c0.2-0.2,0.5-0.3,0.8-0.3c0.3,0,0.6,0.1,0.8,0.3    c0.2,0.2,0.4,0.5,0.4,0.9s-0.1,0.7-0.4,0.9c-0.2,0.2-0.5,0.3-0.8,0.3C238.9,228.5,238.7,228.3,238.4,228.1z M240.2,229.5h-2v8h2    V229.5z"
   id="path28725" />
		<path
   d="M242,226.2h2v11.3h-2V226.2z"
   id="path28727" />
		<path
   d="M245.7,226.2h2v11.3h-2V226.2z"
   id="path28729" />
		<path
   d="M257.2,234.2H251c0.1,0.5,0.3,0.9,0.7,1.2c0.4,0.3,1,0.5,1.6,0.5c0.4,0,0.8-0.1,1.2-0.2c0.4-0.1,0.7-0.3,0.9-0.5l1.3,1.2    c-0.4,0.4-0.9,0.7-1.5,1s-1.3,0.3-1.9,0.3c-1.4,0-2.4-0.4-3.2-1.2c-0.8-0.8-1.2-1.8-1.2-3.1c0-1.2,0.4-2.2,1.2-3    c0.8-0.8,1.8-1.2,3.1-1.2c1.4,0,2.4,0.4,3.1,1.3C257.1,231.4,257.4,232.6,257.2,234.2z M251.1,232.6h4.3c-0.1-0.5-0.3-0.9-0.6-1.2    c-0.4-0.3-0.8-0.4-1.4-0.4c-0.5,0-1,0.1-1.4,0.4C251.5,231.7,251.2,232.1,251.1,232.6z"
   id="path28731" />
		<path
   d="M258.8,229.5h1.8l0.1,0.9c0.3-0.5,0.6-0.8,1-0.9c0.4-0.2,0.8-0.2,1.3-0.2c0.9,0,1.5,0.3,2,0.8l-0.9,1.7    c-0.4-0.3-0.9-0.5-1.4-0.5c-0.6,0-1,0.2-1.4,0.5c-0.4,0.3-0.6,0.8-0.6,1.5v4.2h-2V229.5z"
   id="path28733" />
	</g>
	
	<g
   id="g28789">
		<path
   class="st8"
   d="M178.6,264.8L178.6,264.8l-1.1,0.6l-0.2-0.6l1.3-0.7h0.7v6.2h-0.8V264.8z"
   id="path28773" />
		<path
   class="st8"
   d="M183.9,263.5h0.8v2.9h0c0.1-0.2,0.3-0.4,0.6-0.6c0.2-0.1,0.5-0.2,0.9-0.2c0.6,0,1.6,0.4,1.6,2v2.7H187v-2.6    c0-0.7-0.3-1.4-1.1-1.4c-0.5,0-1,0.4-1.1,0.8c0,0.1-0.1,0.2-0.1,0.4v2.8h-0.8V263.5z"
   id="path28775" />
		<path
   class="st8"
   d="M193.4,267.9c0,1.7-1.2,2.4-2.3,2.4c-1.2,0-2.2-0.9-2.2-2.4c0-1.5,1-2.4,2.3-2.4    C192.5,265.5,193.4,266.5,193.4,267.9z M189.7,267.9c0,1,0.6,1.8,1.4,1.8c0.8,0,1.4-0.7,1.4-1.8c0-0.8-0.4-1.8-1.4-1.8    C190.2,266.1,189.7,267,189.7,267.9z"
   id="path28777" />
		<path
   class="st8"
   d="M198.3,268.9c0,0.5,0,0.9,0,1.3h-0.7l0-0.8h0c-0.2,0.4-0.7,0.9-1.5,0.9c-0.7,0-1.6-0.4-1.6-2v-2.7h0.8v2.5    c0,0.9,0.3,1.5,1,1.5c0.6,0,1-0.4,1.1-0.8c0-0.1,0.1-0.3,0.1-0.4v-2.8h0.8V268.9z"
   id="path28779" />
		<path
   class="st8"
   d="M199.7,267c0-0.5,0-1,0-1.4h0.7l0,0.9h0c0.2-0.6,0.7-1,1.3-1c0.1,0,0.2,0,0.2,0v0.8c-0.1,0-0.2,0-0.3,0    c-0.6,0-1,0.4-1.1,1.1c0,0.1,0,0.3,0,0.4v2.5h-0.8V267z"
   id="path28781" />
		<path
   class="st8"
   d="M207.3,270.2l-0.1-0.6h0c-0.3,0.4-0.7,0.7-1.4,0.7c-0.9,0-1.4-0.7-1.4-1.3c0-1.1,1-1.7,2.8-1.7v-0.1    c0-0.4-0.1-1.1-1-1.1c-0.4,0-0.9,0.1-1.2,0.3l-0.2-0.6c0.4-0.2,0.9-0.4,1.5-0.4c1.4,0,1.7,1,1.7,1.9v1.7c0,0.4,0,0.8,0.1,1.1    H207.3z M207.2,267.9c-0.9,0-1.9,0.1-1.9,1c0,0.5,0.4,0.8,0.8,0.8c0.6,0,1-0.4,1.1-0.8c0-0.1,0-0.2,0-0.3V267.9z"
   id="path28783" />
		<path
   class="st8"
   d="M213.3,265.6c0,0.3,0,0.7,0,1.3v2.7c0,1.1-0.2,1.7-0.7,2.1c-0.5,0.4-1.1,0.6-1.7,0.6c-0.6,0-1.2-0.1-1.5-0.4    l0.2-0.6c0.3,0.2,0.8,0.4,1.4,0.4c0.9,0,1.5-0.4,1.5-1.6v-0.5h0c-0.3,0.4-0.8,0.8-1.5,0.8c-1.1,0-2-1-2-2.3c0-1.6,1-2.4,2.1-2.4    c0.8,0,1.2,0.4,1.4,0.8h0l0-0.7H213.3z M212.5,267.4c0-0.1,0-0.3,0-0.4c-0.2-0.5-0.6-0.9-1.2-0.9c-0.8,0-1.4,0.7-1.4,1.7    c0,0.9,0.5,1.7,1.4,1.7c0.5,0,1-0.3,1.2-0.9c0-0.1,0.1-0.3,0.1-0.4V267.4z"
   id="path28785" />
		<path
   class="st8"
   d="M218.8,267.9c0,1.7-1.2,2.4-2.3,2.4c-1.2,0-2.2-0.9-2.2-2.4c0-1.5,1-2.4,2.3-2.4    C217.9,265.5,218.8,266.5,218.8,267.9z M215.2,267.9c0,1,0.6,1.8,1.4,1.8c0.8,0,1.4-0.7,1.4-1.8c0-0.8-0.4-1.8-1.4-1.8    C215.6,266.1,215.2,267,215.2,267.9z"
   id="path28787" />
	</g>
	<line
   class="st9"
   x1="107.5"
   y1="301"
   x2="391.5"
   y2="301"
   id="line28791" />
	<circle
   class="st9"
   cx="361"
   cy="246.5"
   r="9"
   id="circle28793" />
	
	<g
   id="g28823">
		<path
   d="M181.6,340.2c0.9,0,1.8,0.2,2.5,0.5c0.7,0.3,1.3,0.7,1.8,1.3c0.4,0.5,0.8,1.1,1,1.8s0.4,1.3,0.4,2c0,0.7-0.1,1.4-0.3,2.1    c-0.2,0.7-0.6,1.3-1,1.8c-0.4,0.5-1,1-1.8,1.3c-0.7,0.3-1.6,0.5-2.5,0.5h-4.4v-11.3H181.6z M179.3,342.2v7.2h2.3    c1.2,0,2.1-0.4,2.7-1.1c0.6-0.7,0.9-1.6,0.9-2.6c0-1-0.3-1.8-0.9-2.5c-0.6-0.7-1.5-1-2.6-1H179.3z"
   id="path28805" />
		<path
   d="M194.9,344.6l0.1-1.1h1.9v8H195l-0.1-1.2c-0.2,0.4-0.6,0.8-1.1,1c-0.5,0.2-1,0.4-1.5,0.4c-1.2,0-2.2-0.4-3-1.1    c-0.8-0.7-1.1-1.8-1.1-3.1c0-1.3,0.4-2.4,1.2-3.1c0.8-0.7,1.8-1.1,3-1.1c0.5,0,1,0.1,1.5,0.4C194.4,343.9,194.7,344.2,194.9,344.6    z M192.6,345.1c-0.7,0-1.2,0.2-1.7,0.6c-0.4,0.4-0.7,1-0.7,1.8s0.2,1.3,0.7,1.8c0.4,0.4,1,0.7,1.7,0.7c0.6,0,1.1-0.2,1.5-0.5    c0.4-0.3,0.7-0.7,0.7-1.2c0.1-0.5,0.1-0.9,0-1.4c-0.1-0.5-0.3-0.9-0.7-1.2C193.7,345.3,193.2,345.1,192.6,345.1z"
   id="path28807" />
		<path
   d="M206.4,351.5h-2v-4.2c0-0.6-0.2-1.1-0.5-1.5c-0.3-0.4-0.8-0.6-1.4-0.6c-0.6,0-1.1,0.2-1.5,0.6c-0.4,0.4-0.6,1-0.6,1.6v4.1    h-2v-8h1.8l0.1,1.1c0.8-0.8,1.7-1.2,2.6-1.2c1,0,1.8,0.3,2.4,1c0.6,0.7,1,1.6,1,2.9V351.5z"
   id="path28809" />
		<path
   d="M216.8,340.2c1.2,0,2.1,0.3,2.8,0.8c0.7,0.5,1.1,1.4,1.1,2.5c0,1-0.5,1.7-1.5,2.2c0.6,0.2,1,0.5,1.3,1.1s0.5,1,0.5,1.5    c0,2.2-1.4,3.3-4.2,3.3h-5.4v-11.3H216.8z M213.5,342.1v2.6h3.3c1.2,0,1.8-0.4,1.8-1.2c0-0.3-0.1-0.6-0.4-0.9    c-0.3-0.3-0.7-0.4-1.3-0.4H213.5z M213.5,346.6v2.9h3.3c0.3,0,0.6,0,0.9-0.1s0.6-0.2,0.8-0.4c0.2-0.2,0.4-0.5,0.4-0.8    c0-0.5-0.2-0.8-0.7-1.1c-0.5-0.3-0.9-0.4-1.4-0.4H213.5z"
   id="path28811" />
		<path
   d="M228.6,344.6l0.1-1.1h1.9v8h-1.9l-0.1-1.2c-0.2,0.4-0.6,0.8-1.1,1c-0.5,0.2-1,0.4-1.5,0.4c-1.2,0-2.2-0.4-3-1.1    c-0.8-0.7-1.1-1.8-1.1-3.1c0-1.3,0.4-2.4,1.2-3.1c0.8-0.7,1.8-1.1,3-1.1c0.5,0,1,0.1,1.5,0.4C228,343.9,228.4,344.2,228.6,344.6z     M226.2,345.1c-0.7,0-1.2,0.2-1.7,0.6c-0.4,0.4-0.7,1-0.7,1.8s0.2,1.3,0.7,1.8c0.4,0.4,1,0.7,1.7,0.7c0.6,0,1.1-0.2,1.5-0.5    c0.4-0.3,0.7-0.7,0.7-1.2c0.1-0.5,0.1-0.9,0-1.4c-0.1-0.5-0.3-0.9-0.7-1.2C227.3,345.3,226.8,345.1,226.2,345.1z"
   id="path28813" />
		<path
   d="M235.7,346.2l1.6-2.7h2.4v0.1l-2.6,3.9l2.8,4v0h-2.4l-1.7-2.7l-1.7,2.7h-2.4v0l2.8-4l-2.6-3.9v-0.1h2.4L235.7,346.2z"
   id="path28815" />
		<path
   d="M241.6,341.5l2-0.2v2.3h2.2v1.7h-2.2v3.4c0,0.4,0.1,0.6,0.3,0.8s0.4,0.3,0.8,0.3c0.3,0,0.6-0.1,1-0.2l0.5,1.7    c-0.5,0.2-1.1,0.3-1.6,0.3c-0.9,0-1.6-0.2-2.1-0.7s-0.8-1.2-0.8-2.2v-3.4h-1.5v-1.7h1.5V341.5z"
   id="path28817" />
		<path
   d="M255.1,348.2h-6.2c0.1,0.5,0.3,0.9,0.7,1.2c0.4,0.3,1,0.5,1.6,0.5c0.4,0,0.8-0.1,1.2-0.2c0.4-0.1,0.7-0.3,0.9-0.5l1.3,1.2    c-0.4,0.4-0.9,0.7-1.5,1s-1.3,0.3-1.9,0.3c-1.4,0-2.4-0.4-3.2-1.2c-0.8-0.8-1.2-1.8-1.2-3.1c0-1.2,0.4-2.2,1.2-3s1.8-1.2,3.1-1.2    c1.4,0,2.4,0.4,3.1,1.3C255,345.4,255.3,346.6,255.1,348.2z M249,346.6h4.3c-0.1-0.5-0.3-0.9-0.6-1.2c-0.4-0.3-0.8-0.4-1.4-0.4    c-0.5,0-1,0.1-1.4,0.4C249.4,345.7,249.1,346.1,249,346.6z"
   id="path28819" />
		<path
   d="M256.6,343.5h1.8l0.1,0.9c0.3-0.5,0.6-0.8,1-0.9c0.4-0.2,0.8-0.2,1.3-0.2c0.9,0,1.5,0.3,2,0.8l-0.9,1.7    c-0.4-0.3-0.9-0.5-1.4-0.5c-0.6,0-1,0.2-1.4,0.5c-0.4,0.3-0.6,0.8-0.6,1.5v4.2h-2V343.5z"
   id="path28821" />
	</g>
	
	<g
   id="g28879"
   transform="translate(0,10.692308)">
		<path
   class="st8"
   d="m 179.4,384.2 v -1.7 h -2.9 V 382 l 2.8,-3.9 h 0.9 v 3.8 h 0.9 v 0.6 h -0.9 v 1.7 z m 0,-2.3 v -2.1 c 0,-0.3 0,-0.6 0,-1 v 0 c -0.2,0.4 -0.3,0.6 -0.5,0.9 l -1.5,2.1 v 0 h 2 z"
   id="path28861" />
		<path
   class="st8"
   d="m 183.9,377.5 h 0.8 v 2.9 0 c 0.1,-0.2 0.3,-0.4 0.6,-0.6 0.2,-0.1 0.5,-0.2 0.9,-0.2 0.6,0 1.6,0.4 1.6,2 v 2.7 H 187 v -2.6 c 0,-0.7 -0.3,-1.4 -1.1,-1.4 -0.5,0 -1,0.4 -1.1,0.8 0,0.1 -0.1,0.2 -0.1,0.4 v 2.8 h -0.8 z"
   id="path28863" />
		<path
   class="st8"
   d="m 193.4,381.9 c 0,1.7 -1.2,2.4 -2.3,2.4 -1.2,0 -2.2,-0.9 -2.2,-2.4 0,-1.5 1,-2.4 2.3,-2.4 1.3,0 2.2,1 2.2,2.4 z m -3.7,0 c 0,1 0.6,1.8 1.4,1.8 0.8,0 1.4,-0.7 1.4,-1.8 0,-0.8 -0.4,-1.8 -1.4,-1.8 -0.9,0 -1.4,0.9 -1.4,1.8 z"
   id="path28865" />
		<path
   class="st8"
   d="m 198.3,382.9 c 0,0.5 0,0.9 0,1.3 h -0.7 v -0.8 0 c -0.2,0.4 -0.7,0.9 -1.5,0.9 -0.7,0 -1.6,-0.4 -1.6,-2 v -2.7 h 0.8 v 2.5 c 0,0.9 0.3,1.5 1,1.5 0.6,0 1,-0.4 1.1,-0.8 0,-0.1 0.1,-0.3 0.1,-0.4 v -2.8 h 0.8 z"
   id="path28867" />
		<path
   class="st8"
   d="m 199.7,381 c 0,-0.5 0,-1 0,-1.4 h 0.7 v 0.9 0 c 0.2,-0.6 0.7,-1 1.3,-1 0.1,0 0.2,0 0.2,0 v 0.8 c -0.1,0 -0.2,0 -0.3,0 -0.6,0 -1,0.4 -1.1,1.1 0,0.1 0,0.3 0,0.4 v 2.5 h -0.8 z"
   id="path28869" />
		<path
   class="st8"
   d="m 202.7,383.4 c 0.3,0.2 0.7,0.3 1.1,0.3 0.6,0 0.9,-0.3 0.9,-0.7 0,-0.4 -0.2,-0.6 -0.9,-0.8 -0.8,-0.3 -1.2,-0.8 -1.2,-1.3 0,-0.7 0.6,-1.3 1.6,-1.3 0.5,0 0.9,0.1 1.1,0.3 l -0.2,0.6 c -0.2,-0.1 -0.5,-0.3 -0.9,-0.3 -0.5,0 -0.8,0.3 -0.8,0.6 0,0.4 0.3,0.6 0.9,0.8 0.8,0.3 1.2,0.7 1.2,1.4 0,0.8 -0.6,1.4 -1.7,1.4 -0.5,0 -1,-0.1 -1.3,-0.3 z"
   id="path28871" />
		<path
   class="st8"
   d="m 213.1,384.2 -0.1,-0.6 v 0 c -0.3,0.4 -0.7,0.7 -1.4,0.7 -0.9,0 -1.4,-0.7 -1.4,-1.3 0,-1.1 1,-1.7 2.8,-1.7 v -0.1 c 0,-0.4 -0.1,-1.1 -1,-1.1 -0.4,0 -0.9,0.1 -1.2,0.3 l -0.2,-0.6 c 0.4,-0.2 0.9,-0.4 1.5,-0.4 1.4,0 1.7,1 1.7,1.9 v 1.7 c 0,0.4 0,0.8 0.1,1.1 h -0.8 z m -0.1,-2.3 c -0.9,0 -1.9,0.1 -1.9,1 0,0.5 0.4,0.8 0.8,0.8 0.6,0 1,-0.4 1.1,-0.8 0,-0.1 0,-0.2 0,-0.3 z"
   id="path28873" />
		<path
   class="st8"
   d="m 219.1,379.6 c 0,0.3 0,0.7 0,1.3 v 2.7 c 0,1.1 -0.2,1.7 -0.7,2.1 -0.5,0.4 -1.1,0.6 -1.7,0.6 -0.6,0 -1.2,-0.1 -1.5,-0.4 l 0.2,-0.6 c 0.3,0.2 0.8,0.4 1.4,0.4 0.9,0 1.5,-0.4 1.5,-1.6 v -0.5 0 c -0.3,0.4 -0.8,0.8 -1.5,0.8 -1.1,0 -2,-1 -2,-2.3 0,-1.6 1,-2.4 2.1,-2.4 0.8,0 1.2,0.4 1.4,0.8 v 0 -0.7 h 0.8 z m -0.9,1.8 c 0,-0.1 0,-0.3 0,-0.4 -0.2,-0.5 -0.6,-0.9 -1.2,-0.9 -0.8,0 -1.4,0.7 -1.4,1.7 0,0.9 0.5,1.7 1.4,1.7 0.5,0 1,-0.3 1.2,-0.9 0,-0.1 0.1,-0.3 0.1,-0.4 v -0.8 z"
   id="path28875" />
		<path
   class="st8"
   d="m 224.6,381.9 c 0,1.7 -1.2,2.4 -2.3,2.4 -1.2,0 -2.2,-0.9 -2.2,-2.4 0,-1.5 1,-2.4 2.3,-2.4 1.3,0 2.2,1 2.2,2.4 z m -3.6,0 c 0,1 0.6,1.8 1.4,1.8 0.8,0 1.4,-0.7 1.4,-1.8 0,-0.8 -0.4,-1.8 -1.4,-1.8 -1,0 -1.4,0.9 -1.4,1.8 z"
   id="path28877" />
	</g>
	<circle
   class="st9"
   cx="361"
   cy="360.5"
   r="9"
   id="circle28881" />
	<g
   id="g28935">
		<g
   id="g28885">
			<path
   class="st5"
   d="M132.9,256.6c-3.7-1.3-5.2-5-6.6-10.2c-0.8-3-1.1-5.1-1.1-8.9c0-9.1,4.7-12.5,12.2-12.5s12.5,1.9,12.5,11     c0,13.6-4.5,21.6-12.5,21.6"
   id="path28883" />
		</g>
		<g
   id="g28889">
			<path
   class="st4"
   d="M137.3,258c-0.2,0-0.3-0.1-0.3-0.3s0.1-0.3,0.3-0.3c7.8,0,12.2-7.8,12.2-21.3c0-8.9-4.9-10.7-12.2-10.7     c-3.9,0-6.7,0.9-8.7,2.7c-2.1,2-3.2,5.1-3.2,9.4c0,3.8,0.4,5.9,1.1,8.8c1.9,7.1,3.8,9.1,6.4,10c0.2,0.1,0.3,0.3,0.2,0.4     c-0.1,0.2-0.3,0.3-0.4,0.2c-3.7-1.3-5.4-5-6.8-10.5c-0.8-3-1.1-5.1-1.1-9c0-8.6,4.1-12.8,12.5-12.8c6.7,0,12.9,1.4,12.9,11.4     C150.2,250,145.5,258,137.3,258z"
   id="path28887" />
		</g>
		<g
   id="g28893">
			<path
   class="st4"
   d="M137.5,246c-0.1,0-0.3,0-0.4,0c-0.9-0.1-1.3-0.8-1.3-0.9c-0.1-0.2,0-0.4,0.1-0.5c0.2-0.1,0.4,0,0.5,0.1     c0,0,0.3,0.5,0.8,0.5c0.6,0.1,1,0,1.2-0.3c0.1-0.2,0.1-0.5,0-0.8c-0.5-0.8-1.4-3.5-1.1-4.5c0-0.2,0.2-0.3,0.4-0.2     c0.2,0,0.3,0.2,0.2,0.4c-0.2,0.6,0.5,3.1,1,4c0.3,0.5,0.3,1,0,1.5C138.7,245.7,138.1,246,137.5,246z"
   id="path28891" />
		</g>
		<g
   id="g28897">
			<path
   class="st4"
   d="M130.8,239.8c-0.1,0-0.2,0-0.2-0.1c-0.1-0.1-0.1-0.3,0-0.5c0.4-0.5,1-0.7,1.6-0.7c0.5,0,0.9,0.3,1.1,0.7     c0.1,0.2,0.1,0.4-0.1,0.5c-0.2,0.1-0.4,0.1-0.5-0.1c-0.1-0.2-0.4-0.3-0.6-0.4c-0.4,0-0.8,0.1-1.1,0.4     C130.9,239.8,130.8,239.8,130.8,239.8z"
   id="path28895" />
		</g>
		<g
   id="g28901">
			<path
   class="st4"
   d="M143.9,239.8c-0.1,0-0.2,0-0.2-0.1c-0.3-0.3-0.7-0.5-1.2-0.5c-0.3,0-0.7,0.2-0.8,0.4     c-0.1,0.1-0.3,0.2-0.5,0.1c-0.1-0.1-0.2-0.3-0.1-0.5c0.3-0.4,0.8-0.6,1.3-0.7c0.6,0,1.2,0.2,1.7,0.7c0.1,0.1,0.1,0.3,0,0.5     C144.1,239.8,144,239.8,143.9,239.8z"
   id="path28899" />
		</g>
		<g
   id="g28905">
			<path
   class="st4"
   d="M137.2,250.2c-0.9,0-1.6-0.3-1.9-0.8c-0.1-0.2-0.1-0.4,0.1-0.5c0.2-0.1,0.4-0.1,0.5,0.1     c0.2,0.4,0.8,0.6,1.5,0.5c0.7,0,1.4-0.3,1.7-0.7c0.1-0.2,0.3-0.2,0.5-0.1c0.2,0.1,0.2,0.3,0.1,0.5c-0.4,0.6-1.2,1-2.2,1.1     C137.3,250.2,137.2,250.2,137.2,250.2z"
   id="path28903" />
		</g>
		<g
   id="g28915">
			<g
   id="g28909">
				<path
   class="st3"
   d="M126.3,245.3c-1.7-0.2-2.7-1.9-2.6-3.4s1.7-1.9,2.9-1.5"
   id="path28907" />
			</g>
			<g
   id="g28913">
				<path
   class="st4"
   d="M126.3,245.7C126.3,245.7,126.3,245.7,126.3,245.7c-0.8-0.1-1.6-0.5-2.1-1.1c-0.6-0.7-0.9-1.7-0.8-2.7      c0.1-0.7,0.4-1.2,0.9-1.5c0.6-0.4,1.6-0.5,2.4-0.3c0.2,0.1,0.3,0.2,0.2,0.4c-0.1,0.2-0.2,0.3-0.4,0.2c-0.7-0.2-1.4-0.1-1.8,0.2      c-0.4,0.2-0.6,0.6-0.6,1.1c-0.1,0.8,0.2,1.6,0.7,2.2c0.3,0.4,0.8,0.8,1.6,0.9c0.2,0,0.3,0.2,0.3,0.4      C126.6,245.5,126.5,245.7,126.3,245.7z"
   id="path28911" />
			</g>
		</g>
		<g
   id="g28925">
			<g
   id="g28919">
				<path
   class="st3"
   d="M148.8,245.3c1.8,0.1,3-1.6,3.1-3.1c0.1-1.5-1.4-2.1-2.6-2"
   id="path28917" />
			</g>
			<g
   id="g28923">
				<path
   class="st4"
   d="M148.9,245.6c-0.1,0-0.1,0-0.2,0c-0.2,0-0.3-0.2-0.3-0.4c0-0.2,0.2-0.3,0.4-0.3c0.8,0.1,1.3-0.3,1.7-0.6      c0.6-0.5,1-1.4,1.1-2.2c0-0.5-0.1-0.8-0.4-1.1c-0.4-0.4-1.1-0.6-1.8-0.5c-0.2,0-0.3-0.1-0.4-0.3c0-0.2,0.1-0.3,0.3-0.4      c0.9-0.1,1.8,0.2,2.4,0.7c0.4,0.4,0.7,1,0.6,1.6c-0.1,1-0.6,2-1.3,2.7C150.3,245.3,149.7,245.6,148.9,245.6z"
   id="path28921" />
			</g>
		</g>
		<g
   id="g28929">
			<path
   class="st10"
   d="M127.2,240.7c-1.6,3.6,1.3,12.9,1.8,13.3c1.9,1.6-8.5-1.1-9.9-4.7c-2-5.1,4.2-20.5,9.1-23.1     c1.5-0.8,5.8-5.6,12.7-3.3c6.3,2,9.8,4.9,12.2,10c2.4,5.1,5.4,15.5,3.1,18c-2.2,2.4-11.8,4.5-10.6,2.2c2.4-4.2,1.5-11.7,1.5-14.8     c0-2.9-4.4-3.1-8-4.3c-4-1.3-8.7-3.1-8.7-3.1S128.6,237.4,127.2,240.7z"
   id="path28927" />
		</g>
		<g
   id="g28933">
			<path
   class="st4"
   d="M128.9,254.8c-1.7,0-8.8-2.3-10-5.3c-1.1-2.9,0.3-8.5,2-12.7c2.6-6.4,5.5-9.8,7.3-10.8     c0.2-0.1,0.6-0.4,1-0.7c1.6-1.2,4.4-3.3,8.3-3.3c1.2,0,2.5,0.2,3.7,0.6c6.3,2,9.9,5,12.4,10.2c1.3,2.8,2.6,6.7,3.4,10.1     c0.6,3,1.1,6.8-0.3,8.3c-1.7,1.8-6.9,3.3-9.5,3.3c0,0,0,0,0,0c-0.9,0-1.5-0.2-1.7-0.6c-0.1-0.2-0.2-0.5,0.1-0.9     c1.9-3.4,1.6-8.8,1.5-12.5c0-0.8-0.1-1.6-0.1-2.1c0-2-2.4-2.6-5.2-3.3c-0.9-0.2-1.8-0.5-2.6-0.7c-3.3-1.1-7.2-2.6-8.3-3     c-0.4,1.4-2,6.6-3.2,9.5c-1.5,3.3,1.2,12.3,1.8,13c0.1,0.1,0.4,0.4,0.3,0.7C129.4,254.8,129,254.8,128.9,254.8z M137.4,222.7     c-3.7,0-6.3,2-7.9,3.1c-0.4,0.3-0.8,0.6-1.1,0.7c-2.2,1.2-4.9,5.3-7,10.5c-2.1,5.2-2.8,10-2,12.2c1,2.5,7.2,4.7,9.2,4.9     c-0.5-0.7-1.3-3.4-1.7-5.5c-0.5-2.6-1-6-0.1-8c1.4-3.3,3.3-9.7,3.3-9.7c0-0.1,0.1-0.2,0.2-0.2s0.2,0,0.3,0c0,0,4.7,1.8,8.7,3.1     c0.8,0.3,1.7,0.5,2.6,0.7c2.9,0.7,5.7,1.5,5.7,3.9c0,0.6,0,1.3,0.1,2.1c0.2,3.7,0.4,9.3-1.6,12.8c-0.1,0.1-0.1,0.2-0.1,0.2     c0.1,0.1,0.4,0.2,1.1,0.2c0,0,0,0,0,0c2.6,0,7.6-1.5,9-3.1c2-2.2-0.5-12.1-3.2-17.6c-2.4-5.1-5.8-7.8-12-9.8     C139.7,222.9,138.5,222.7,137.4,222.7z"
   id="path28931" />
		</g>
	</g>
	<g
   id="g28993">
		<g
   id="g28939">
			<path
   class="st5"
   d="M133.5,370.6c-3.6-1.3-5.1-4.9-6.4-9.9c-0.8-2.9-1.1-4.9-1.1-8.6c0-8.8,4.6-12.1,11.8-12.1     s12.2,1.9,12.2,10.7c0,13.2-4.3,21-12.2,21"
   id="path28937" />
		</g>
		<g
   id="g28943">
			<path
   class="st4"
   d="M137.8,372c-0.2,0-0.3-0.1-0.3-0.3s0.1-0.3,0.3-0.3c7.5,0,11.8-7.5,11.8-20.7c0-8.6-4.7-10.4-11.8-10.4     c-3.8,0-6.5,0.9-8.4,2.6c-2,1.9-3.1,5-3.1,9.1c0,3.7,0.4,5.7,1.1,8.5c1.8,6.9,3.7,8.8,6.2,9.7c0.2,0.1,0.3,0.2,0.2,0.4     c-0.1,0.2-0.2,0.3-0.4,0.2c-3.6-1.3-5.2-4.8-6.6-10.2c-0.8-2.9-1.1-4.9-1.1-8.7c0-8.3,4-12.4,12.1-12.4c6.5,0,12.5,1.3,12.5,11     C150.3,364.2,145.8,372,137.8,372z"
   id="path28941" />
		</g>
		<g
   id="g28947">
			<path
   class="st4"
   d="M138,360.3c-0.1,0-0.3,0-0.4,0c-0.9-0.1-1.3-0.8-1.3-0.8c-0.1-0.2,0-0.4,0.1-0.4c0.2-0.1,0.4,0,0.4,0.1     c0,0,0.2,0.4,0.8,0.5c0.6,0.1,1,0,1.2-0.3c0.1-0.2,0.1-0.5,0-0.7c-0.5-0.8-1.3-3.4-1.1-4.3c0-0.2,0.2-0.3,0.4-0.2     c0.2,0,0.3,0.2,0.2,0.4c-0.2,0.6,0.5,3.1,1,3.8c0.3,0.5,0.3,1,0,1.4C139.1,360.1,138.6,360.3,138,360.3z"
   id="path28945" />
		</g>
		<g
   id="g28951">
			<path
   class="st4"
   d="M131.4,354.4c-0.1,0-0.2,0-0.2-0.1c-0.1-0.1-0.1-0.3,0-0.5c0.4-0.5,1-0.7,1.6-0.6c0.5,0,0.9,0.3,1.1,0.7     c0.1,0.2,0.1,0.4-0.1,0.4c-0.2,0.1-0.4,0.1-0.4-0.1c-0.1-0.2-0.4-0.3-0.6-0.4c-0.4,0-0.8,0.1-1.1,0.4     C131.6,354.4,131.5,354.4,131.4,354.4z"
   id="path28949" />
		</g>
		<g
   id="g28955">
			<path
   class="st4"
   d="M144.2,354.4c-0.1,0-0.2,0-0.2-0.1c-0.3-0.3-0.7-0.5-1.1-0.4c-0.3,0-0.6,0.2-0.8,0.4     c-0.1,0.1-0.3,0.2-0.5,0.1c-0.1-0.1-0.2-0.3-0.1-0.5c0.3-0.4,0.8-0.6,1.3-0.6c0.6,0,1.2,0.2,1.6,0.6c0.1,0.1,0.1,0.3,0,0.5     C144.4,354.4,144.3,354.4,144.2,354.4z"
   id="path28953" />
		</g>
		<g
   id="g28959">
			<path
   class="st4"
   d="M137.7,364.4c-0.8,0-1.5-0.3-1.9-0.8c-0.1-0.1-0.1-0.3,0.1-0.4c0.1-0.1,0.3-0.1,0.4,0.1     c0.2,0.3,0.8,0.6,1.5,0.5c0.7,0,1.4-0.3,1.6-0.7c0.1-0.2,0.3-0.2,0.4-0.1c0.2,0.1,0.2,0.3,0.1,0.4c-0.3,0.6-1.2,1-2.2,1     C137.8,364.4,137.7,364.4,137.7,364.4z"
   id="path28957" />
		</g>
		<g
   id="g28969">
			<g
   id="g28963">
				<path
   class="st3"
   d="M127.1,359.7c-1.7-0.1-2.7-1.9-2.5-3.3s1.7-1.8,2.8-1.5"
   id="path28961" />
			</g>
			<g
   id="g28967">
				<path
   class="st4"
   d="M127.1,360C127.1,360,127.1,360,127.1,360c-0.8-0.1-1.5-0.4-2-1.1c-0.6-0.7-0.9-1.7-0.8-2.6      c0.1-0.6,0.4-1.2,0.9-1.5c0.6-0.4,1.5-0.5,2.3-0.3c0.2,0,0.3,0.2,0.2,0.4c0,0.2-0.2,0.3-0.4,0.2c-0.6-0.2-1.3-0.1-1.8,0.2      c-0.3,0.2-0.5,0.6-0.6,1c-0.1,0.7,0.2,1.5,0.6,2.1c0.3,0.3,0.8,0.8,1.6,0.8c0.2,0,0.3,0.2,0.3,0.3      C127.4,359.9,127.3,360,127.1,360z"
   id="path28965" />
			</g>
		</g>
		<g
   id="g28979">
			<g
   id="g28973">
				<path
   class="st3"
   d="M148.9,359.7c1.7,0.1,2.9-1.5,3-3c0.1-1.5-1.4-2.1-2.6-1.9"
   id="path28971" />
			</g>
			<g
   id="g28977">
				<path
   class="st4"
   d="M149.1,360c-0.1,0-0.1,0-0.2,0c-0.2,0-0.3-0.2-0.3-0.3c0-0.2,0.2-0.3,0.3-0.3c0.7,0.1,1.3-0.3,1.6-0.6      c0.6-0.5,1-1.3,1-2.1c0-0.4-0.1-0.8-0.4-1.1c-0.4-0.4-1.1-0.6-1.8-0.5c-0.2,0-0.3-0.1-0.4-0.3c0-0.2,0.1-0.3,0.3-0.4      c0.9-0.1,1.8,0.1,2.3,0.7c0.4,0.4,0.6,1,0.6,1.6c-0.1,1-0.5,2-1.3,2.6C150.4,359.7,149.7,360,149.1,360z"
   id="path28975" />
			</g>
		</g>
		<g
   id="g28983">
			<path
   class="st11"
   d="M129.6,344.8c1.7,1.8,4.7,4.2,11.6,4.7c3.2,0.2,5.2-0.3,6.3,1.1c1.5,1.7,1.7,4.5,1.5,6     c-0.1,0.7,2.4-2.3,2.4-2.3c-1-1.6,1.1-5.1,0.5-9.7c-0.3-1.9-4.3-6.3-10-7.7c-7.1-1.8-11,1.7-12.9,3.4c-1.5,1.4-3.4,0.7-4.9,3.9     c-1.4,2.9,0.9,8.2,0.6,9.9c-0.2,0.8,0.6,0.6,2,2.4c0.6,0.8,0.7-2.3,0.8-4.1C127.8,350.5,129.6,344.8,129.6,344.8z"
   id="path28981" />
		</g>
		<g
   id="g28987">
			<path
   class="st4"
   d="M149.2,357c-0.1,0-0.2,0-0.3-0.1c-0.1-0.1-0.1-0.2-0.1-0.3c0.1-1.3,0-4.1-1.4-5.8c-0.7-0.8-1.9-0.9-3.8-0.9     c-0.7,0-1.5,0-2.3-0.1c-6.6-0.4-9.7-2.6-11.5-4.4c-0.4,1.5-1.7,5.5-1.8,7c0,0.3,0,0.7-0.1,1c-0.2,2.6-0.3,3.5-0.9,3.5     c0,0,0,0,0,0c-0.2,0-0.3-0.1-0.4-0.2c-0.7-0.8-1.2-1.2-1.5-1.5c-0.4-0.3-0.7-0.6-0.6-1.2c0.1-0.5-0.1-1.7-0.4-2.9     c-0.5-2.3-1.1-5.1-0.2-7.1c1-2.2,2.3-2.6,3.4-3.1c0.6-0.2,1.1-0.4,1.6-0.9c1.4-1.3,4.3-4,9.3-4c1.3,0,2.6,0.2,3.9,0.5     c2.6,0.6,5.1,2,7.1,3.7c1.7,1.5,2.9,3.1,3.1,4.2c0.3,2.5-0.1,4.6-0.4,6.3c-0.3,1.5-0.5,2.6-0.1,3.3c0.1,0.1,0.1,0.3,0,0.4     C149.7,357,149.3,357,149.2,357z M138.2,336.6c-4.7,0-7.5,2.6-8.8,3.8c-0.6,0.5-1.2,0.8-1.8,1c-1.1,0.4-2.1,0.8-3,2.7     c-0.8,1.7-0.2,4.4,0.2,6.6c0.3,1.4,0.5,2.5,0.4,3.2c0,0.2,0,0.2,0.4,0.5c0.3,0.3,0.8,0.7,1.5,1.5c0.2-0.5,0.2-1.9,0.3-2.7     c0-0.4,0-0.7,0.1-1c0.2-1.8,1.9-7.4,2-7.6c0-0.1,0.1-0.2,0.2-0.2c0.1,0,0.2,0,0.3,0.1c1.6,1.8,4.5,4.1,11.4,4.6     c0.8,0.1,1.6,0.1,2.3,0.1c1.9,0,3.4,0,4.3,1.1c1.4,1.7,1.7,4.2,1.6,5.7c0.4-0.4,1.1-1.1,1.7-1.8c-0.4-0.9-0.2-2.1,0.1-3.5     c0.3-1.7,0.7-3.7,0.4-6.1c-0.2-1.8-4.2-6-9.7-7.4C140.6,336.8,139.4,336.6,138.2,336.6z"
   id="path28985" />
		</g>
		<g
   id="g28991">
			<path
   class="st4"
   d="M130.6,343c0,0,0.1,0.1,0.2,0.1c0.1,0,0.1,0.1,0.2,0.2c0.1,0.1,0.2,0.1,0.3,0.2c0.1,0.1,0.2,0.2,0.3,0.3     c0.1,0.1,0.2,0.2,0.3,0.3c0.1,0.1,0.2,0.2,0.4,0.3c0.1,0.1,0.2,0.2,0.4,0.3c0.1,0.1,0.3,0.2,0.4,0.3c0.1,0.1,0.3,0.2,0.4,0.3     c0.1,0.1,0.2,0.2,0.4,0.2c0.1,0.1,0.2,0.1,0.3,0.2c0.1,0.1,0.2,0.1,0.3,0.2c0.1,0,0.2,0.1,0.2,0.1c0.1,0.1,0.2,0.1,0.2,0.1     s-0.1,0-0.2,0c-0.1,0-0.2,0-0.3,0c-0.1,0-0.2,0-0.4-0.1c-0.1,0-0.3-0.1-0.4-0.1c-0.1,0-0.3-0.1-0.4-0.2c-0.1-0.1-0.3-0.1-0.4-0.2     c-0.1-0.1-0.3-0.2-0.4-0.3c-0.1-0.1-0.3-0.2-0.4-0.3c-0.1-0.1-0.3-0.2-0.4-0.4c-0.1-0.1-0.2-0.2-0.3-0.4     c-0.1-0.1-0.2-0.2-0.2-0.4c-0.1-0.1-0.1-0.2-0.2-0.3c0-0.1-0.1-0.2-0.1-0.2C130.7,343.1,130.6,343,130.6,343z"
   id="path28989" />
		</g>
	</g>
<text
   xml:space="preserve"
   style="font-style:normal;font-variant:normal;font-weight:normal;font-stretch:normal;font-size:10.6667px;line-height:1.25;font-family:sans-serif;-inkscape-font-specification:'sans-serif, Normal';font-variant-ligatures:normal;font-variant-caps:normal;font-variant-numeric:normal;font-variant-east-asian:normal;fill:#000000;fill-opacity:1;stroke:none"
   x="176.20769"
   y="141.53847"
   id="text35305"><tspan
     sodipodi:role="line"
     id="tspan35779"
     x="176.20769"
     y="141.53847">Upvoted your team leadership skills</tspan></text><text
   xml:space="preserve"
   style="font-style:normal;font-variant:normal;font-weight:normal;font-stretch:normal;font-size:10.6667px;line-height:1.25;font-family:sans-serif;-inkscape-font-specification:'sans-serif, Normal';font-variant-ligatures:normal;font-variant-caps:normal;font-variant-numeric:normal;font-variant-east-asian:normal;fill:#000000;fill-opacity:1;stroke:none"
   x="175.44087"
   y="367.56589"
   id="text35305-9-3"><tspan
     sodipodi:role="line"
     id="tspan47629"
     x="175.44087"
     y="367.56589">Endoresed you Distributed Systems' </tspan><tspan
     sodipodi:role="line"
     id="tspan47631"
     x="175.44087"
     y="380.89926">knowledge</tspan></text></g>



<g
   id="g29029">
	<path
   class="st6"
   d="M77.3,121.7c-0.5,0-1.1-0.1-1.6-0.2c-1.6-0.4-3-1.5-3.8-2.9l-4.7-8.2c-0.8-1.4-1.1-3.1-0.6-4.7   c0.4-1.6,1.5-3,2.9-3.8l8.2-4.7c1.4-0.8,3.1-1.1,4.7-0.6c1.6,0.4,3,1.5,3.8,2.9l4.7,8.2c0.8,1.4,1.1,3.1,0.6,4.7   c-0.4,1.6-1.5,3-2.9,3.8l-8.2,4.7C79.4,121.5,78.4,121.7,77.3,121.7z M80.7,97.3c-0.9,0-1.8,0.2-2.6,0.7l-8.2,4.7   c-2.5,1.4-3.4,4.7-1.9,7.2l4.7,8.2c1.4,2.5,4.7,3.4,7.2,1.9l8.2-4.7c2.5-1.4,3.4-4.7,1.9-7.2l-4.7-8.2   C84.3,98.2,82.5,97.3,80.7,97.3z"
   id="path29027" />
</g>
<g
   id="g29033">
	<path
   class="st10"
   d="M444.5,350c-0.4,0-0.8-0.1-1.3-0.2c-1.2-0.3-2.3-1.1-2.9-2.3l-3.7-6.4c-0.6-1.1-0.8-2.4-0.5-3.7   c0.3-1.2,1.1-2.3,2.3-2.9l6.4-3.7c1.1-0.6,2.4-0.8,3.7-0.5c1.2,0.3,2.3,1.1,2.9,2.3l3.7,6.4c0.6,1.1,0.8,2.4,0.5,3.7   c-0.3,1.2-1.1,2.3-2.3,2.9l-6.4,3.7C446.2,349.8,445.4,350,444.5,350z M447.2,331c-0.7,0-1.4,0.2-2,0.5l-6.4,3.7   c-1.9,1.1-2.6,3.6-1.5,5.6l3.7,6.4c1.1,1.9,3.6,2.6,5.6,1.5l6.4-3.7c1.9-1.1,2.6-3.6,1.5-5.6l-3.7-6.4   C450,331.8,448.6,331,447.2,331z"
   id="path29031" />
</g>
<g
   id="g29037">
	<path
   class="st10"
   d="M453.5,372.3c-0.3,0-0.6,0-1-0.1c-0.9-0.3-1.7-0.9-2.2-1.7l-2.8-4.8c-0.5-0.9-0.6-1.8-0.4-2.8   c0.3-0.9,0.9-1.7,1.7-2.2l4.8-2.8c0.9-0.5,1.8-0.6,2.8-0.4c0.9,0.3,1.7,0.9,2.2,1.7l2.8,4.8c0.5,0.9,0.6,1.8,0.4,2.8   c-0.3,0.9-0.9,1.7-1.7,2.2l-4.8,2.8C454.8,372.1,454.1,372.3,453.5,372.3z M455.5,357.9c-0.5,0-1.1,0.1-1.5,0.4l-4.8,2.8   c-1.5,0.9-2,2.7-1.1,4.2l2.8,4.8c0.9,1.5,2.7,2,4.2,1.1l4.8-2.8c1.5-0.9,2-2.7,1.1-4.2l-2.8-4.8   C457.6,358.4,456.6,357.9,455.5,357.9z"
   id="path29035" />
</g>
<g
   id="g29041">
	<path
   class="st10"
   d="M53.2,77.3c-0.3,0-0.5,0-0.8-0.1c-0.8-0.2-1.4-0.7-1.8-1.4l-2.2-3.9c-0.4-0.7-0.5-1.5-0.3-2.2   c0.2-0.8,0.7-1.4,1.4-1.8l3.9-2.2c0.7-0.4,1.5-0.5,2.2-0.3c0.8,0.2,1.4,0.7,1.8,1.4l2.2,3.9c0.4,0.7,0.5,1.5,0.3,2.2   c-0.2,0.8-0.7,1.4-1.4,1.8l-3.9,2.2C54.2,77.1,53.7,77.3,53.2,77.3z M54.8,65.7c-0.4,0-0.8,0.1-1.2,0.3l-3.9,2.2   c-1.2,0.7-1.6,2.2-0.9,3.4l2.2,3.9c0.7,1.2,2.2,1.6,3.4,0.9l3.9-2.2c1.2-0.7,1.6-2.2,0.9-3.4L57,67C56.5,66.2,55.7,65.7,54.8,65.7z   "
   id="path29039" />
</g>
<g
   id="g29045">
	<path
   class="st6"
   d="M207.1,43l-7.7-10c-0.6-0.8-0.7-1.7-0.3-2.6c0.4-0.9,1.2-1.5,2.1-1.6l12.5-1.6c1-0.1,1.9,0.3,2.5,1   s0.7,1.7,0.3,2.6l-4.8,11.6c-0.4,0.9-1.2,1.5-2.1,1.6S207.6,43.8,207.1,43z M213.7,27.8l-12.5,1.6c-0.7,0.1-1.3,0.6-1.6,1.2   c-0.3,0.7-0.2,1.4,0.3,2l7.7,10c0.4,0.6,1.1,0.9,1.9,0.8c0.7-0.1,1.3-0.6,1.6-1.2l4.8-11.6c0.3-0.7,0.2-1.4-0.3-2   S214.5,27.7,213.7,27.8L213.7,27.8z"
   id="path29043" />
</g>
<g
   id="g29049">
	<path
   class="st6"
   d="M348,461.5l1.9-5.3c0.1-0.4,0.5-0.7,0.9-0.8s0.8,0.1,1.1,0.4l3.6,4.3c0.3,0.3,0.4,0.8,0.2,1.2   c-0.1,0.4-0.5,0.7-0.9,0.8l-5.5,1c-0.4,0.1-0.8-0.1-1.1-0.4S347.8,461.9,348,461.5z M355.3,460.4l-3.6-4.3   c-0.2-0.2-0.5-0.4-0.8-0.3c-0.3,0.1-0.6,0.3-0.7,0.6l-1.9,5.3c-0.1,0.3-0.1,0.6,0.2,0.9c0.2,0.2,0.5,0.4,0.8,0.3l5.5-1   c0.3-0.1,0.6-0.3,0.7-0.6S355.5,460.6,355.3,460.4L355.3,460.4z"
   id="path29047" />
</g>
<g
   id="g29055">
	<path
   class="st12"
   d="M389.9,26.3c-2.7,0.8-4.4,3.5-3.8,6.2l1.1,4.7c0.3,1.3,1.1,2.4,2.2,3c0.9,0.5,2,0.7,3.1,0.6   c0.4,0.5,0.9,0.9,1.4,1.2c1.2,0.7,2.5,0.8,3.8,0.4c2.7-0.8,4.4-3.5,3.8-6.2l-1.1-4.7c-0.3-1.3-1.1-2.4-2.2-3   c-0.9-0.5-2-0.7-3.1-0.6c-0.4-0.5-0.9-0.9-1.4-1.2C392.5,26.1,391.2,26,389.9,26.3"
   id="path29051" />
	<path
   class="st1"
   d="M399.6,37.7c-0.1,1.3-1,2.5-2.3,2.8c-0.8,0.2-1.6,0.1-2.3-0.3c-0.1-0.1-0.2-0.1-0.3-0.2l-0.2-0.1l0.2-0.1   c0.5-0.3,0.9-0.7,1.3-1.2l0.1-0.1l0.1,0.1c0.2,0.1,0.4,0.1,0.6,0c0.4-0.1,0.7-0.4,0.7-0.8c0-0.1,0-0.2,0-0.3l-1.1-4.7   c-0.1-0.2-0.2-0.4-0.4-0.5c-0.2-0.1-0.5-0.1-0.7-0.1c-0.4,0.1-0.7,0.4-0.7,0.8c0,0.1,0,0.2,0,0.3L395,35c0.1,0.3,0.1,0.6,0.1,0.9   c-0.1,1.3-1,2.5-2.3,2.8c-0.8,0.2-1.6,0.1-2.3-0.3c-0.7-0.4-1.2-1-1.3-1.8l-1.1-4.7c-0.1-0.3-0.1-0.6-0.1-0.9   c0.1-1.3,1-2.5,2.3-2.8c0.8-0.2,1.6-0.1,2.3,0.3c0.1,0.1,0.2,0.1,0.3,0.2l0.2,0.1l-0.2,0.1c-0.5,0.3-0.9,0.7-1.3,1.2l-0.1,0.1   l-0.1-0.1c-0.2-0.1-0.4-0.1-0.6,0c-0.4,0.1-0.7,0.4-0.7,0.8c0,0.1,0,0.2,0,0.3l1.1,4.7c0.1,0.2,0.2,0.4,0.4,0.5   c0.2,0.1,0.5,0.1,0.7,0.1c0.4-0.1,0.7-0.4,0.7-0.8c0-0.1,0-0.2,0-0.3l-0.4-1.8c-0.1-0.3-0.1-0.6-0.1-0.9c0.1-1.3,1-2.5,2.3-2.8   c0.8-0.2,1.6-0.1,2.3,0.3c0.7,0.4,1.2,1,1.3,1.8l1.1,4.7C399.6,37.1,399.6,37.4,399.6,37.7"
   id="path29053" />
</g>
<g
   id="g29059">
	<polygon
   class="st13"
   points="75,396.4 73.2,388.1 76,381.9 83.7,385.4 81.6,390 87.8,392.8 82.8,399.9  "
   id="polygon29057" />
</g>
<g
   id="g29063">
	<path
   class="st14"
   d="M250.5,458.9c-0.4-0.1-1.3,0.1-1.9,0.5c-0.3-0.6-0.8-1-1.6-1.2l-0.4-0.1l-0.1,0.4c-0.1,0.6,0,1.3,0.2,1.9   c0.1,0.2,0.3,0.6,0.7,0.8c-0.2,0.2-0.5,0.5-1.1,0.7l-10.6,4l0,0.1c0.1,0.7,0.8,2.6,2.6,3.6c1.3,0.8,2.9,0.8,4.7,0.2   c3.9-1.4,6-4.3,6.1-8.2c0.5-0.2,1.7-0.6,1.8-2c0,0,0-0.1,0-0.4l0-0.1L250.5,458.9L250.5,458.9z M242.2,457.1l-1.6,0.6l0.6,1.5   l1.6-0.6L242.2,457.1L242.2,457.1z M242.8,459l-1.6,0.6l0.6,1.5l1.6-0.6L242.8,459L242.8,459z M240.9,459.7l-1.6,0.6l0.6,1.5   l1.6-0.6L240.9,459.7L240.9,459.7z M239,460.4l-1.6,0.6l0.6,1.5l1.6-0.6L239,460.4L239,460.4z M237.8,462.9l-1.6,0.6l0.6,1.5   l1.6-0.6L237.8,462.9L237.8,462.9z M239.7,462.2l-1.6,0.6l0.6,1.5l1.6-0.6L239.7,462.2L239.7,462.2z M241.6,461.5l-1.6,0.6l0.6,1.5   l1.6-0.6L241.6,461.5L241.6,461.5z M243.5,460.8l-1.6,0.6l0.6,1.5l1.6-0.6L243.5,460.8L243.5,460.8z M245.4,460.1l-1.6,0.6l0.6,1.5   l1.6-0.6L245.4,460.1L245.4,460.1z"
   id="path29061" />
</g>
</svg>
