<?xml version="1.0" encoding="UTF-8" standalone="no"?>
<!-- Generator: Adobe Illustrator 23.0.1, SVG Export Plug-In . SVG Version: 6.00 Build 0)  -->

<svg
   version="1.1"
   id="Layer_1"
   x="0px"
   y="0px"
   viewBox="0 0 500 500"
   style="enable-background:new 0 0 500 500;"
   xml:space="preserve"
   sodipodi:docname="feature-1.svg"
   inkscape:version="1.1.1 (c3084ef, 2021-09-22)"
   xmlns:inkscape="http://www.inkscape.org/namespaces/inkscape"
   xmlns:sodipodi="http://sodipodi.sourceforge.net/DTD/sodipodi-0.dtd"
   xmlns:xlink="http://www.w3.org/1999/xlink"
   xmlns="http://www.w3.org/2000/svg"
   xmlns:svg="http://www.w3.org/2000/svg"><defs
   id="defs17355"><linearGradient
     inkscape:collect="always"
     id="linearGradient5625"><stop
       style="stop-color:#000000;stop-opacity:1;"
       offset="0"
       id="stop5627" /><stop
       style="stop-color:#000000;stop-opacity:0"
       offset="1"
       id="stop5629" /></linearGradient><radialGradient
     inkscape:collect="always"
     xlink:href="#linearGradient5625"
     id="radialGradient5631"
     cx="367.99158"
     cy="280.36646"
     fx="367.99158"
     fy="280.36646"
     r="368.71729"
     gradientTransform="matrix(0.30406823,-0.10528244,3.8564095,11.137765,-825.1108,-2803.5461)"
     gradientUnits="userSpaceOnUse" /><radialGradient
     inkscape:collect="always"
     xlink:href="#linearGradient5625"
     id="radialGradient5757"
     gradientUnits="userSpaceOnUse"
     gradientTransform="matrix(0.30406823,-0.10528244,3.8564095,11.137765,-825.1108,-2803.5461)"
     cx="367.99158"
     cy="280.36646"
     fx="367.99158"
     fy="280.36646"
     r="368.71729" /></defs><sodipodi:namedview
   id="namedview17353"
   pagecolor="#ffffff"
   bordercolor="#666666"
   borderopacity="1.0"
   inkscape:pageshadow="2"
   inkscape:pageopacity="0.0"
   inkscape:pagecheckerboard="0"
   showgrid="false"
   inkscape:zoom="1.1773833"
   inkscape:cx="407.25905"
   inkscape:cy="248.0076"
   inkscape:window-width="1440"
   inkscape:window-height="872"
   inkscape:window-x="0"
   inkscape:window-y="28"
   inkscape:window-maximized="0"
   inkscape:current-layer="XMLID_1529_" />
<style
   type="text/css"
   id="style17026">
	.st0{opacity:0.1;}
	.st1{fill:#FFFFFF;}
	.st2{fill:#E2E2E2;}
	.st3{fill:#FFCBB7;}
	.st4{fill:#5B5B74;}
	.st5{fill:#FCD7CD;}
	.st6{fill:#F39200;}
	.st7{fill:#4FC1EA;}
	.st8{fill:#68BB88;}
	.st9{fill:#7C4DFF;}
	.st10{fill:#F7F7F7;}
	.st11{opacity:0.3;fill:#444444;enable-background:new    ;}
	.st12{fill:#FF3E00;}
	.st13{fill:#00D1B2;}
	.st14{fill:#2396ED;}
</style>
<g
   class="st0"
   id="g17030"
   style="opacity:0.27652733">
	<path
   d="M250,189c33.6,0,61,27.4,61,61s-27.4,61-61,61s-61-27.4-61-61S216.4,189,250,189 M250,188c-34.2,0-62,27.8-62,62   s27.8,62,62,62s62-27.8,62-62S284.2,188,250,188L250,188z"
   id="path17028" />
</g>
<g
   class="st0"
   id="g17034"
   style="opacity:0.2733119">
	<path
   d="M250,117c35.5,0,68.9,13.8,94,39c25.1,25.1,39,58.5,39,94s-13.8,68.9-39,94c-25.1,25.1-58.5,39-94,39s-68.9-13.8-94-39   c-25.1-25.1-39-58.5-39-94s13.8-68.9,39-94C181.1,130.8,214.5,117,250,117 M250,116c-74,0-134,60-134,134s60,134,134,134   s134-60,134-134S324,116,250,116L250,116z"
   id="path17032" />
</g>
<g
   class="st0"
   id="g17038"
   style="opacity:0.32475884">
	<path
   d="M250,50c27,0,53.2,5.3,77.8,15.7c23.8,10.1,45.2,24.5,63.6,42.9s32.8,39.8,42.9,63.6C444.7,196.8,450,223,450,250   s-5.3,53.2-15.7,77.8c-10.1,23.8-24.5,45.2-42.9,63.6s-39.8,32.8-63.6,42.9C303.2,444.7,277,450,250,450s-53.2-5.3-77.8-15.7   c-23.8-10.1-45.2-24.5-63.6-42.9s-32.8-39.8-42.9-63.6C55.3,303.2,50,277,50,250s5.3-53.2,15.7-77.8c10.1-23.8,24.5-45.2,42.9-63.6   s39.8-32.8,63.6-42.9C196.8,55.3,223,50,250,50 M250,49C139,49,49,139,49,250s90,201,201,201s201-90,201-201S361,49,250,49L250,49z   "
   id="path17036" />
</g>
<g
   id="g17048">
	
		
	<g
   id="g17046">
		<circle
   class="st1"
   cx="115.5"
   cy="97.5"
   r="39"
   id="circle17042" />
		<path
   class="st2"
   d="M115.5,59c21.2,0,38.5,17.3,38.5,38.5S136.7,136,115.5,136S77,118.7,77,97.5S94.3,59,115.5,59 M115.5,58    C93.7,58,76,75.7,76,97.5S93.7,137,115.5,137S155,119.3,155,97.5S137.3,58,115.5,58L115.5,58z"
   id="path17044" />
	</g>
</g>

<g
   id="g17068">
	
		
	<g
   id="g17066">
		<circle
   class="st1"
   cx="270.5"
   cy="54.5"
   r="25"
   id="circle17062" />
		<path
   class="st2"
   d="M270.5,30C284,30,295,41,295,54.5S284,79,270.5,79S246,68,246,54.5S257,30,270.5,30 M270.5,29    C256.4,29,245,40.4,245,54.5S256.4,80,270.5,80S296,68.6,296,54.5S284.6,29,270.5,29L270.5,29z"
   id="path17064" />
	</g>
</g>
<g
   id="g17078">
	
		
	<g
   id="g17076">
		<circle
   class="st1"
   cx="197.5"
   cy="228.5"
   r="32"
   id="circle17072" />
		<path
   class="st2"
   d="M197.5,197c17.4,0,31.5,14.1,31.5,31.5S214.9,260,197.5,260S166,245.9,166,228.5S180.1,197,197.5,197     M197.5,196c-17.9,0-32.5,14.6-32.5,32.5s14.6,32.5,32.5,32.5s32.5-14.6,32.5-32.5S215.4,196,197.5,196L197.5,196z"
   id="path17074" />
	</g>
</g>

<g
   id="g17098">
	
		
	<g
   id="g17096">
		<circle
   class="st1"
   cx="115.5"
   cy="400.5"
   r="39"
   id="circle17092" />
		<path
   class="st2"
   d="M115.5,362c21.2,0,38.5,17.3,38.5,38.5S136.7,439,115.5,439S77,421.7,77,400.5S94.3,362,115.5,362 M115.5,361    C93.7,361,76,378.7,76,400.5S93.7,440,115.5,440s39.5-17.7,39.5-39.5S137.3,361,115.5,361L115.5,361z"
   id="path17094" />
	</g>
</g>

<g
   id="g17188">
	<g
   id="g17118">
		<g
   id="g17112">
			<path
   class="st3"
   d="M134.4,98.1c0,2-1.3,3.6-2.9,3.6s-2.9-1.6-2.9-3.6s1.3-2.9,2.9-2.9S134.4,96.1,134.4,98.1z"
   id="path17110" />
		</g>
		<g
   id="g17116">
			<path
   class="st4"
   d="M131.6,102.1c-1.8,0-3.3-1.8-3.3-4c0-2.1,1.3-3.4,3.3-3.4s3.3,1.3,3.3,3.4     C134.9,100.3,133.4,102.1,131.6,102.1z M131.6,95.6c-1.5,0-2.4,0.9-2.4,2.5c0,1.7,1.1,3.1,2.4,3.1s2.4-1.4,2.4-3.1     C134,96.5,133.1,95.6,131.6,95.6z"
   id="path17114" />
		</g>
	</g>
	<g
   id="g17128">
		<g
   id="g17122">
			<path
   class="st3"
   d="M102.2,98.1c0,2-1.3,3.6-2.9,3.6s-2.9-1.6-2.9-3.6s1.3-2.9,2.9-2.9C100.9,95.1,102.2,96.1,102.2,98.1z"
   id="path17120" />
		</g>
		<g
   id="g17126">
			<path
   class="st4"
   d="M99.3,102.1c-1.8,0-3.3-1.8-3.3-4c0-2.1,1.3-3.4,3.3-3.4s3.3,1.3,3.3,3.4     C102.6,100.3,101.1,102.1,99.3,102.1z M99.3,95.6c-1.5,0-2.4,0.9-2.4,2.5c0,1.7,1.1,3.1,2.4,3.1s2.4-1.4,2.4-3.1     C101.7,96.5,100.8,95.6,99.3,95.6z"
   id="path17124" />
		</g>
	</g>
	<g
   id="g17132">
		<path
   class="st5"
   d="M131.7,92.3c0,19.2-6.7,27.5-16.2,27.5S99,112.1,99,92.3c0-11.9,6.9-14.4,16.5-14.4S131.7,80.5,131.7,92.3z"
   id="path17130" />
	</g>
	<g
   id="g17136">
		<path
   class="st4"
   d="M115.4,120.3c-5.2,0-9.3-2.2-12.2-6.5c-3.1-4.7-4.7-11.9-4.7-21.4c0-13.1,8.6-14.8,17-14.8    c8.7,0,16.7,1.8,16.7,14.8C132.1,110.4,126.2,120.3,115.4,120.3z M115.4,78.4c-5.4,0-9.1,0.8-11.6,2.7c-3,2.2-4.5,5.9-4.5,11.3    c0,22.4,8.7,27,16.1,27c10.2,0,15.8-9.6,15.8-27C131.2,80.8,124.9,78.4,115.4,78.4z"
   id="path17134" />
	</g>
	<g
   id="g17140">
		<path
   class="st6"
   d="M115.1,101.9c6.4,0,7.9,4,10.8,4c3,0,5-4.3,5-4.3s1.9,21.9-15.3,21.9s-15.9-21.7-15.9-21.7s0.8,4,4.5,4    S108.2,101.9,115.1,101.9z"
   id="path17138" />
	</g>
	<g
   id="g17144">
		<path
   class="st4"
   d="M115.7,124c-4.5,0-8.2-1.5-11-4.4c-3.2-3.3-4.5-8-5-11.3c-0.6-3.6-0.4-6.3-0.4-6.4c0-0.2,0.2-0.4,0.4-0.4    c0.2,0,0.4,0.1,0.5,0.4c0,0.1,0.8,3.6,4,3.6c1.4,0,2.3-0.6,3.3-1.4c1.5-1.1,3.4-2.5,7.6-2.5c4,0,6.1,1.5,7.8,2.6    c1.1,0.8,2,1.4,3,1.4c2.7,0,4.6-4,4.6-4c0.1-0.2,0.3-0.3,0.5-0.2c0.2,0,0.4,0.2,0.4,0.4c0,0.1,0.2,2.9-0.2,6.6    c-0.5,3.4-1.6,8.1-4.7,11.5C123.8,122.5,120.2,124,115.7,124z M100.2,104.1c0.1,3.5,1,10.5,5.2,14.9c2.6,2.7,6,4.1,10.3,4.1    c4.2,0,7.6-1.4,10.1-4.1c4.4-4.8,4.8-12.6,4.8-15.9c-0.9,1.3-2.6,3.2-4.7,3.2c-1.4,0-2.4-0.7-3.6-1.5c-1.6-1.1-3.6-2.5-7.3-2.5    c-3.8,0-5.5,1.3-7,2.4c-1.1,0.8-2.2,1.6-3.9,1.6C102.2,106.3,100.9,105.2,100.2,104.1z"
   id="path17142" />
	</g>
	<g
   id="g17154">
		<g
   id="g17148">
			<path
   class="st3"
   d="M121.1,109.2c-0.7,2.1-3.1,2.1-5.7,2.1s-5.6,0.3-6.2-1.9c-0.7-2.4,3.6-2.7,6.2-2.7S121.8,106.9,121.1,109.2z     "
   id="path17146" />
		</g>
		<g
   id="g17152">
			<path
   class="st4"
   d="M113.9,111.8c-2.2,0-4.5-0.2-5.1-2.2c-0.2-0.6-0.1-1.2,0.3-1.7c0.8-1.1,2.8-1.5,6.4-1.5c2.4,0,5,0.2,5.9,1.4     c0.2,0.3,0.5,0.9,0.2,1.7c-0.8,2.4-3.4,2.4-5.9,2.4h-0.2c-0.3,0-0.5,0-0.8,0C114.4,111.8,114.1,111.8,113.9,111.8z M115.4,107.2     c-4,0-5.3,0.6-5.7,1.2c-0.2,0.2-0.2,0.5-0.1,0.9c0.4,1.3,1.9,1.6,4.2,1.6c0.3,0,0.5,0,0.8,0s0.5,0,0.8,0h0.2c2.8,0,4.5-0.1,5-1.8     c0.1-0.5,0-0.7-0.1-0.9C119.8,107.2,116.5,107.2,115.4,107.2z"
   id="path17150" />
		</g>
	</g>
	<g
   id="g17158">
		<path
   class="st4"
   d="M105.2,96.8c-0.1,0-0.2-0.1-0.3-0.1c-0.2-0.2-0.2-0.5,0-0.6c0.7-0.6,1.6-0.9,2.5-0.8c0.7,0.1,1.3,0.4,1.7,0.9    c0.1,0.2,0.1,0.5-0.1,0.6s-0.5,0.1-0.6-0.1c-0.2-0.3-0.6-0.5-1-0.5c-0.6-0.1-1.3,0.2-1.8,0.6C105.4,96.7,105.3,96.8,105.2,96.8z"
   id="path17156" />
	</g>
	<g
   id="g17162">
		<path
   class="st4"
   d="M125.4,96.8c-0.1,0-0.2,0-0.3-0.1c-0.5-0.4-1.2-0.7-1.9-0.6c-0.6,0-1,0.2-1.3,0.6c-0.2,0.2-0.5,0.2-0.6,0    c-0.2-0.2-0.2-0.5,0-0.6c0.4-0.5,1.1-0.8,1.9-0.9c0.9-0.1,1.9,0.3,2.5,0.8c0.2,0.2,0.2,0.5,0,0.6    C125.6,96.7,125.5,96.8,125.4,96.8z"
   id="path17160" />
	</g>
	<g
   id="g17166">
		<path
   class="st6"
   d="M111.1,68.8c6.1-1.6,12.4,2.5,15.4,6.3c2.5,3.1,5.4,2.3,7.6,5.7s0.8,9.8-0.9,12.5c-1.6,2.7-1.6,2.7-1.6,2.7    s-2.1-8.4-5.4-9.8c-3.2-1.4-3.2,2-10.4,1.4c-7.2-0.6-9.7-4.8-11.4-4.3c-1.7,0.6-1.5,3.7-3,6.8C99.9,93.3,99,96,99,96    s-4.8-9.2-2.9-14.4c1.5-4,4.3-2.6,6.3-5.1C104.5,74,106.8,70,111.1,68.8z"
   id="path17164" />
	</g>
	<g
   id="g17170">
		<path
   class="st4"
   d="M99,96.5c-0.2,0-0.3-0.1-0.4-0.2c-0.2-0.4-4.9-9.4-2.9-14.8c0.9-2.5,2.4-3,3.8-3.6c0.9-0.4,1.8-0.7,2.6-1.7    c0.3-0.4,0.6-0.8,0.9-1.2c1.9-2.5,4.2-5.7,8-6.7c0.9-0.3,1.9-0.4,2.9-0.4c5.2,0,10.3,3.4,12.9,6.8c1.1,1.4,2.3,2,3.5,2.5    c1.4,0.6,2.8,1.3,4.1,3.2c2.4,3.7,0.8,10.3-0.9,13l-1.6,2.7c-0.1,0.2-0.3,0.2-0.5,0.2s-0.3-0.2-0.4-0.3c-0.6-2.3-2.6-8.4-5.1-9.5    c-0.5-0.2-0.9-0.3-1.3-0.3c-0.6,0-1.1,0.2-1.8,0.6c-1.1,0.5-2.7,1.3-5.6,1.3c-0.5,0-1,0-1.6-0.1c-4.5-0.4-7.2-2.1-9-3.3    c-1-0.7-1.7-1.1-2.2-1c-0.8,0.3-1.1,1.4-1.5,2.9c-0.3,1.1-0.6,2.4-1.2,3.7c-1.5,3.1-2.4,5.8-2.4,5.8C99.4,96.4,99.2,96.5,99,96.5    C99.1,96.5,99,96.5,99,96.5z M124.7,85.4c0.5,0,1,0.1,1.6,0.4c2.7,1.2,4.6,6.8,5.3,9.1l1.1-1.8c1.5-2.4,3.1-8.7,0.9-12.1    c-1.1-1.7-2.4-2.3-3.7-2.9s-2.6-1.2-3.9-2.8c-2.4-3.1-7.3-6.5-12.2-6.5c-0.9,0-1.8,0.1-2.7,0.4c-3.5,0.9-5.7,3.9-7.5,6.3    c-0.3,0.4-0.6,0.8-0.9,1.2c-0.9,1.2-2,1.6-3,2c-1.3,0.5-2.4,0.9-3.2,3c-1.5,4,1.2,10.6,2.4,13.1c0.4-1.1,1.1-2.9,2-4.9    c0.6-1.2,0.9-2.4,1.2-3.5c0.4-1.7,0.8-3.2,2.1-3.6c0.2,0,0.3-0.1,0.5-0.1c0.7,0,1.5,0.5,2.5,1.2c1.7,1.1,4.3,2.8,8.6,3.2    c0.5,0,1,0.1,1.5,0.1c2.7,0,4.1-0.7,5.2-1.2C123.3,85.7,124,85.4,124.7,85.4z"
   id="path17168" />
	</g>
	<g
   id="g17174">
		<path
   class="st4"
   d="M115.2,103c-0.2,0-0.3,0-0.5,0c-1.2-0.2-1.7-1.1-1.7-1.1c-0.1-0.2,0-0.5,0.2-0.6s0.5,0,0.6,0.2    c0,0,0.3,0.5,1,0.6s1.3-0.1,1.5-0.4c0.2-0.2,0.1-0.6-0.1-0.9c-0.6-1-1.7-4.4-1.4-5.6c0.1-0.2,0.3-0.4,0.6-0.3    c0.2,0.1,0.4,0.3,0.3,0.6c-0.2,0.8,0.7,3.9,1.3,4.9c0.4,0.6,0.4,1.3,0.1,1.9C116.7,102.7,116.1,103,115.2,103z"
   id="path17172" />
	</g>
	<g
   id="g17178">
		<path
   class="st4"
   d="M115.3,110.1c-1.3,0-2.3-0.5-2.9-1.2c-0.1-0.2-0.1-0.5,0.1-0.6s0.5-0.1,0.6,0.1c0.4,0.5,1.2,0.8,2.1,0.8l0,0    c1.1,0,2.2-0.4,2.6-1c0.1-0.2,0.4-0.3,0.6-0.1c0.2,0.1,0.3,0.4,0.1,0.6C117.9,109.6,116.4,110.1,115.3,110.1L115.3,110.1z"
   id="path17176" />
	</g>
	<g
   id="g17182">
		<path
   class="st4"
   d="M105.8,79.9c0,0,0.1,0.1,0.3,0.2c0.1,0.1,0.2,0.1,0.3,0.2c0.1,0.1,0.2,0.2,0.4,0.3c0.1,0.1,0.3,0.2,0.4,0.3    c0.2,0.1,0.3,0.2,0.5,0.3c0.2,0.1,0.4,0.2,0.5,0.3c0.2,0.1,0.4,0.2,0.5,0.3c0.2,0.1,0.4,0.2,0.5,0.3c0.2,0.1,0.4,0.2,0.5,0.3    c0.1,0.1,0.2,0.1,0.3,0.2c0.1,0,0.2,0.1,0.3,0.1c0.2,0.1,0.3,0.2,0.5,0.3c0.1,0.1,0.3,0.2,0.4,0.2c0.1,0.1,0.2,0.1,0.3,0.2    c0.2,0.1,0.3,0.2,0.3,0.2s-0.1,0-0.3,0c-0.1,0-0.2,0-0.4,0c-0.1,0-0.3,0-0.5-0.1c-0.2,0-0.4-0.1-0.5-0.1s-0.2-0.1-0.3-0.1    c-0.1,0-0.2-0.1-0.3-0.1c-0.2-0.1-0.4-0.2-0.6-0.3c-0.2-0.1-0.4-0.2-0.6-0.3c-0.2-0.1-0.4-0.3-0.6-0.4s-0.4-0.3-0.5-0.4    c-0.2-0.2-0.3-0.3-0.4-0.4s-0.3-0.3-0.4-0.4s-0.2-0.3-0.3-0.4c-0.1-0.1-0.1-0.2-0.2-0.3C105.8,80,105.8,79.9,105.8,79.9z"
   id="path17180" />
	</g>
	<g
   id="g17186">
		<path
   class="st4"
   d="M129.2,86.4c0,0-0.1-0.1-0.1-0.2S129,86.1,129,86s-0.1-0.2-0.2-0.3c-0.1-0.1-0.1-0.2-0.2-0.3    c-0.1-0.1-0.1-0.2-0.2-0.3c-0.1-0.1-0.1-0.2-0.2-0.4c-0.1-0.1-0.1-0.2-0.2-0.4c-0.1-0.1-0.1-0.2-0.2-0.4c-0.1-0.1-0.1-0.2-0.2-0.3    c-0.1-0.1-0.1-0.2-0.2-0.3c-0.1-0.1-0.1-0.2-0.2-0.3c-0.1-0.1-0.1-0.2-0.2-0.3c-0.1-0.1-0.1-0.1-0.1-0.2c-0.1-0.1-0.1-0.2-0.1-0.2    s0.1,0,0.2,0.1c0.1,0,0.2,0,0.2,0.1c0,0,0.1,0,0.1,0.1l0.1,0.1c0.1,0.1,0.2,0.1,0.3,0.2c0.1,0.1,0.2,0.2,0.3,0.3    c0.1,0.1,0.2,0.2,0.3,0.4c0.1,0.1,0.2,0.3,0.3,0.4c0.1,0.3,0.3,0.6,0.4,0.8c0,0.1,0.1,0.3,0.1,0.4s0,0.3,0,0.4c0,0.2,0,0.4,0,0.6    C129.2,86.3,129.2,86.4,129.2,86.4z"
   id="path17184" />
	</g>
</g>
<g
   id="g17242">
	<g
   id="g17192">
		<path
   class="st5"
   d="M354.3,200.8c-6-2.1-8.5-8.2-10.7-16.6c-1.3-4.9-1.8-8.2-1.8-14.4c0-14.7,7.6-20.1,19.7-20.1    s20.3,3.1,20.3,17.8c0,22.1-7.2,35-20.3,35"
   id="path17190" />
	</g>
	<g
   id="g17196">
		<path
   class="st4"
   d="M361.5,203.1c-0.3,0-0.5-0.2-0.5-0.5s0.2-0.5,0.5-0.5c12.5,0,19.7-12.6,19.7-34.5c0-14.3-7.9-17.3-19.7-17.3    c-6.3,0-10.9,1.4-14,4.4c-3.4,3.2-5.1,8.3-5.1,15.2c0,6.2,0.6,9.5,1.8,14.2c3,11.5,6.2,14.8,10.3,16.2c0.3,0.1,0.4,0.4,0.3,0.7    s-0.4,0.4-0.7,0.3c-6-2.1-8.7-8-11-16.9c-1.3-4.8-1.9-8.2-1.9-14.5c0-13.9,6.6-20.7,20.3-20.7c10.8,0,20.8,2.2,20.8,18.4    C382.3,190.2,374.7,203.1,361.5,203.1z"
   id="path17194" />
	</g>
	<g
   id="g17200">
		<path
   class="st4"
   d="M361.7,183.6c-0.2,0-0.4,0-0.7,0c-1.5-0.2-2.1-1.4-2.1-1.4c-0.1-0.3,0-0.6,0.2-0.7c0.3-0.1,0.6,0,0.7,0.2    c0,0,0.4,0.7,1.3,0.9c0.9,0.1,1.6-0.1,1.9-0.5c0.2-0.3,0.2-0.8-0.1-1.2c-0.8-1.3-2.2-5.7-1.8-7.2c0.1-0.3,0.4-0.5,0.7-0.4    c0.3,0.1,0.5,0.4,0.4,0.7c-0.3,1,0.8,5.1,1.7,6.4c0.5,0.8,0.5,1.7,0.1,2.4C363.6,183.3,362.8,183.6,361.7,183.6z"
   id="path17198" />
	</g>
	<g
   id="g17204">
		<path
   class="st4"
   d="M350.8,173.7c-0.1,0-0.3,0-0.4-0.1c-0.2-0.2-0.2-0.5,0-0.8c0.7-0.8,1.7-1.1,2.6-1.1c0.8,0.1,1.5,0.5,1.9,1.1    c0.2,0.3,0.1,0.6-0.2,0.7c-0.3,0.2-0.6,0.1-0.7-0.2c-0.2-0.3-0.6-0.6-1-0.6c-0.6-0.1-1.3,0.2-1.8,0.7    C351.1,173.7,351,173.7,350.8,173.7z"
   id="path17202" />
	</g>
	<g
   id="g17208">
		<path
   class="st4"
   d="M372.2,173.7c-0.1,0-0.3-0.1-0.4-0.2c-0.5-0.5-1.2-0.8-1.9-0.7c-0.6,0-1.1,0.3-1.4,0.7    c-0.2,0.2-0.5,0.3-0.8,0.1c-0.2-0.2-0.3-0.5-0.1-0.8c0.5-0.6,1.3-1,2.2-1.1c1-0.1,2,0.3,2.7,1.1c0.2,0.2,0.2,0.6,0,0.8    C372.4,173.7,372.3,173.7,372.2,173.7z"
   id="path17206" />
	</g>
	<g
   id="g17212">
		<path
   class="st4"
   d="M361.2,190.4c-1.4,0-2.6-0.5-3.1-1.4c-0.2-0.2-0.1-0.6,0.1-0.8s0.6-0.1,0.8,0.1c0.4,0.6,1.3,0.9,2.4,0.9    c1.2,0,2.3-0.5,2.7-1.2c0.1-0.3,0.5-0.3,0.7-0.2c0.3,0.2,0.3,0.5,0.2,0.7c-0.6,1-2,1.6-3.6,1.7    C361.4,190.4,361.3,190.4,361.2,190.4z"
   id="path17210" />
	</g>
	<g
   id="g17222">
		<g
   id="g17216">
			<path
   class="st3"
   d="M343.6,182.6c-2.8-0.2-4.4-3.1-4.2-5.5c0.3-2.4,2.8-3,4.7-2.5"
   id="path17214" />
		</g>
		<g
   id="g17220">
			<path
   class="st4"
   d="M343.6,183.2C343.6,183.2,343.5,183.2,343.6,183.2c-1.4-0.1-2.5-0.7-3.4-1.8c-1-1.2-1.5-2.8-1.3-4.3     c0.1-1.1,0.6-1.9,1.4-2.5c1-0.7,2.5-0.9,3.9-0.5c0.3,0.1,0.5,0.4,0.4,0.7s-0.4,0.5-0.7,0.4c-1.1-0.3-2.2-0.2-3,0.3     c-0.6,0.4-0.9,1-1,1.7c-0.1,1.2,0.3,2.6,1.1,3.5c0.5,0.6,1.3,1.3,2.6,1.4c0.3,0,0.5,0.3,0.5,0.6     C344.1,182.9,343.9,183.2,343.6,183.2z"
   id="path17218" />
		</g>
	</g>
	<g
   id="g17232">
		<g
   id="g17226">
			<path
   class="st3"
   d="M379.9,182.5c2.9,0.2,4.9-2.6,5-5s-2.3-3.4-4.3-3.2"
   id="path17224" />
		</g>
		<g
   id="g17230">
			<path
   class="st4"
   d="M380.2,183.1c-0.1,0-0.2,0-0.4,0c-0.3,0-0.5-0.3-0.5-0.6s0.3-0.5,0.6-0.5c1.2,0.1,2.1-0.5,2.7-0.9     c1-0.9,1.7-2.2,1.7-3.6c0-0.7-0.2-1.3-0.7-1.8c-0.7-0.6-1.8-1-3-0.8c-0.3,0-0.6-0.2-0.6-0.5s0.2-0.6,0.5-0.6     c1.5-0.2,2.9,0.2,3.8,1.1c0.7,0.7,1.1,1.6,1,2.7c-0.1,1.6-0.9,3.3-2.1,4.3C382.4,182.7,381.4,183.1,380.2,183.1z"
   id="path17228" />
		</g>
	</g>
	<g
   id="g17236">
		<path
   class="st7"
   d="M345,175.2c-2.5,5.8,2.1,20.9,3,21.6c3.1,2.5-13.7-1.9-15.9-7.6c-3.2-8.3,6.8-33.1,14.7-37.4    c2.5-1.3,9.4-9,20.5-5.4c10.2,3.3,15.8,7.9,19.8,16.2s8.7,25.1,5,29.1c-3.6,4-19.2,7.2-17.1,3.6c3.8-6.8,2.4-18.9,2.4-23.9    c0-4.7-7.1-5.1-12.9-7c-6.5-2.2-14-5-14-5S347.4,169.8,345,175.2z"
   id="path17234" />
	</g>
	<g
   id="g17240">
		<path
   class="st4"
   d="M347.8,198c-2.7,0-14.3-3.7-16.2-8.6c-1.8-4.7,0.4-13.7,3.2-20.6c4.2-10.4,8.8-15.9,11.8-17.5    c0.4-0.2,0.9-0.6,1.6-1.1c2.6-2,7.1-5.3,13.4-5.3c2,0,4,0.3,6,1c10.3,3.3,16.1,8.1,20.1,16.5c2.1,4.5,4.3,10.9,5.4,16.3    c1,4.8,1.8,11-0.5,13.5c-2.7,3-11.2,5.3-15.3,5.3l0,0c-1.5,0-2.4-0.3-2.8-0.9c-0.2-0.3-0.3-0.8,0.1-1.5c3-5.4,2.7-14.3,2.4-20.2    c-0.1-1.4-0.1-2.5-0.1-3.5c0-3.2-3.9-4.2-8.3-5.3c-1.4-0.4-2.9-0.7-4.2-1.2c-5.4-1.8-11.7-4.1-13.5-4.8    c-0.7,2.2-3.2,10.7-5.3,15.3c-2.4,5.4,2,20,2.9,21c0.2,0.1,0.7,0.6,0.5,1.1C348.7,198,348,198,347.8,198z M361.5,146    c-5.9,0-10.2,3.2-12.7,5.1c-0.7,0.5-1.3,0.9-1.7,1.2c-3.5,1.9-8,8.6-11.3,16.9c-3.4,8.4-4.6,16.2-3.2,19.8    c1.6,4,11.7,7.7,14.9,7.9c-0.8-1.2-2-5.4-2.8-9c-0.9-4.2-1.6-9.8-0.2-13c2.3-5.3,5.3-15.7,5.4-15.8c0-0.1,0.1-0.3,0.3-0.3    c0.1-0.1,0.3-0.1,0.4,0c0.1,0,7.6,2.9,14,5c1.3,0.4,2.8,0.8,4.2,1.2c4.7,1.2,9.2,2.4,9.2,6.4c0,0.9,0,2.1,0.1,3.4    c0.3,6,0.6,15.1-2.5,20.8c-0.1,0.2-0.1,0.3-0.1,0.4c0.1,0.1,0.6,0.4,1.8,0.4l0,0c4.3,0,12.2-2.5,14.5-5c3.2-3.6-0.8-19.5-5.1-28.5    c-3.9-8.2-9.4-12.7-19.5-15.9C365.2,146.3,363.3,146,361.5,146z"
   id="path17238" />
	</g>
</g>
<g
   id="g17300">
	<g
   id="g17246">
		<path
   class="st5"
   d="M108.8,425c-5.4-1.9-7.6-7.3-9.6-14.9c-1.2-4.4-1.7-7.4-1.7-12.9c0-13.2,6.8-18.1,17.7-18.1s18.2,2.8,18.2,16    c0,19.8-6.5,31.5-18.2,31.5"
   id="path17244" />
	</g>
	<g
   id="g17250">
		<path
   class="st4"
   d="M115.3,427c-0.3,0-0.5-0.2-0.5-0.5s0.2-0.5,0.5-0.5c11.3,0,17.7-11.3,17.7-31c0-12.9-7.1-15.5-17.7-15.5    c-5.6,0-9.8,1.3-12.6,4c-3.1,2.9-4.6,7.5-4.6,13.7c0,5.6,0.5,8.6,1.6,12.8c2.7,10.4,5.6,13.3,9.3,14.6c0.3,0.1,0.4,0.4,0.3,0.6    c-0.1,0.3-0.4,0.4-0.6,0.3c-5.4-1.9-7.8-7.2-9.9-15.2c-1.1-4.3-1.7-7.4-1.7-13.1c0-12.5,6-18.6,18.2-18.6c9.7,0,18.7,2,18.7,16.5    C134,415.4,127.2,427,115.3,427z"
   id="path17248" />
	</g>
	<g
   id="g17254">
		<path
   class="st4"
   d="M115.5,409.5c-0.2,0-0.4,0-0.6,0c-1.3-0.2-1.9-1.2-1.9-1.3c-0.1-0.2,0-0.5,0.2-0.7c0.2-0.1,0.5,0,0.7,0.2    c0,0,0.4,0.7,1.2,0.8c0.8,0.1,1.5-0.1,1.8-0.5c0.2-0.3,0.2-0.7-0.1-1.1c-0.7-1.2-2-5.1-1.6-6.5c0.1-0.3,0.3-0.4,0.6-0.3    c0.3,0.1,0.4,0.3,0.3,0.6c-0.3,0.9,0.8,4.6,1.5,5.7c0.4,0.7,0.5,1.5,0.1,2.1C117.2,409.1,116.4,409.5,115.5,409.5z"
   id="path17252" />
	</g>
	<g
   id="g17258">
		<path
   class="st4"
   d="M105.7,400.6c-0.1,0-0.2,0-0.3-0.1c-0.2-0.2-0.2-0.5,0-0.7c0.6-0.7,1.5-1,2.4-0.9c0.7,0.1,1.3,0.4,1.7,1    c0.1,0.2,0.1,0.5-0.1,0.7c-0.2,0.1-0.5,0.1-0.7-0.1c-0.2-0.3-0.5-0.5-0.9-0.5c-0.6-0.1-1.1,0.2-1.6,0.6    C105.9,400.5,105.8,400.6,105.7,400.6z"
   id="path17256" />
	</g>
	<g
   id="g17262">
		<path
   class="st4"
   d="M124.9,400.6c-0.1,0-0.3,0-0.4-0.1c-0.4-0.5-1.1-0.7-1.7-0.7c-0.5,0-1,0.2-1.2,0.6c-0.2,0.2-0.5,0.3-0.7,0.1    c-0.2-0.2-0.3-0.5-0.1-0.7c0.4-0.6,1.1-0.9,1.9-1c0.9-0.1,1.8,0.3,2.4,1c0.2,0.2,0.2,0.5,0,0.7C125.1,400.5,125,400.6,124.9,400.6    z"
   id="path17260" />
	</g>
	<g
   id="g17266">
		<path
   class="st4"
   d="M115,415.6c-1.3,0-2.3-0.4-2.8-1.2c-0.2-0.2-0.1-0.5,0.1-0.7s0.5-0.1,0.7,0.1c0.4,0.5,1.2,0.8,2.2,0.8    c1.1,0,2.1-0.5,2.4-1.1c0.1-0.2,0.4-0.3,0.7-0.2c0.2,0.1,0.3,0.4,0.2,0.7c-0.5,0.9-1.8,1.5-3.2,1.5    C115.2,415.6,115.1,415.6,115,415.6z"
   id="path17264" />
	</g>
	<g
   id="g17276">
		<g
   id="g17270">
			<path
   class="st3"
   d="M99.2,408.6c-2.5-0.2-4-2.8-3.8-5s2.5-2.7,4.2-2.2"
   id="path17268" />
		</g>
		<g
   id="g17274">
			<path
   class="st4"
   d="M99.2,409.1C99.2,409.1,99.1,409.1,99.2,409.1c-1.2-0.1-2.3-0.7-3.1-1.6c-0.9-1.1-1.3-2.5-1.2-3.9     c0.1-1,0.6-1.7,1.3-2.2c0.9-0.6,2.3-0.8,3.5-0.4c0.3,0.1,0.4,0.3,0.3,0.6s-0.3,0.4-0.6,0.3c-1-0.3-2-0.2-2.7,0.3     c-0.5,0.3-0.8,0.9-0.9,1.5c-0.1,1.1,0.3,2.3,1,3.2c0.4,0.5,1.2,1.2,2.4,1.3c0.3,0,0.5,0.3,0.4,0.5     C99.6,408.9,99.4,409.1,99.2,409.1z"
   id="path17272" />
		</g>
	</g>
	<g
   id="g17286">
		<g
   id="g17280">
			<path
   class="st3"
   d="M131.8,408.5c2.6,0.2,4.4-2.3,4.5-4.5s-2-3.1-3.8-2.9"
   id="path17278" />
		</g>
		<g
   id="g17284">
			<path
   class="st4"
   d="M132.1,409c-0.1,0-0.2,0-0.3,0c-0.3,0-0.5-0.3-0.4-0.5c0-0.3,0.3-0.5,0.5-0.4c1.1,0.1,1.9-0.4,2.4-0.8     c0.9-0.8,1.5-2,1.6-3.2c0-0.7-0.2-1.2-0.6-1.6c-0.6-0.6-1.7-0.9-2.7-0.7c-0.3,0-0.5-0.2-0.5-0.4c0-0.3,0.2-0.5,0.4-0.5     c1.3-0.2,2.6,0.2,3.5,1c0.7,0.6,1,1.4,0.9,2.4c-0.1,1.5-0.8,2.9-1.9,3.9C134.1,408.6,133.1,409,132.1,409z"
   id="path17282" />
		</g>
	</g>
	<g
   id="g17290">
		<path
   class="st8"
   d="M103,386.1c2.5,2.7,7,6.3,17.4,7c4.7,0.3,7.8-0.4,9.5,1.6c2.2,2.6,2.5,6.8,2.3,9.1c-0.1,1,3.6-3.4,3.6-3.4    c-1.5-2.4,1.6-7.6,0.7-14.6c-0.4-2.9-6.5-9.4-15-11.6c-10.7-2.7-16.5,2.5-19.4,5.1c-2.2,2-5.1,1-7.3,5.8c-2,4.3,1.3,12.4,0.8,14.8    c-0.2,1.1,0.8,0.8,3.1,3.6c0.9,1.1,1-3.4,1.2-6.1C100.3,394.8,103,386.1,103,386.1z"
   id="path17288" />
	</g>
	<g
   id="g17294">
		<path
   class="st4"
   d="M132.3,404.5c-0.2,0-0.3-0.1-0.4-0.2c-0.1-0.1-0.2-0.3-0.1-0.5c0.2-1.9,0-6.1-2.2-8.7    c-1.1-1.3-2.9-1.3-5.7-1.3c-1,0-2.2,0-3.5-0.1c-9.9-0.6-14.6-3.9-17.2-6.6c-0.7,2.2-2.5,8.3-2.7,10.4c0,0.5-0.1,1-0.1,1.5    c-0.3,3.9-0.4,5.2-1.3,5.2l0,0c-0.2,0-0.5-0.1-0.6-0.4c-1-1.3-1.8-1.9-2.3-2.3c-0.6-0.5-1.1-0.9-0.9-1.8c0.2-0.8-0.2-2.6-0.6-4.4    c-0.7-3.4-1.6-7.7-0.2-10.6c1.5-3.2,3.4-4,5-4.6c0.9-0.3,1.7-0.7,2.4-1.3c2.1-1.9,6.5-6,13.9-6c1.9,0,3.9,0.3,5.9,0.8    c3.8,1,7.6,3,10.7,5.6c2.6,2.2,4.4,4.7,4.6,6.4c0.5,3.7-0.1,6.9-0.6,9.5c-0.4,2.2-0.8,4-0.1,5c0.1,0.2,0.1,0.4,0,0.6    C133.1,404.5,132.5,404.5,132.3,404.5z M115.8,374c-7,0-11.2,3.9-13.3,5.7c-0.9,0.8-1.8,1.2-2.7,1.5c-1.6,0.6-3.1,1.2-4.5,4.1    c-1.2,2.6-0.4,6.7,0.3,10c0.4,2.1,0.8,3.8,0.6,4.8c-0.1,0.3-0.1,0.3,0.6,0.8c0.5,0.4,1.3,1,2.2,2.2c0.2-0.8,0.4-2.8,0.4-4.1    c0-0.5,0.1-1.1,0.1-1.5c0.2-2.7,2.9-11.1,3-11.4c0.1-0.2,0.2-0.3,0.4-0.3c0.2,0,0.3,0,0.5,0.1c2.4,2.6,6.8,6.2,17.1,6.9    c1.3,0.1,2.4,0.1,3.5,0.1c2.9,0,5,0,6.4,1.7c2.1,2.5,2.5,6.3,2.4,8.6c0.6-0.6,1.6-1.7,2.5-2.7c-0.6-1.3-0.2-3.1,0.2-5.3    c0.5-2.5,1.1-5.6,0.6-9.2c-0.3-2.6-6.3-9-14.6-11.1C119.5,374.2,117.6,374,115.8,374z"
   id="path17292" />
	</g>
	<g
   id="g17298">
		<path
   class="st4"
   d="M104.5,383.6c0,0,0.1,0.1,0.3,0.2c0.1,0.1,0.2,0.2,0.3,0.3c0.1,0.1,0.3,0.2,0.4,0.3c0.1,0.1,0.3,0.2,0.4,0.4    c0.2,0.1,0.3,0.3,0.5,0.4c0.2,0.2,0.4,0.3,0.6,0.4s0.4,0.3,0.6,0.4s0.4,0.3,0.6,0.4s0.4,0.3,0.6,0.4s0.4,0.3,0.5,0.4    c0.2,0.1,0.3,0.2,0.5,0.3c0.2,0.1,0.3,0.2,0.4,0.3c0.1,0.1,0.2,0.1,0.3,0.2c0.2,0.1,0.3,0.2,0.3,0.2s-0.1,0-0.4,0    c-0.1,0-0.3,0-0.4,0c-0.2,0-0.3,0-0.5-0.1s-0.4-0.1-0.6-0.2s-0.4-0.2-0.7-0.3c-0.2-0.1-0.5-0.2-0.7-0.4c-0.2-0.1-0.4-0.3-0.6-0.4    s-0.4-0.3-0.6-0.5s-0.4-0.3-0.5-0.5c-0.2-0.2-0.3-0.4-0.5-0.5c-0.1-0.2-0.3-0.4-0.4-0.5c-0.1-0.2-0.2-0.3-0.3-0.5    c-0.1-0.1-0.1-0.3-0.2-0.4C104.5,383.7,104.5,383.6,104.5,383.6z"
   id="path17296" />
	</g>
</g>
<g
   id="g17304">
	<path
   class="st6"
   d="M315.3,326.7c-0.5,0-1.1-0.1-1.6-0.2c-1.6-0.4-3-1.5-3.8-2.9l-4.7-8.2c-0.8-1.4-1.1-3.1-0.6-4.7   c0.4-1.6,1.5-3,2.9-3.8l8.2-4.7c1.4-0.8,3.1-1.1,4.7-0.6c1.6,0.4,3,1.5,3.8,2.9l4.7,8.2c0.8,1.4,1.1,3.1,0.6,4.7   c-0.4,1.6-1.5,3-2.9,3.8l-8.2,4.7C317.4,326.5,316.4,326.7,315.3,326.7z M318.7,302.3c-0.9,0-1.8,0.2-2.6,0.7l-8.2,4.7   c-2.5,1.4-3.4,4.7-1.9,7.2l4.7,8.2c1.4,2.5,4.7,3.4,7.2,1.9l8.2-4.7c2.5-1.4,3.4-4.7,1.9-7.2l-4.7-8.2   C322.3,303.2,320.5,302.3,318.7,302.3z"
   id="path17302" />
</g>
<g
   id="g17308">
	<path
   class="st7"
   d="M176.5,321c-0.4,0-0.8-0.1-1.3-0.2c-1.2-0.3-2.3-1.1-2.9-2.3l-3.7-6.4c-0.6-1.1-0.8-2.4-0.5-3.7   c0.3-1.2,1.1-2.3,2.3-2.9l6.4-3.7c1.1-0.6,2.4-0.8,3.7-0.5c1.2,0.3,2.3,1.1,2.9,2.3l3.7,6.4c0.6,1.1,0.8,2.4,0.5,3.7   c-0.3,1.2-1.1,2.3-2.3,2.9l-6.4,3.7C178.2,320.8,177.4,321,176.5,321z M179.2,302c-0.7,0-1.4,0.2-2,0.5l-6.4,3.7   c-1.9,1.1-2.6,3.6-1.5,5.6l3.7,6.4c1.1,1.9,3.6,2.6,5.6,1.5l6.4-3.7c1.9-1.1,2.6-3.6,1.5-5.6l-3.7-6.4   C182,302.8,180.6,302,179.2,302z"
   id="path17306" />
</g>
<g
   id="g17312">
	<path
   class="st7"
   d="M92.5,291.3c-0.3,0-0.6,0-1-0.1c-0.9-0.3-1.7-0.9-2.2-1.7l-2.8-4.8c-0.5-0.9-0.6-1.8-0.4-2.8   c0.3-0.9,0.9-1.7,1.7-2.2l4.8-2.8c0.9-0.5,1.8-0.6,2.8-0.4c0.9,0.3,1.7,0.9,2.2,1.7l2.8,4.8c0.5,0.9,0.6,1.8,0.4,2.8   c-0.3,0.9-0.9,1.7-1.7,2.2l-4.8,2.8C93.8,291.1,93.1,291.3,92.5,291.3z M94.5,276.9c-0.5,0-1.1,0.1-1.5,0.4l-4.8,2.8   c-1.5,0.9-2,2.7-1.1,4.2l2.8,4.8c0.9,1.5,2.7,2,4.2,1.1l4.8-2.8c1.5-0.9,2-2.7,1.1-4.2l-2.8-4.8C96.6,277.4,95.6,276.9,94.5,276.9z   "
   id="path17310" />
</g>
<g
   id="g17316">
	<path
   class="st7"
   d="M424.2,110.3c-0.3,0-0.5,0-0.8-0.1c-0.8-0.2-1.4-0.7-1.8-1.4l-2.2-3.9c-0.4-0.7-0.5-1.5-0.3-2.2   c0.2-0.8,0.7-1.4,1.4-1.8l3.9-2.2c0.7-0.4,1.5-0.5,2.2-0.3c0.8,0.2,1.4,0.7,1.8,1.4l2.2,3.9c0.4,0.7,0.5,1.5,0.3,2.2   c-0.2,0.8-0.7,1.4-1.4,1.8l-3.9,2.2C425.2,110.1,424.7,110.3,424.2,110.3z M425.8,98.7c-0.4,0-0.8,0.1-1.2,0.3l-3.9,2.2   c-1.2,0.7-1.6,2.2-0.9,3.4l2.2,3.9c0.7,1.2,2.2,1.6,3.4,0.9l3.9-2.2c1.2-0.7,1.6-2.2,0.9-3.4L428,100   C427.5,99.2,426.7,98.7,425.8,98.7z"
   id="path17314" />
</g>
<g
   id="g17320">
	<path
   class="st6"
   d="M110.1,41l-7.7-10c-0.6-0.8-0.7-1.7-0.3-2.6c0.4-0.9,1.2-1.5,2.1-1.6l12.5-1.6c1-0.1,1.9,0.3,2.5,1   s0.7,1.7,0.3,2.6l-4.8,11.6c-0.4,0.9-1.2,1.5-2.1,1.6C111.6,42.2,110.6,41.8,110.1,41z M116.7,25.8l-12.5,1.6   c-0.7,0.1-1.3,0.6-1.6,1.2c-0.3,0.7-0.2,1.4,0.3,2l7.7,10c0.4,0.6,1.1,0.9,1.9,0.8c0.7-0.1,1.3-0.6,1.6-1.2l4.8-11.6   c0.3-0.7,0.2-1.4-0.3-2S117.5,25.7,116.7,25.8L116.7,25.8z"
   id="path17318" />
</g>
<g
   id="g17324">
	<path
   class="st6"
   d="M127,38.5l1.9-5.3c0.1-0.4,0.5-0.7,0.9-0.8s0.8,0.1,1.1,0.4l3.6,4.3c0.3,0.3,0.4,0.8,0.2,1.2s-0.5,0.7-0.9,0.8   l-5.5,1c-0.4,0.1-0.8-0.1-1.1-0.4C126.9,39.4,126.8,38.9,127,38.5z M134.3,37.4l-3.6-4.3c-0.2-0.2-0.5-0.4-0.8-0.3   c-0.3,0.1-0.6,0.3-0.7,0.6l-1.9,5.3c-0.1,0.3-0.1,0.6,0.2,0.9c0.2,0.2,0.5,0.4,0.8,0.3l5.5-1c0.3-0.1,0.6-0.3,0.7-0.6   C134.5,37.9,134.5,37.6,134.3,37.4L134.3,37.4z"
   id="path17322" />
</g>




<style
   type="text/css"
   id="style18137">
	.st0{fill:#4FC1EA;}
	.st1{opacity:0.3;}
	.st2{fill:#585763;}
</style><g
   id="XMLID_135_"
   transform="matrix(0.68173679,0,0,0.66493411,199.97582,312.43733)">
	<g
   id="XMLID_1529_"
   style="opacity:1;stroke-width:3.8215726;stroke-miterlimit:4;stroke-dasharray:none">
		
		
		
		
	<path
   d="m 116.5192,-364.64917 c -2.7596,2.88472 -5.80433,2.43501 -8.70649,1.07489 -3.08546,-1.38746 -5.90615,-1.47513 -9.164726,0 -4.057933,1.88652 -6.211645,1.3381 -8.65558,-1.07489 -13.798012,-15.30026 -11.76141,-38.60711 3.920469,-39.48459 3.80337,0.21937 6.466227,2.26493 8.706497,2.43509 3.32985,-0.72947 6.51714,-2.81877 10.08119,-2.54476 4.28196,0.37311 7.48453,2.19368 9.62296,5.46771 -8.80832,5.70314 -6.72079,18.20664 1.36962,21.71647 -1.6191,4.57904 -3.69644,9.10342 -7.17903,12.44857 z m -14.20532,-39.64892 c -0.41241,-6.80024 4.70456,-12.39381 10.59035,-12.94224 0.80954,7.84215 -6.61897,13.70997 -10.59035,12.94224 z"
   id="path21063"
   style="fill:#575762;fill-opacity:0.77327937;stroke-width:0.201935;opacity:1" /><g
   transform="matrix(2.3396348,0,0,2.5439597,29.450089,-256.68171)"
   id="g23788"><path
     fill="#4285f4"
     d="m -3.264,51.509 c 0,-0.79 -0.07,-1.54 -0.19,-2.27 h -11.3 v 4.51 h 6.47 c -0.29,1.48 -1.14,2.73 -2.4,3.58 v 3 h 3.86 c 2.26,-2.09 3.56,-5.17 3.56,-8.82 z"
     id="path23780" /><path
     fill="#34a853"
     d="m -14.754,63.239 c 3.24,0 5.95,-1.08 7.93,-2.91 l -3.86,-3 c -1.08,0.72 -2.45,1.16 -4.07,1.16 -3.13,0 -5.78,-2.11 -6.73,-4.96 h -3.98 v 3.09 c 1.97,3.92 6.02,6.62 10.71,6.62 z"
     id="path23782" /><path
     fill="#fbbc05"
     d="m -21.484,53.529 c -0.25,-0.72 -0.38,-1.49 -0.38,-2.29 0,-0.8 0.14,-1.57 0.38,-2.29 v -3.09 h -3.98 c -0.82,1.62 -1.29,3.44 -1.29,5.38 0,1.94 0.47,3.76 1.29,5.38 z"
     id="path23784" /><path
     fill="#ea4335"
     d="m -14.754,43.989 c 1.77,0 3.35,0.61 4.6,1.8 l 3.4199999,-3.42 C -8.804,40.429 -11.514,39.239 -14.754,39.239 c -4.69,0 -8.74,2.7 -10.71,6.62 l 3.98,3.09 c 0.95,-2.85 3.6,-4.96 6.73,-4.96 z"
     id="path23786" /></g><ellipse
   style="opacity:0.736334;fill:none;fill-opacity:0.458824;stroke:#000000;stroke-width:1.44515746;stroke-miterlimit:4;stroke-dasharray:none;stroke-opacity:1"
   id="path23903"
   cx="117.98664"
   cy="108.17247"
   rx="37.159706"
   ry="38.098511" /></g>
	
</g><g
   id="g4182"
   transform="matrix(0.13822723,0,0,0.13285319,419.38286,258.88054)"><rect
     ry="300.72916"
     y="-6.7556334"
     x="-12.494543"
     height="407.29349"
     width="407.29349"
     id="rect4180"
     style="opacity:1;fill:#000000;fill-opacity:1;fill-rule:nonzero;stroke:none;stroke-width:700;stroke-linecap:butt;stroke-linejoin:miter;stroke-miterlimit:4;stroke-dasharray:none;stroke-opacity:1"
     rx="289.03735" /><g
     transform="matrix(0.29074008,0,0,0.29074008,81.631476,113.77111)"
     id="g5747"><path
       inkscape:connector-curvature="0"
       style="fill:#b1060f;fill-opacity:1;fill-rule:evenodd;stroke:#000000;stroke-width:1px;stroke-linecap:butt;stroke-linejoin:miter;stroke-opacity:1"
       d="m 451.82617,-188.60352 -0.36914,210.000004 -0.37109,209.999996 -17.27735,-48.75 c -0.006,-0.0168 -0.0273,-0.0789 -0.0332,-0.0957 l -22.32617,467.51563 c 21.95088,61.98892 33.71165,95.08081 33.84375,95.21289 0.17284,0.1729 12.68225,0.92753 27.79883,1.67773 45.79984,2.2727 102.55492,7.14269 145.60937,12.49219 9.96875,1.2385 18.54796,1.87275 19.06445,1.41016 0.5165,-0.4626 0.79775,-214.28135 0.625,-475.15235 l -0.31445,-474.31055 h -93.125 z"
       id="path4155" /><path
       inkscape:connector-curvature="0"
       style="fill:#b1060f;fill-opacity:1;fill-rule:evenodd;stroke:#000000;stroke-width:1px;stroke-linecap:butt;stroke-linejoin:miter;stroke-opacity:1"
       d="M 114.95117,-189.22852 V 285.5625 c 0,261.1354 0.25552,475.04843 0.56836,475.36133 0.31282,0.3128 16.4847,-1.21398 35.9375,-3.39258 19.45278,-2.1787 46.33789,-4.88783 59.74414,-6.01953 20.56097,-1.7358 81.94995,-5.68286 89.0586,-5.72656 2.06786,-0.013 2.20049,-10.68157 2.5,-201.10157 l 0.3164,-201.08789 14.85352,42.02539 c 2.29551,6.49543 3.01555,8.52378 5.25195,14.85157 l 22.32031,-467.400394 c -4.72927,-13.371182 -2.25012,-6.352022 -7.66992,-21.675782 -18.23693,-51.562504 -33.71225,-95.296904 -34.39062,-97.187504 l -1.23438,-3.4375 h -93.62695 z"
       id="path4157" /><path
       inkscape:connector-curvature="0"
       style="fill:url(#radialGradient5757);fill-opacity:1;fill-rule:evenodd;stroke:none;stroke-width:1px;stroke-linecap:butt;stroke-linejoin:miter;stroke-opacity:1"
       d="M 114.95117,-189.22852 V 77.285156 l 187.7461,498.023434 c 0.0196,-11.41266 0.042,-17.57934 0.0625,-30.625 l 0.3164,-201.08789 14.85352,42.02539 c 82.68109,233.9563 127.10203,359.39701 127.36328,359.65821 0.17284,0.1729 12.68225,0.92753 27.79883,1.67773 45.79984,2.2727 102.55492,7.14269 145.60937,12.49219 9.96875,1.2385 18.54796,1.87275 19.06445,1.41016 0.355,-0.31796 0.58674,-105.15812 0.64844,-253.0586 l -186.86718,-537.244139 -0.0899,50.839843 -0.37109,209.999996 -17.27735,-48.75 c -16.88185,-47.6341 -28.15376,-79.49 -95.97656,-271.249996 -18.23693,-51.562504 -33.71225,-95.296904 -34.39062,-97.187504 l -1.23438,-3.4375 h -93.62695 -93.62891 z"
       id="path5623" /><path
       inkscape:connector-curvature="0"
       style="fill:#e50914;fill-opacity:1;fill-rule:evenodd;stroke:none;stroke-width:1px;stroke-linecap:butt;stroke-linejoin:miter;stroke-opacity:1"
       d="m 114.95508,-189.22852 188.12109,533.06641 v -0.24219 l 14.85352,42.02539 c 82.68109,233.9563 127.10203,359.39701 127.36328,359.65821 0.17284,0.1729 12.68225,0.92753 27.79883,1.67773 45.79984,2.2727 102.55492,7.14269 145.60937,12.49219 9.91766,1.23215 18.45293,1.86506 19.04883,1.41601 L 451.08594,231.29883 v 0.0976 l -17.27735,-48.75 c -16.88185,-47.6341 -28.15376,-79.49 -95.97656,-271.249996 -18.23693,-51.562504 -33.71225,-95.296904 -34.39062,-97.187504 l -1.23438,-3.4375 h -93.62695 -93.625 z"
       id="path4159" /><path
       inkscape:connector-curvature="0"
       id="path5715"
       d="m 451.82617,-188.60352 -0.36914,210.000004 -0.37109,209.999996 -17.27735,-48.75 c -0.006,-0.0168 -0.0273,-0.0789 -0.0332,-0.0957 l -22.32617,467.51563 c 21.95088,61.98892 33.71165,95.08081 33.84375,95.21289 0.17284,0.1729 12.68225,0.92753 27.79883,1.67773 45.79984,2.2727 102.55492,7.14269 145.60937,12.49219 9.96875,1.2385 18.54796,1.87275 19.06445,1.41016 0.5165,-0.4626 0.79775,-214.28135 0.625,-475.15235 l -0.31445,-474.31055 h -93.125 z"
       style="fill:#b1060f;fill-opacity:1;fill-rule:evenodd;stroke:#000000;stroke-width:1px;stroke-linecap:butt;stroke-linejoin:miter;stroke-opacity:1" /><path
       inkscape:connector-curvature="0"
       id="path5717"
       d="M 114.95117,-189.22852 V 285.5625 c 0,261.1354 0.25552,475.04843 0.56836,475.36133 0.31282,0.3128 16.4847,-1.21398 35.9375,-3.39258 19.45278,-2.1787 46.33789,-4.88783 59.74414,-6.01953 20.56097,-1.7358 81.94995,-5.68286 89.0586,-5.72656 2.06786,-0.013 2.20049,-10.68157 2.5,-201.10157 l 0.3164,-201.08789 14.85352,42.02539 c 2.29551,6.49543 3.01555,8.52378 5.25195,14.85157 l 22.32031,-467.400394 c -4.72927,-13.371182 -2.25012,-6.352022 -7.66992,-21.675782 -18.23693,-51.562504 -33.71225,-95.296904 -34.39062,-97.187504 l -1.23438,-3.4375 h -93.62695 z"
       style="fill:#b1060f;fill-opacity:1;fill-rule:evenodd;stroke:#000000;stroke-width:1px;stroke-linecap:butt;stroke-linejoin:miter;stroke-opacity:1" /><path
       inkscape:connector-curvature="0"
       id="path5719"
       d="M 114.95117,-189.22852 V 77.285156 l 187.7461,498.023434 c 0.0196,-11.41266 0.042,-17.57934 0.0625,-30.625 l 0.3164,-201.08789 14.85352,42.02539 c 82.68109,233.9563 127.10203,359.39701 127.36328,359.65821 0.17284,0.1729 12.68225,0.92753 27.79883,1.67773 45.79984,2.2727 102.55492,7.14269 145.60937,12.49219 9.96875,1.2385 18.54796,1.87275 19.06445,1.41016 0.355,-0.31796 0.58674,-105.15812 0.64844,-253.0586 l -186.86718,-537.244139 -0.0899,50.839843 -0.37109,209.999996 -17.27735,-48.75 c -16.88185,-47.6341 -28.15376,-79.49 -95.97656,-271.249996 -18.23693,-51.562504 -33.71225,-95.296904 -34.39062,-97.187504 l -1.23438,-3.4375 h -93.62695 -93.62891 z"
       style="fill:url(#radialGradient5631);fill-opacity:1;fill-rule:evenodd;stroke:none;stroke-width:1px;stroke-linecap:butt;stroke-linejoin:miter;stroke-opacity:1" /><path
       inkscape:connector-curvature="0"
       id="path5721"
       d="m 114.95508,-189.22852 188.12109,533.06641 v -0.24219 l 14.85352,42.02539 c 82.68109,233.9563 127.10203,359.39701 127.36328,359.65821 0.17284,0.1729 12.68225,0.92753 27.79883,1.67773 45.79984,2.2727 102.55492,7.14269 145.60937,12.49219 9.91766,1.23215 18.45293,1.86506 19.04883,1.41601 L 451.08594,231.29883 v 0.0976 l -17.27735,-48.75 c -16.88185,-47.6341 -28.15376,-79.49 -95.97656,-271.249996 -18.23693,-51.562504 -33.71225,-95.296904 -34.39062,-97.187504 l -1.23438,-3.4375 h -93.62695 -93.625 z"
       style="fill:#e50914;fill-opacity:1;fill-rule:evenodd;stroke:none;stroke-width:1px;stroke-linecap:butt;stroke-linejoin:miter;stroke-opacity:1" /></g></g><path
   d="m 292.70659,394.92475 c -0.22598,1.89053 -1.3574,3.52526 -2.94077,4.252 -0.77588,0.36251 -1.61653,0.47264 -2.45718,0.36251 -0.80751,-0.10841 -1.61652,-0.39979 -2.45567,-0.94356 -1.16305,-0.72842 -2.32761,-1.85326 -3.68501,-3.52527 2.13327,-2.94421 3.42589,-5.63262 3.91099,-8.03135 0.22598,-1.12653 0.25913,-2.14464 0.1612,-3.0899 -0.12956,-0.908 -0.42032,-1.74484 -0.87229,-2.47158 -1.00185,-1.63473 -2.68315,-2.57999 -4.5573,-2.57999 -1.87414,0 -3.55544,0.98084 -4.5573,2.57999 -0.45196,0.72674 -0.74272,1.56358 -0.87229,2.47158 -0.12956,0.94526 -0.0964,1.99895 0.1612,3.0899 0.48511,2.39873 1.80936,5.12441 3.911,8.06693 -1.32576,1.672 -2.52045,2.79851 -3.68501,3.52526 -0.84066,0.54548 -1.64817,0.83686 -2.45567,0.94527 -0.83312,0.10503 -1.67528,-0.0204 -2.45567,-0.36251 -1.58338,-0.72674 -2.7148,-2.36318 -2.94078,-4.25201 -0.0964,-0.908 -0.0316,-1.816 0.29076,-2.8341 0.0964,-0.36422 0.25913,-0.72674 0.42033,-1.1621 0.22598,-0.58105 0.48511,-1.19937 0.74273,-1.81769 l 0.0331,-0.0728 c 2.22969,-5.41579 4.62208,-10.93999 7.1109,-16.31851 l 0.0964,-0.21853 c 0.25913,-0.54378 0.51675,-1.12652 0.77588,-1.672 0.25912,-0.58105 0.54988,-1.12653 0.90543,-1.59916 0.67945,-0.87242 1.58338,-1.34505 2.58523,-1.34505 1.00185,0 1.90729,0.47263 2.58523,1.34505 0.35555,0.47263 0.64631,1.01811 0.90544,1.59916 0.25912,0.54548 0.51674,1.12652 0.77587,1.6703 l 0.0979,0.21853 c 2.45567,5.4141 4.84807,10.9383 7.07775,16.35409 v 0.0356 c 0.25913,0.58105 0.48511,1.23664 0.74273,1.81769 0.1612,0.43706 0.32391,0.79958 0.42033,1.1621 0.25762,0.94696 0.35403,1.85495 0.22447,2.80022 z m -12.89603,-1.70927 c -1.74458,-2.47158 -2.87599,-4.79747 -3.26468,-6.75915 -0.1612,-0.83684 -0.19435,-1.56358 -0.0964,-2.21747 0.0648,-0.58105 0.25913,-1.09095 0.51675,-1.52632 0.61467,-0.98083 1.64816,-1.59915 2.84435,-1.59915 1.1962,0 2.26283,0.58274 2.84436,1.59915 0.25913,0.43706 0.45196,0.94527 0.51675,1.52632 0.0964,0.65389 0.0648,1.41789 -0.0964,2.21747 -0.38719,1.92611 -1.5186,4.25199 -3.26469,6.75915 z m 14.57734,-1.88883 c -0.1612,-0.43537 -0.32391,-0.908 -0.48511,-1.30779 -0.25913,-0.65389 -0.51675,-1.27221 -0.74423,-1.85326 l -0.0316,-0.0356 c -2.22969,-5.45136 -4.62208,-10.97556 -7.14253,-16.42693 l -0.0964,-0.21853 c -0.25913,-0.54547 -0.51675,-1.12652 -0.77587,-1.70757 -0.32391,-0.65389 -0.64631,-1.34505 -1.16306,-1.99895 -1.03499,-1.45516 -2.52195,-2.25474 -4.10533,-2.25474 -1.61653,0 -3.07034,0.79958 -4.13848,2.18021 -0.48511,0.65389 -0.84066,1.34505 -1.16306,1.99894 -0.25912,0.58105 -0.51674,1.1621 -0.77587,1.70757 l -0.0964,0.21684 c -2.48881,5.45136 -4.91284,10.97557 -7.14253,16.42693 l -0.0316,0.0728 c -0.22598,0.58105 -0.4851,1.19937 -0.74423,1.85327 -0.17325,0.43028 -0.33445,0.86733 -0.48511,1.30778 -0.42032,1.34505 -0.54989,2.61726 -0.38869,3.92505 0.35555,2.72568 1.97207,5.01599 4.20176,6.03241 0.84065,0.39979 1.71294,0.58105 2.61838,0.58105 0.25912,0 0.58152,-0.0356 0.84065,-0.0729 1.06663,-0.14569 2.1649,-0.54377 3.23154,-1.23494 1.32576,-0.83516 2.58523,-2.0345 4.00741,-3.77936 1.42218,1.74486 2.71479,2.9442 4.00741,3.77936 1.06663,0.69117 2.16491,1.08925 3.23154,1.23494 0.25913,0.0373 0.58153,0.0729 0.84065,0.0729 0.90544,0 1.80936,-0.18126 2.61838,-0.58105 2.26283,-1.01809 3.84621,-3.34401 4.20175,-6.03241 0.25913,-1.27052 0.12957,-2.54104 -0.28925,-3.88609 z"
   fill="#e0565b"
   id="path24257"
   style="stroke-width:0.0159744" /></svg>
