<svg width="2765" height="1878" viewBox="0 0 2765 1878" fill="none" xmlns="http://www.w3.org/2000/svg">
<path d="M232.402 92.3926L335.319 203.644C338.836 207.445 339.384 212.067 337.574 216.142C335.741 220.269 331.433 223.864 325.18 224.979L182.228 250.448C175.975 251.562 170.294 249.746 166.617 246.6C162.987 243.495 161.244 239.086 162.612 234.414L202.647 97.6939C204.249 92.2235 209.398 88.4864 215.583 87.3845C221.768 86.2826 228.284 87.9413 232.402 92.3926Z" stroke="#E40E0E" stroke-opacity="0.69" stroke-width="6"/>
<path d="M149.05 1401.5L351.227 1448.05C358.51 1449.72 362.726 1454.62 363.588 1460.68C364.46 1466.82 361.839 1474.22 354.966 1480.24L204.636 1611.76C197.763 1617.77 189.338 1620.04 182.358 1619.24C175.472 1618.45 169.925 1614.71 168.058 1608.3L116.211 1430.23C114.022 1422.72 117.595 1414.51 124.38 1408.57C131.165 1402.64 140.516 1399.54 149.05 1401.5Z" stroke="#0EBEE4" stroke-width="6"/>
<path d="M368.679 380.099L421.179 409.383C429.094 413.799 434 422.153 434 431.216V487.784C434 496.847 429.094 505.201 421.179 509.617L368.679 538.901C361.109 543.124 351.891 543.124 344.321 538.901L291.821 509.617C283.906 505.201 279 496.847 279 487.784V431.216C279 422.153 283.906 413.799 291.821 409.383L344.321 380.099C351.891 375.876 361.109 375.876 368.679 380.099Z" stroke="#2C0EE4" stroke-opacity="0.35" stroke-width="18"/>
<path d="M2645.37 1453.6L2719.57 1490.63C2729.57 1495.62 2735.89 1505.84 2735.89 1517.03V1582.95C2735.89 1594.13 2729.57 1604.35 2719.57 1609.35L2645.37 1646.37C2637.08 1650.51 2627.32 1650.51 2619.02 1646.37L2544.83 1609.35C2534.82 1604.35 2528.5 1594.13 2528.5 1582.95V1517.03C2528.5 1505.84 2534.82 1495.62 2544.83 1490.63L2619.02 1453.6C2627.32 1449.46 2637.08 1449.46 2645.37 1453.6Z" stroke="#3AAF27" stroke-opacity="0.79" stroke-width="9"/>
<path d="M124.072 300.122L246.383 274.553C250.05 273.786 252.738 275.153 254.139 278.029C255.605 281.035 255.578 285.725 252.903 290.846L192.653 406.195C189.978 411.316 185.852 414.578 182.18 415.796C178.668 416.96 175.599 416.322 173.739 413.631L111.677 323.852C109.347 320.481 109.684 315.161 112.347 310.062C115.01 304.964 119.479 301.083 124.072 300.122Z" stroke="#E40E0E" stroke-opacity="0.47" stroke-width="6"/>
<path d="M1573.51 1665.28L1522.28 1807.91C1520.53 1812.78 1516.68 1815.4 1512.23 1815.68C1507.73 1815.95 1502.55 1813.79 1498.68 1808.76L1410.13 1693.67C1406.26 1688.64 1405.25 1682.76 1406.35 1678.05C1407.43 1673.39 1410.54 1669.81 1415.31 1668.87L1555.08 1641.32C1560.68 1640.22 1566.37 1643.06 1570.2 1648.04C1574.03 1653.02 1575.56 1659.57 1573.51 1665.28Z" stroke="#E40E8F" stroke-opacity="0.69" stroke-width="6"/>
<path d="M1367.43 1719.21L1446.54 1815.94C1448.91 1818.84 1448.93 1821.85 1447.03 1824.42C1445.04 1827.11 1440.86 1829.25 1435.09 1829.24L1304.95 1828.99C1299.17 1828.98 1294.38 1826.83 1291.6 1824.13C1288.95 1821.55 1288.1 1818.53 1289.63 1815.64L1340.65 1719.16C1342.57 1715.54 1347.45 1713.38 1353.2 1713.4C1358.95 1713.41 1364.46 1715.58 1367.43 1719.21Z" stroke="#390EE4" stroke-opacity="0.47" stroke-width="6"/>
<path d="M2628.5 976.5C2628.5 998.355 2607.27 1016.5 2580.5 1016.5C2553.73 1016.5 2532.5 998.355 2532.5 976.5C2532.5 954.645 2553.73 936.5 2580.5 936.5C2607.27 936.5 2628.5 954.645 2628.5 976.5Z" stroke="#7D19E0" stroke-width="3"/>
<path d="M2738.86 1101.23C2738.86 1146.13 2695.39 1182.96 2641.18 1182.96C2586.98 1182.96 2543.5 1146.13 2543.5 1101.23C2543.5 1056.33 2586.98 1019.5 2641.18 1019.5C2695.39 1019.5 2738.86 1056.33 2738.86 1101.23Z" stroke="#7D19E0" stroke-width="3"/>
<rect x="362" y="1531" width="25.1542" height="25.055" fill="#80F38B"/>
<rect x="429.519" y="1531" width="25.1542" height="25.055" fill="#80F38B"/>
<rect x="497.039" y="1531" width="25.1542" height="25.055" fill="#80F38B"/>
<rect x="564.558" y="1531" width="25.1542" height="25.055" fill="#80F38B"/>
<rect x="632.077" y="1531" width="25.1542" height="25.055" fill="#80F38B"/>
<rect x="699.596" y="1531" width="25.1542" height="25.055" fill="#80F38B"/>
<rect x="362" y="1594.89" width="25.1542" height="25.055" fill="#80F38B"/>
<rect x="429.519" y="1594.89" width="25.1542" height="25.055" fill="#80F38B"/>
<rect x="497.039" y="1594.89" width="25.1542" height="25.055" fill="#80F38B"/>
<rect x="564.558" y="1594.89" width="25.1542" height="25.055" fill="#80F38B"/>
<rect x="632.077" y="1594.89" width="25.1542" height="25.055" fill="#80F38B"/>
<rect x="699.596" y="1594.89" width="25.1542" height="25.055" fill="#80F38B"/>
<rect x="362" y="1658.78" width="25.1542" height="25.055" fill="#80F38B"/>
<rect x="429.519" y="1658.78" width="25.1542" height="25.055" fill="#80F38B"/>
<rect x="497.039" y="1658.78" width="25.1542" height="25.055" fill="#80F38B"/>
<rect x="564.558" y="1658.78" width="25.1542" height="25.055" fill="#80F38B"/>
<rect x="632.077" y="1658.78" width="25.1542" height="25.055" fill="#80F38B"/>
<rect x="699.596" y="1658.78" width="25.1542" height="25.055" fill="#80F38B"/>
<rect x="362" y="1722.67" width="25.1542" height="25.055" fill="#80F38B"/>
<rect x="429.519" y="1722.67" width="25.1542" height="25.055" fill="#80F38B"/>
<rect x="497.039" y="1722.67" width="25.1542" height="25.055" fill="#80F38B"/>
<rect x="564.558" y="1722.67" width="25.1542" height="25.055" fill="#80F38B"/>
<rect x="632.077" y="1722.67" width="25.1542" height="25.055" fill="#80F38B"/>
<rect x="699.596" y="1722.67" width="25.1542" height="25.055" fill="#80F38B"/>
<rect x="362" y="1786.56" width="25.1542" height="25.055" fill="#80F38B"/>
<rect x="429.519" y="1786.56" width="25.1542" height="25.055" fill="#80F38B"/>
<rect x="497.039" y="1786.56" width="25.1542" height="25.055" fill="#80F38B"/>
<rect x="564.558" y="1786.56" width="25.1542" height="25.055" fill="#80F38B"/>
<rect x="632.077" y="1786.56" width="25.1542" height="25.055" fill="#80F38B"/>
<rect x="699.596" y="1786.56" width="25.1542" height="25.055" fill="#80F38B"/>
<rect x="362" y="1850.45" width="25.1542" height="25.055" fill="#80F38B"/>
<rect x="429.519" y="1850.45" width="25.1542" height="25.055" fill="#80F38B"/>
<rect x="497.039" y="1850.45" width="25.1542" height="25.055" fill="#80F38B"/>
<rect x="564.558" y="1850.45" width="25.1542" height="25.055" fill="#80F38B"/>
<rect x="632.077" y="1850.45" width="25.1542" height="25.055" fill="#80F38B"/>
<rect x="699.596" y="1850.45" width="25.1542" height="25.055" fill="#80F38B"/>
<rect x="2208" y="1535" width="26.7491" height="25.055" fill="#E9C546"/>
<rect x="2279.8" y="1535" width="26.7491" height="25.055" fill="#E9C546"/>
<rect x="2351.6" y="1535" width="26.7491" height="25.055" fill="#E9C546"/>
<rect x="2423.4" y="1535" width="26.7491" height="25.055" fill="#E9C546"/>
<rect x="2495.2" y="1535" width="26.7491" height="25.055" fill="#E9C546"/>
<rect x="2567" y="1535" width="26.7491" height="25.055" fill="#E9C546"/>
<rect x="2208" y="1590.06" width="26.7491" height="25.055" fill="#E9C546"/>
<rect x="2279.8" y="1590.06" width="26.7491" height="25.055" fill="#E9C546"/>
<rect x="2351.6" y="1590.06" width="26.7491" height="25.055" fill="#E9C546"/>
<rect x="2423.4" y="1590.06" width="26.7491" height="25.055" fill="#E9C546"/>
<rect x="2495.2" y="1590.06" width="26.7491" height="25.055" fill="#E9C546"/>
<rect x="2567" y="1590.06" width="26.7491" height="25.055" fill="#E9C546"/>
<rect x="2208" y="1645.11" width="26.7491" height="25.055" fill="#E9C546"/>
<rect x="2279.8" y="1645.11" width="26.7491" height="25.055" fill="#E9C546"/>
<rect x="2351.6" y="1645.11" width="26.7491" height="25.055" fill="#E9C546"/>
<rect x="2423.4" y="1645.11" width="26.7491" height="25.055" fill="#E9C546"/>
<rect x="2495.2" y="1645.11" width="26.7491" height="25.055" fill="#E9C546"/>
<rect x="2567" y="1645.11" width="26.7491" height="25.055" fill="#E9C546"/>
<rect x="2208" y="1700.17" width="26.7491" height="25.055" fill="#E9C546"/>
<rect x="2279.8" y="1700.17" width="26.7491" height="25.055" fill="#E9C546"/>
<rect x="2351.6" y="1700.17" width="26.7491" height="25.055" fill="#E9C546"/>
<rect x="2423.4" y="1700.17" width="26.7491" height="25.055" fill="#E9C546"/>
<rect x="2495.2" y="1700.17" width="26.7491" height="25.055" fill="#E9C546"/>
<rect x="2567" y="1700.17" width="26.7491" height="25.055" fill="#E9C546"/>
<rect x="2208" y="1755.22" width="26.7491" height="25.055" fill="#E9C546"/>
<rect x="2279.8" y="1755.22" width="26.7491" height="25.055" fill="#E9C546"/>
<rect x="2351.6" y="1755.22" width="26.7491" height="25.055" fill="#E9C546"/>
<rect x="2423.4" y="1755.22" width="26.7491" height="25.055" fill="#E9C546"/>
<rect x="2495.2" y="1755.22" width="26.7491" height="25.055" fill="#E9C546"/>
<rect x="2567" y="1755.22" width="26.7491" height="25.055" fill="#E9C546"/>
<rect x="2208" y="1810.28" width="26.7491" height="25.055" fill="#E9C546"/>
<rect x="2279.8" y="1810.28" width="26.7491" height="25.055" fill="#E9C546"/>
<rect x="2351.6" y="1810.28" width="26.7491" height="25.055" fill="#E9C546"/>
<rect x="2423.4" y="1810.28" width="26.7491" height="25.055" fill="#E9C546"/>
<rect x="2495.2" y="1810.28" width="26.7491" height="25.055" fill="#E9C546"/>
<rect x="2567" y="1810.28" width="26.7491" height="25.055" fill="#E9C546"/>
<rect x="2402" width="25.1542" height="25.055" fill="#0F85C8"/>
<rect x="2469.52" width="25.1542" height="25.055" fill="#0F85C8"/>
<rect x="2537.04" width="25.1542" height="25.055" fill="#0F85C8"/>
<rect x="2604.56" width="25.1542" height="25.055" fill="#0F85C8"/>
<rect x="2672.08" width="25.1542" height="25.055" fill="#0F85C8"/>
<rect x="2739.6" width="25.1542" height="25.055" fill="#0F85C8"/>
<rect x="2402" y="63.8903" width="25.1542" height="25.055" fill="#0F85C8"/>
<rect x="2469.52" y="63.8903" width="25.1542" height="25.055" fill="#0F85C8"/>
<rect x="2537.04" y="63.8903" width="25.1542" height="25.055" fill="#0F85C8"/>
<rect x="2604.56" y="63.8903" width="25.1542" height="25.055" fill="#0F85C8"/>
<rect x="2672.08" y="63.8903" width="25.1542" height="25.055" fill="#0F85C8"/>
<rect x="2739.6" y="63.8903" width="25.1542" height="25.055" fill="#0F85C8"/>
<rect x="2402" y="127.78" width="25.1542" height="25.055" fill="#0F85C8"/>
<rect x="2469.52" y="127.78" width="25.1542" height="25.055" fill="#0F85C8"/>
<rect x="2537.04" y="127.78" width="25.1542" height="25.055" fill="#0F85C8"/>
<rect x="2604.56" y="127.78" width="25.1542" height="25.055" fill="#0F85C8"/>
<rect x="2672.08" y="127.78" width="25.1542" height="25.055" fill="#0F85C8"/>
<rect x="2739.6" y="127.78" width="25.1542" height="25.055" fill="#0F85C8"/>
<rect x="2402" y="191.671" width="25.1542" height="25.055" fill="#0F85C8"/>
<rect x="2469.52" y="191.671" width="25.1542" height="25.055" fill="#0F85C8"/>
<rect x="2537.04" y="191.671" width="25.1542" height="25.055" fill="#0F85C8"/>
<rect x="2604.56" y="191.671" width="25.1542" height="25.055" fill="#0F85C8"/>
<rect x="2672.08" y="191.671" width="25.1542" height="25.055" fill="#0F85C8"/>
<rect x="2739.6" y="191.671" width="25.1542" height="25.055" fill="#0F85C8"/>
<rect x="2402" y="255.561" width="25.1542" height="25.055" fill="#0F85C8"/>
<rect x="2469.52" y="255.561" width="25.1542" height="25.055" fill="#0F85C8"/>
<rect x="2537.04" y="255.561" width="25.1542" height="25.055" fill="#0F85C8"/>
<rect x="2604.56" y="255.561" width="25.1542" height="25.055" fill="#0F85C8"/>
<rect x="2672.08" y="255.561" width="25.1542" height="25.055" fill="#0F85C8"/>
<rect x="2739.6" y="255.561" width="25.1542" height="25.055" fill="#0F85C8"/>
<rect x="2402" y="319.451" width="25.1542" height="25.055" fill="#0F85C8"/>
<rect x="2469.52" y="319.451" width="25.1542" height="25.055" fill="#0F85C8"/>
<rect x="2537.04" y="319.451" width="25.1542" height="25.055" fill="#0F85C8"/>
<rect x="2604.56" y="319.451" width="25.1542" height="25.055" fill="#0F85C8"/>
<rect x="2672.08" y="319.451" width="25.1542" height="25.055" fill="#0F85C8"/>
<rect x="2739.6" y="319.451" width="25.1542" height="25.055" fill="#0F85C8"/>
<mask id="path-118-inside-1" fill="white">
<rect x="375" y="89" width="2127" height="1581" rx="77"/>
</mask>
<rect x="375" y="89" width="2127" height="1581" rx="77" fill="#C4C4C4" stroke="#E16F1C" stroke-width="180" mask="url(#path-118-inside-1)"/>
</svg>
