<?xml version="1.0" encoding="UTF-8" standalone="no"?>
<svg
   enable-background="new 0 0 1991.3 2143.2"
   viewBox="0 0 1991.3 2143.2"
   version="1.1"
   id="svg1258"
   sodipodi:docname="airbnb.svg"
   inkscape:version="1.1.1 (c3084ef, 2021-09-22)"
   xmlns:inkscape="http://www.inkscape.org/namespaces/inkscape"
   xmlns:sodipodi="http://sodipodi.sourceforge.net/DTD/sodipodi-0.dtd"
   xmlns="http://www.w3.org/2000/svg"
   xmlns:svg="http://www.w3.org/2000/svg">
  <defs
     id="defs1262" />
  <sodipodi:namedview
     id="namedview1260"
     pagecolor="#ffffff"
     bordercolor="#666666"
     borderopacity="1.0"
     inkscape:pageshadow="2"
     inkscape:pageopacity="0.0"
     inkscape:pagecheckerboard="0"
     showgrid="false"
     inkscape:zoom="0.30328481"
     inkscape:cx="994.11507"
     inkscape:cy="1071.6"
     inkscape:window-width="1440"
     inkscape:window-height="900"
     inkscape:window-x="0"
     inkscape:window-y="0"
     inkscape:window-maximized="0"
     inkscape:current-layer="svg1258" />
  <path
     d="m 1401.8635,1337.2914 c -7.3503,49.0983 -44.1501,91.5532 -95.6502,110.4269 -25.2356,9.4149 -52.5781,12.2746 -79.9208,9.4149 -26.2645,-2.8155 -52.5781,-10.3827 -79.8717,-24.505 -37.8287,-18.9178 -75.7066,-48.1305 -119.8564,-91.5531 69.3853,-76.4629 111.4283,-146.2826 127.2067,-208.5792 7.3501,-29.2567 8.4281,-55.6976 5.2431,-80.2465 -4.2142,-23.5813 -13.6714,-45.3148 -28.3717,-64.18841 -32.5856,-42.455 -87.2709,-67.00414 -148.22822,-67.00414 -60.95735,0 -115.64256,25.47304 -148.22827,67.00414 -14.70032,18.87361 -24.15753,40.60711 -28.37162,64.18841 -4.2141,24.5489 -3.13607,51.9138 5.24311,80.2465 15.77835,62.2966 58.85029,133.084 127.20681,209.503 -43.12096,43.4229 -81.97882,72.6793 -119.85663,91.5532 -27.34261,14.1662 -53.60719,21.7334 -79.87177,24.549 -27.09758,2.7277 -54.48919,-0.5279 -79.87175,-9.4148 -51.50012,-18.8737 -88.29993,-61.3727 -95.65009,-110.4269 -3.13607,-23.5812 -1.02903,-47.1624 9.45721,-73.6032 3.13607,-9.459 8.42819,-18.8739 13.6713,-30.1805 7.35016,-15.0902 15.77835,-31.1482 24.15753,-47.2063 l 1.07802,-1.8919 C 683.89972,1044.7262 761.71342,901.25929 842.6632,761.57584 l 3.13607,-5.67537 c 8.42817,-14.12229 16.80736,-29.25647 25.23556,-43.42282 8.42817,-15.09022 17.88538,-29.25648 29.44963,-41.53102 22.09949,-22.65732 51.50012,-34.93185 84.08572,-34.93185 32.58582,0 62.03552,12.27453 84.08592,34.93185 11.5643,12.27454 21.0215,26.4408 29.4496,41.53102 8.4282,14.16635 16.8074,29.25657 25.2357,43.37886 l 3.185,5.67538 c 79.8718,140.60723 157.6855,284.07431 230.2071,424.72551 v 0.9239 c 8.428,15.0904 15.7784,32.1163 24.1575,47.2064 5.2432,11.3506 10.5353,20.7656 13.6713,30.1805 8.3791,24.593 11.5152,48.1743 7.3012,72.7232 z m -419.44922,-44.3907 c -56.74325,-64.1882 -93.54307,-124.5933 -106.18535,-175.5391 -5.24313,-21.7333 -6.32114,-40.6071 -3.13607,-57.5892 2.10705,-15.09 8.42818,-28.3327 16.80738,-39.6393 19.99244,-25.47295 53.60715,-41.53104 92.51404,-41.53104 38.90692,0 73.59952,15.13419 92.51392,41.53104 8.4282,11.3508 14.7005,24.5493 16.8074,39.6393 3.1361,16.9821 2.107,36.8236 -3.136,57.5892 -12.5933,50.022 -49.3931,110.4268 -106.18532,175.5391 z m 474.13432,-49.0542 c -5.2431,-11.3066 -10.5352,-23.5811 -15.7783,-33.9639 -8.4283,-16.982 -16.8074,-33.0401 -24.2066,-48.1303 l -1.0289,-0.9238 C 1343.0131,1019.2533 1265.1995,875.78626 1183.2206,734.21109 l -3.136,-5.67536 c -8.4282,-14.16626 -16.8074,-29.25649 -25.2357,-44.34672 -10.5352,-16.98195 -21.0214,-34.93185 -37.8288,-51.9138 -33.6637,-37.79153 -82.0277,-58.55703 -133.52782,-58.55703 -52.57818,0 -99.86419,20.7655 -134.60594,56.62123 -15.77834,16.98196 -27.3426,34.93186 -37.82884,51.91382 -8.42818,15.09023 -16.80737,30.18046 -25.23555,44.34679 l -3.13606,5.63132 C 701.73611,873.8065 622.89339,1017.2735 550.37179,1158.8486 l -1.02903,1.8918 c -7.35015,15.0902 -15.77834,31.1483 -24.20652,48.1303 -5.63512,11.1747 -10.87824,22.5253 -15.77835,33.964 -13.67129,34.9319 -17.88539,67.9719 -12.64228,101.9358 11.56426,70.7876 64.14241,130.2687 136.66401,156.6656 27.34259,10.3827 55.71422,15.0901 85.16386,15.0901 8.42818,0 18.91441,-0.9239 27.3426,-1.8919 34.69276,-3.7834 70.41453,-14.1221 105.1073,-32.0722 43.12095,-21.6892 84.08584,-52.8376 130.3428,-98.1523 46.25702,45.3147 88.29992,76.4631 130.34292,98.1523 34.6926,17.9501 70.4146,28.2888 105.1073,32.0722 8.4282,0.968 18.9144,1.8919 27.3426,1.8919 29.4496,0 58.8502,-4.7074 85.1638,-15.0901 73.5996,-26.441 125.0998,-86.8458 136.6639,-156.6656 8.4282,-32.996 4.2142,-65.992 -9.4081,-100.924 z"
     fill="#e0565b"
     id="path1256"
     style="fill:#808080;stroke-width:0.464304" />
</svg>
