<?xml version="1.0" encoding="UTF-8" standalone="no"?>
<svg
   width="842"
   height="1e3"
   version="1.1"
   id="svg4"
   sodipodi:docname="apple.svg"
   inkscape:version="1.1.1 (c3084ef, 2021-09-22)"
   xmlns:inkscape="http://www.inkscape.org/namespaces/inkscape"
   xmlns:sodipodi="http://sodipodi.sourceforge.net/DTD/sodipodi-0.dtd"
   xmlns="http://www.w3.org/2000/svg"
   xmlns:svg="http://www.w3.org/2000/svg">
  <defs
     id="defs8" />
  <sodipodi:namedview
     id="namedview6"
     pagecolor="#ffffff"
     bordercolor="#666666"
     borderopacity="1.0"
     inkscape:pageshadow="2"
     inkscape:pageopacity="0.0"
     inkscape:pagecheckerboard="0"
     showgrid="false"
     inkscape:zoom="0.566"
     inkscape:cx="384.27562"
     inkscape:cy="485.86572"
     inkscape:window-width="1440"
     inkscape:window-height="872"
     inkscape:window-x="0"
     inkscape:window-y="28"
     inkscape:window-maximized="0"
     inkscape:current-layer="svg4" />
  <path
     d="m 551.76809,640.29576 c -24.99722,22.46684 -52.57714,18.9644 -78.86572,8.37167 -27.9489,-10.80628 -53.49955,-11.48969 -83.01654,0 -36.75789,14.69313 -56.26677,10.42187 -78.40452,-8.37167 C 186.49529,521.12762 204.94342,339.5991 346.99395,332.76508 c 34.45186,1.7085 58.57278,17.6403 78.86571,18.96439 30.16268,-5.68078 59.03398,-21.95428 91.3182,-19.81864 38.78717,2.90446 67.79684,17.08504 87.16737,42.58446 -79.78812,44.42109 -60.87879,141.80581 12.40636,169.14187 -14.66625,35.66502 -33.48334,70.9029 -65.02963,96.95759 z M 423.09245,331.48371 c -3.73575,-52.96362 42.61515,-96.53047 95.93022,-100.80173 7.33312,61.07901 -59.95639,106.78149 -95.93022,100.80173 z"
     id="path2"
     style="fill:#666666;stroke-width:0.443838" />
</svg>
